<svg width="24" height="24" viewBox="0 0 24 24" fill="none" xmlns="http://www.w3.org/2000/svg">
<path d="M21.9905 8.7534L22.3634 8.38039C22.6811 8.06265 22.6811 7.5475 22.3634 7.22984C22.0456 6.91219 21.5306 6.91219 21.2128 7.22984L20.8306 7.61215L20.0965 4.67566C19.833 3.622 18.7758 2.79663 17.6899 2.79663H6.31006C5.22408 2.79663 4.16695 3.622 3.90343 4.67574L3.16937 7.61215L2.78715 7.22984C2.46933 6.91219 1.95434 6.91219 1.63661 7.22984C1.31887 7.54758 1.31887 8.06273 1.63661 8.38039L2.00954 8.7534C0.820687 9.33619 0 10.5587 0 11.9695V14.8271C0 15.9804 0.548768 17.0073 1.39822 17.6624V19.0882C1.39822 20.2546 2.34707 21.2034 3.51354 21.2034H5.10513C6.27151 21.2034 7.22036 20.2546 7.22036 19.0882V18.4068H16.7796V19.0882C16.7796 20.2546 17.7284 21.2034 18.8948 21.2034H20.4864C21.6528 21.2034 22.6017 20.2546 22.6017 19.0882V17.6626C23.4512 17.0075 24 15.9805 24 14.8271V11.9695C24 10.5587 23.1793 9.33619 21.9905 8.7534ZM4.71507 8.1378L5.48194 5.07041C5.56501 4.73796 5.96751 4.4237 6.31006 4.4237H17.6898C18.0323 4.4237 18.4348 4.73796 18.5179 5.07041L19.2848 8.13788C19.306 8.22297 19.3018 8.29538 19.2735 8.33174C19.2449 8.36811 19.1757 8.38984 19.0881 8.38984H4.91176C4.82416 8.38984 4.75491 8.36811 4.72638 8.33174C4.6981 8.29538 4.6939 8.22297 4.71507 8.1378ZM1.62715 11.9695C1.62715 10.893 2.50311 10.017 3.57964 10.017H20.4204C21.4969 10.017 22.3729 10.893 22.3729 11.9695V14.8271C22.3729 15.9037 21.4969 16.7797 20.4204 16.7797H3.57964C2.50311 16.7797 1.62715 15.9037 1.62715 14.8271V11.9695ZM5.59321 19.0882C5.59321 19.3527 5.36962 19.5763 5.10513 19.5763H3.51345C3.24889 19.5763 3.02529 19.3527 3.02529 19.0882V18.3637C3.20606 18.3919 3.39103 18.4068 3.57956 18.4068H5.59313V19.0882H5.59321ZM20.9745 19.0882C20.9745 19.3527 20.7509 19.5763 20.4864 19.5763H18.8948C18.6303 19.5763 18.4067 19.3527 18.4067 19.0882V18.4068H20.4204C20.6089 18.4068 20.7939 18.3919 20.9746 18.3637V19.0882H20.9745Z" fill="#F3DD10"/>
<path d="M9.20327 14.212H14.7967C15.246 14.212 15.6102 13.8477 15.6102 13.3985C15.6102 12.9492 15.2459 12.585 14.7967 12.585H9.20327C8.75397 12.585 8.38977 12.9492 8.38977 13.3985C8.38969 13.8477 8.75397 14.212 9.20327 14.212Z" fill="#F3DD10"/>
<path d="M5.00843 15.6102C6.22807 15.6102 7.22031 14.618 7.22031 13.3983C7.22031 12.1787 6.22807 11.1865 5.00843 11.1865C3.78879 11.1865 2.79663 12.1787 2.79663 13.3983C2.79655 14.6179 3.78879 15.6102 5.00843 15.6102ZM5.00843 12.8135C5.33085 12.8135 5.59316 13.0759 5.59316 13.3982C5.59316 13.7207 5.33085 13.983 5.00843 13.983C4.68609 13.983 4.4237 13.7207 4.4237 13.3982C4.42362 13.0759 4.686 12.8135 5.00843 12.8135Z" fill="#F3DD10"/>
<path d="M18.9915 15.6102C20.2112 15.6102 21.2033 14.618 21.2033 13.3983C21.2033 12.1787 20.2112 11.1865 18.9915 11.1865C17.7719 11.1865 16.7797 12.1787 16.7797 13.3983C16.7796 14.6179 17.7719 15.6102 18.9915 15.6102ZM18.9915 12.8135C19.3139 12.8135 19.5763 13.0759 19.5763 13.3982C19.5763 13.7207 19.3139 13.983 18.9915 13.983C18.6691 13.983 18.4068 13.7207 18.4068 13.3982C18.4067 13.0759 18.669 12.8135 18.9915 12.8135Z" fill="#F3DD10"/>
</svg>
