<svg width="24" height="24" viewBox="0 0 24 24" fill="none" xmlns="http://www.w3.org/2000/svg">
<path fill-rule="evenodd" clip-rule="evenodd" d="M24 12C24 18.6274 18.6274 24 12 24C5.37258 24 0 18.6274 0 12C0 5.37258 5.37258 0 12 0C18.6274 0 24 5.37258 24 12ZM13.7159 7.42229C14.5594 7.56807 15.3805 7.82269 16.1585 8.17979C16.1651 8.18282 16.1703 8.18805 16.1733 8.19455C17.5285 10.1877 18.1978 12.4363 17.9475 15.0247C17.947 15.0302 17.9454 15.0355 17.9427 15.0402C17.94 15.045 17.9363 15.0492 17.9318 15.0524C17.0253 15.7243 16.0107 16.2366 14.9318 16.5671C14.9242 16.5695 14.916 16.5694 14.9084 16.5668C14.9008 16.5643 14.8943 16.5594 14.8896 16.5528C14.6614 16.2361 14.4567 15.903 14.2772 15.5563C14.2747 15.5515 14.2733 15.5462 14.2729 15.5408C14.2726 15.5354 14.2735 15.53 14.2754 15.525C14.2773 15.5199 14.2803 15.5153 14.2841 15.5115C14.288 15.5077 14.2925 15.5048 14.2976 15.5028C14.6221 15.3811 14.9357 15.2321 15.2351 15.0575C15.2405 15.0543 15.2451 15.0498 15.2483 15.0444C15.2516 15.039 15.2534 15.0328 15.2537 15.0265C15.2541 15.0202 15.2528 15.0139 15.2502 15.0082C15.2475 15.0025 15.2434 14.9976 15.2384 14.9938C15.1739 14.9467 15.1109 14.897 15.0509 14.8475C15.0454 14.8431 15.0389 14.8403 15.0319 14.8395C15.0249 14.8386 15.0178 14.8398 15.0115 14.8428C13.0709 15.7396 10.9446 15.7396 8.98081 14.8428C8.97452 14.84 8.96757 14.839 8.96074 14.8399C8.95391 14.8408 8.94747 14.8436 8.94214 14.848C8.88214 14.8977 8.81909 14.9469 8.75628 14.9938C8.75125 14.9976 8.74724 15.0026 8.7446 15.0083C8.74196 15.0141 8.74078 15.0204 8.74115 15.0267C8.74152 15.033 8.74343 15.0391 8.74673 15.0445C8.75002 15.0498 8.75459 15.0543 8.76003 15.0575C9.05981 15.2305 9.37282 15.3794 9.69612 15.5028C9.70115 15.5047 9.70574 15.5076 9.70957 15.5113C9.71341 15.515 9.71641 15.5196 9.71838 15.5245C9.72035 15.5295 9.72124 15.5349 9.721 15.5402C9.72076 15.5456 9.71939 15.5508 9.71698 15.5556C9.54042 15.9042 9.33543 16.2377 9.10409 16.5526C9.09931 16.5589 9.0927 16.5637 9.08516 16.5661C9.07762 16.5686 9.06951 16.5687 9.0619 16.5664C7.98449 16.2349 6.97124 15.7227 6.06542 15.0517C6.06105 15.0483 6.05741 15.044 6.05471 15.0392C6.05201 15.0344 6.05031 15.029 6.04972 15.0235C5.84065 12.785 6.26675 10.5179 7.8223 8.19361C7.82612 8.18744 7.83177 8.1826 7.83847 8.17979C8.61608 7.82247 9.43687 7.56783 10.2802 7.42229C10.2879 7.42103 10.2957 7.42213 10.3027 7.42544C10.3098 7.42874 10.3156 7.4341 10.3196 7.4408C10.4339 7.64324 10.5371 7.85184 10.6285 8.06565C11.5377 7.92756 12.4626 7.92756 13.3718 8.06565C13.4628 7.85237 13.5645 7.64383 13.6765 7.4408C13.6803 7.43396 13.6861 7.42848 13.6932 7.42515C13.7003 7.42183 13.7082 7.42082 13.7159 7.42229ZM8.93183 12.4513C8.93183 13.1178 9.41862 13.6607 10.01 13.6607C10.6107 13.6607 11.0885 13.1178 11.0881 12.4513C11.0979 11.7894 10.6153 11.2419 10.01 11.2419C9.40948 11.2419 8.93183 11.7847 8.93183 12.4513ZM12.9192 12.4513C12.9192 13.1178 13.406 13.6607 13.9974 13.6607C14.6028 13.6607 15.0757 13.1178 15.0755 12.4513C15.0853 11.7894 14.6028 11.2419 13.9974 11.2419C13.3969 11.2419 12.9192 11.7847 12.9192 12.4513Z" fill="#FAFAFC"/>
</svg>
