<svg width="20" height="23" viewBox="0 0 20 23" fill="none" xmlns="http://www.w3.org/2000/svg">
<path d="M9.85714 0L0 3.28571V13.1429C0 18.5874 4.41261 23 9.85714 23C15.3017 23 19.7143 18.5874 19.7143 13.1429V3.28571L9.85714 0ZM17.8661 13.1429C17.8661 17.5657 14.28 21.1518 9.85714 21.1518C5.43426 21.1518 1.84821 17.5657 1.84821 13.1429V4.67188L9.85714 1.84821L17.8661 4.67188V13.1429Z" fill="#FF5280"/>
<path d="M6.42767 10.5528C6.34202 10.4668 6.24021 10.3985 6.1281 10.3519C6.01599 10.3054 5.89578 10.2814 5.77438 10.2814C5.65297 10.2814 5.53276 10.3054 5.42065 10.3519C5.30854 10.3985 5.20674 10.4668 5.12108 10.5528C5.03504 10.6385 4.96677 10.7403 4.92018 10.8524C4.87359 10.9645 4.84961 11.0847 4.84961 11.2061C4.84961 11.3275 4.87359 11.4478 4.92018 11.5599C4.96677 11.672 5.03504 11.7738 5.12108 11.8594L8.44274 15.1811L8.49664 15.235C8.57766 15.3162 8.67389 15.3806 8.77982 15.4245C8.88576 15.4684 8.99931 15.491 9.114 15.491C9.22868 15.491 9.34224 15.4684 9.44817 15.4245C9.55411 15.3806 9.65033 15.3162 9.73135 15.235L15.4685 9.49782C15.5497 9.4168 15.6141 9.32057 15.658 9.21464C15.702 9.10871 15.7246 8.99515 15.7246 8.88047C15.7246 8.76578 15.702 8.65222 15.658 8.54629C15.6141 8.44036 15.5497 8.34413 15.4685 8.26311L15.3966 8.19124C15.3156 8.11007 15.2194 8.04567 15.1135 8.00173C15.0075 7.9578 14.894 7.93518 14.7793 7.93518C14.6646 7.93518 14.551 7.9578 14.4451 8.00173C14.3392 8.04567 14.243 8.11007 14.1619 8.19124L9.11271 13.2379L6.42767 10.5528Z" fill="#FF5280"/>
</svg>
