<svg width="21" height="23" viewBox="0 0 21 23" fill="none" xmlns="http://www.w3.org/2000/svg">
<path d="M20.4339 11.5359C20.4339 6.87131 17.2819 2.80332 12.763 1.64305C12.3308 1.53032 11.8893 1.79337 11.7812 2.22554C11.6685 2.6577 11.9315 3.09926 12.3637 3.2073C16.1639 4.17968 18.818 7.60881 18.818 11.5359C18.818 14.9979 16.7558 18.0653 13.6696 19.4135L14.4165 17.6754C14.5903 17.2668 14.4024 16.7923 13.9937 16.6138C13.585 16.44 13.1106 16.6279 12.9321 17.0366L11.4759 20.4281C11.3021 20.8368 11.49 21.3113 11.8986 21.4898L15.2902 22.946C15.7975 23.1245 16.2203 22.8285 16.3518 22.5232C16.5256 22.1145 16.3377 21.6401 15.9291 21.4616L14.4541 20.8274C18.0476 19.2021 20.4339 15.5945 20.4339 11.5359Z" fill="#FF5280"/>
<path d="M8.07021 19.8645C4.26998 18.8874 1.61592 15.463 1.61592 11.5359C1.61592 8.12086 3.62173 5.09101 6.63749 3.71466L5.93757 5.33998C5.76376 5.74865 5.94227 6.24189 6.36034 6.4016C6.84887 6.5848 7.26225 6.36402 7.42196 5.97883L8.87817 2.58257C9.01909 2.25375 9.0144 1.76052 8.4554 1.52095L5.06385 0.0647438C4.65517 -0.109062 4.18073 0.0788362 4.00222 0.487514C3.82842 0.896192 4.01632 1.37063 4.42499 1.54914L6.00333 2.22557C2.3957 3.85558 0 7.46792 0 11.5359C0 16.2005 3.15668 20.2638 7.67093 21.4287C8.21583 21.5697 8.55874 21.2126 8.65269 20.8462C8.76073 20.4141 8.50237 19.9772 8.07021 19.8645Z" fill="#FF5280"/>
<path d="M12.1194 14.5798C12.5328 14.1476 12.7395 13.6027 12.7395 12.9545C12.7395 12.6586 12.6878 12.3861 12.5891 12.1324C12.4905 11.8788 12.3496 11.6627 12.1664 11.4748C11.9832 11.2916 11.7436 11.1366 11.4524 11.0051C11.2973 10.9393 10.9873 10.8453 10.5129 10.7279V8.03157C10.8182 8.09264 11.0578 8.22417 11.2363 8.42146C11.4101 8.61875 11.5275 8.9006 11.5839 9.267L12.5516 9.12138C12.467 8.5295 12.2227 8.05976 11.8141 7.72154C11.4946 7.45378 11.0625 7.29407 10.5176 7.2424V6.79614H9.96326V7.2424C9.3432 7.30347 8.87346 7.47727 8.55873 7.75442C8.08428 8.1678 7.84941 8.708 7.84941 9.37504C7.84941 9.75084 7.92927 10.0844 8.09368 10.3803C8.25339 10.6762 8.48357 10.9064 8.7842 11.0708C9.18818 11.2963 9.58277 11.4466 9.96796 11.5171V14.5C9.60156 14.4624 9.28213 14.2745 9.01908 13.941C8.83588 13.7061 8.70435 13.335 8.63388 12.8324L7.6897 13.0109C7.72258 13.4947 7.84941 13.9081 8.0608 14.2463C8.27218 14.5845 8.52584 14.8288 8.82178 14.9791C9.11303 15.1294 9.49822 15.2328 9.96326 15.2938V16.2286H10.5176V15.2797C11.1752 15.2468 11.7107 15.012 12.1194 14.5798ZM9.96796 10.6105C9.54049 10.4836 9.23986 10.3098 9.06135 10.0937C8.88285 9.87767 8.7936 9.60991 8.7936 9.29049C8.7936 8.96636 8.89694 8.68921 9.10833 8.45434C9.31971 8.21947 9.60626 8.07385 9.96796 8.01748V10.6105ZM11.4195 14.0208C11.1799 14.2933 10.8793 14.4483 10.5176 14.4953V11.6439C11.0202 11.8083 11.3584 11.9915 11.5275 12.1982C11.6966 12.4049 11.7812 12.6773 11.7812 13.0203C11.7765 13.4148 11.659 13.7531 11.4195 14.0208Z" fill="#FF5280"/>
</svg>
