<svg width="23" height="23" viewBox="0 0 23 23" fill="none" xmlns="http://www.w3.org/2000/svg">
<path d="M16.7996 7.44621C16.7325 7.43663 16.6655 7.43663 16.5984 7.44621C15.113 7.39829 13.9342 6.18121 13.9342 4.68621C13.9342 3.16246 15.1705 1.91663 16.7038 1.91663C18.2275 1.91663 19.4734 3.15288 19.4734 4.68621C19.4638 6.18121 18.285 7.39829 16.7996 7.44621Z" fill="#FF5280"/>
<path d="M19.9237 14.0875C18.8504 14.8063 17.3458 15.0746 15.9562 14.8925C16.3204 14.1067 16.5121 13.2346 16.5217 12.3146C16.5217 11.3563 16.3108 10.4459 15.9083 9.65044C17.3267 9.45877 18.8312 9.7271 19.9142 10.4459C21.4283 11.4425 21.4283 13.0813 19.9237 14.0875Z" fill="#FF5280"/>
<path d="M6.17174 7.44621C6.23882 7.43663 6.3059 7.43663 6.37299 7.44621C7.8584 7.39829 9.03715 6.18121 9.03715 4.68621C9.03715 3.15288 7.8009 1.91663 6.26757 1.91663C4.74382 1.91663 3.50757 3.15288 3.50757 4.68621C3.50757 6.18121 4.68632 7.39829 6.17174 7.44621Z" fill="#FF5280"/>
<path d="M6.27707 12.3145C6.27707 13.2441 6.47832 14.1258 6.84249 14.9212C5.49124 15.065 4.08249 14.7775 3.04749 14.097C1.53332 13.0908 1.53332 11.452 3.04749 10.4458C4.07291 9.75579 5.51999 9.47787 6.88082 9.63121C6.48791 10.4362 6.27707 11.3466 6.27707 12.3145Z" fill="#FF5280"/>
<path d="M11.6151 15.2087C11.5384 15.1992 11.4522 15.1992 11.3659 15.2087C9.6026 15.1512 8.19385 13.7042 8.19385 11.9217C8.20343 10.1008 9.66968 8.625 11.5001 8.625C13.3209 8.625 14.7968 10.1008 14.7968 11.9217C14.7872 13.7042 13.388 15.1512 11.6151 15.2087Z" fill="#FF5280"/>
<path d="M8.50047 17.1925C7.05339 18.1604 7.05339 19.7513 8.50047 20.7096C10.1488 21.8117 12.8513 21.8117 14.4996 20.7096C15.9467 19.7417 15.9467 18.1509 14.4996 17.1925C12.8609 16.0904 10.1584 16.0904 8.50047 17.1925Z" fill="#FF5280"/>
</svg>
