<svg width="23" height="23" viewBox="0 0 23 23" fill="none" xmlns="http://www.w3.org/2000/svg">
<path d="M11.5001 0.00109863C5.16067 0.00109863 0 5.15968 0 11.501C0 17.84 5.16067 22.999 11.5001 22.999C17.8411 22.999 23.0001 17.84 23.0001 11.501C23 5.15968 17.841 0.00109863 11.5001 0.00109863ZM11.5001 21.891C5.77037 21.891 1.10801 17.2304 1.10801 11.5007C1.10801 5.771 5.77026 1.10865 11.5001 1.10865C17.2299 1.10865 21.8921 5.77089 21.8921 11.5007C21.8921 17.2305 17.2298 21.891 11.5001 21.891Z" fill="#FF5280"/>
<path d="M12.0517 10.6941C10.5264 10.0465 9.99209 9.5919 9.99209 8.69907C9.99209 7.98235 10.3871 7.1755 11.7361 7.1755C12.857 7.1755 13.5737 7.57996 13.9418 7.78878L14.3789 6.63328C13.8532 6.33628 13.137 6.05466 12.1042 6.02195V4.32007H11.0004V6.07153C9.40607 6.33617 8.37491 7.43805 8.37491 8.89044C8.37491 10.414 9.47876 11.2359 11.2626 11.9372C12.56 12.4625 13.1311 13.0584 13.129 14.0205C13.1311 15.0206 12.4007 15.7373 11.1591 15.7373C10.1777 15.7373 9.26578 15.3882 8.65446 14.9862L8.23462 16.1571C8.84594 16.5943 9.88069 16.9102 10.8944 16.9293V18.6788H11.9982V16.8586C13.801 16.5786 14.7651 15.2816 14.7651 13.8825C14.7656 12.3249 13.855 11.4315 12.0517 10.6941Z" fill="#FF5280"/>
</svg>
