<svg width="26" height="17" viewBox="0 0 26 17" fill="none" xmlns="http://www.w3.org/2000/svg">
<path d="M12.9215 8.77769C12.2936 8.81955 11.7076 8.5684 11.0797 8.35911C7.77292 7.27078 4.46609 6.18246 1.20113 5.05228C0.991837 4.96857 0.824404 4.88485 0.656969 4.75927C0.447677 4.59184 0.447677 4.38255 0.656969 4.21511C0.824404 4.08954 1.0337 3.96396 1.24299 3.9221C4.7591 2.87564 8.27522 1.82918 11.7913 0.740854C12.5866 0.489702 13.382 0.489702 14.2191 0.740854C17.6934 1.78732 21.2095 2.83378 24.6838 3.88024C24.8931 3.96396 25.1023 4.04768 25.3116 4.17325C25.5628 4.34069 25.5628 4.59184 25.3116 4.75927C25.1442 4.88485 24.9768 4.96856 24.8093 5.01042C21.3351 6.18246 17.819 7.3545 14.3028 8.48468C13.8424 8.69398 13.4238 8.77769 12.9215 8.77769Z" fill="#FF5280"/>
<path d="M5.97285 8.94523C5.47055 8.81966 5.34497 9.15453 5.34497 9.40568C5.34497 10.7452 5.34497 12.0428 5.34497 13.3822C5.34497 13.8427 5.51241 14.1357 5.80542 14.4287C5.93099 14.5543 6.05657 14.638 6.18214 14.7217C7.01931 15.3077 7.98206 15.6845 8.98666 15.9356C10.954 16.4798 12.9632 16.5635 14.9724 16.3123C16.27 16.1449 17.5677 15.81 18.7816 15.2659C19.3257 15.0147 19.828 14.7217 20.2047 14.3031C20.4559 14.052 20.5815 13.8008 20.5396 13.4241C20.5815 12.1683 20.5815 10.8707 20.5815 9.57311C20.5815 8.86152 20.0792 8.94523 19.8699 8.98709C18.0281 9.61497 16.1445 10.201 14.3027 10.8289C13.3818 11.1219 12.5028 11.1219 11.5819 10.8289L5.97285 8.94523Z" fill="#FF5280"/>
<path d="M23.3861 7.73166C23.2187 7.77352 23.1768 7.85723 23.1768 8.02467C23.1768 9.19671 23.1768 10.3687 23.1768 11.5408C23.1768 11.6664 23.135 11.7919 23.0931 11.9175C22.842 12.5454 22.5489 13.1733 22.3397 13.8011C22.1304 14.3872 22.2559 14.9732 22.6745 15.4336C22.8001 15.6011 22.9675 15.7266 23.135 15.8522C23.3024 15.9778 23.5536 16.0615 23.7628 16.1034C24.1396 16.1452 24.4326 15.9359 24.6837 15.7266C24.8093 15.6011 24.9349 15.4755 25.0605 15.3499C25.3535 14.9732 25.4372 14.429 25.3116 13.9267C25.1442 13.2151 24.8512 12.5872 24.5163 11.9594C24.4326 11.8338 24.3907 11.6664 24.3907 11.5408C24.3907 10.2432 24.3907 8.98741 24.3907 7.6898C24.3907 7.43865 24.1814 7.48051 24.0977 7.52236L23.3861 7.73166Z" fill="#FF5280"/>
</svg>
