<svg width="24" height="23" viewBox="0 0 24 23" fill="none" xmlns="http://www.w3.org/2000/svg">
<path d="M22.6957 8.73288C22.4192 7.60392 21.9584 6.498 21.3133 5.48424C20.8755 4.74697 20.2995 4.00969 19.6774 3.36457C17.6039 1.29097 14.9082 0.162014 12.1434 0.0237747C9.00995 -0.183585 5.8074 0.968413 3.3882 3.36457C1.10725 5.62248 -0.0447502 8.64072 0.00132972 11.682C0.0243697 14.562 1.17637 17.442 3.36516 19.6538C4.8858 21.1745 6.75204 22.1882 8.75651 22.649C9.83939 22.9255 10.9914 23.0637 12.1434 22.9716C14.8851 22.8564 17.5578 21.7735 19.6544 19.6538C22.6266 16.6817 23.6403 12.5114 22.6957 8.73288ZM16.1293 16.1057C15.2999 16.9351 13.9175 16.9351 13.088 16.1057L11.4983 14.5159L9.97763 16.0365C9.14819 16.866 7.76579 16.866 6.93636 16.0365C6.08388 15.1841 6.08388 13.8247 6.91332 12.9953L8.43395 11.4746L6.9594 10.0462C6.12996 9.19368 6.12996 7.83432 6.9594 6.9588C7.81187 6.12936 9.17123 6.12936 10.0467 6.9588L11.4752 8.43336L13.0189 6.88968C13.8483 6.06024 15.2077 6.06024 16.0602 6.88968C16.8896 7.71912 16.8896 9.10152 16.0602 9.93095L14.5395 11.4516L16.1293 13.0644C16.9587 13.8938 16.9587 15.2762 16.1293 16.1057Z" fill="#FF5280"/>
</svg>
