<svg width="26" height="26" viewBox="0 0 26 26" fill="none" xmlns="http://www.w3.org/2000/svg">
<circle cx="13" cy="13" r="12.5" stroke="#080808"/>
<path d="M16.1068 9.71285C15.6418 9.71285 15.2088 9.57767 14.8436 9.34526L11.1582 11.9183C11.2173 12.1248 11.2497 12.3427 11.2497 12.5682C11.2497 12.7937 11.2173 13.0116 11.1582 13.2181L14.7441 15.7217C15.1289 15.4484 15.5988 15.2872 16.1067 15.2872C17.4081 15.2872 18.4631 16.3422 18.4631 17.6436C18.4631 18.945 17.4082 20 16.1068 20C14.8054 20 13.7504 18.945 13.7504 17.6436C13.7504 17.4717 13.7693 17.3043 13.8042 17.1429L10.1272 14.5758C9.76827 14.7968 9.34577 14.9246 8.89327 14.9246C7.59188 14.9246 6.53687 13.8696 6.53687 12.5682C6.53687 11.2668 7.59185 10.2118 8.89327 10.2118C9.34573 10.2118 9.76827 10.3396 10.1272 10.5606L13.8326 7.97365C13.7793 7.77685 13.7504 7.57005 13.7504 7.35641C13.7504 6.05501 14.8054 5 16.1068 5C17.4082 5 18.4632 6.05501 18.4632 7.35641C18.4632 8.6578 17.4082 9.71285 16.1068 9.71285Z" fill="#080808"/>
</svg>
