<svg width="26" height="26" viewBox="0 0 26 26" fill="none" xmlns="http://www.w3.org/2000/svg">
<path d="M15.257 8.32565H13.7679V7.22458C13.7679 6.80472 13.425 6.46182 13.0051 6.46182C12.5852 6.46182 12.2423 6.80472 12.2423 7.22458V8.32565H12.1115C10.6142 8.32565 9.39297 9.54685 9.39297 11.0442C9.39297 12.5415 10.6142 13.7627 12.1115 13.7627H13.8936C14.5512 13.7627 15.0866 14.2981 15.0866 14.9556C15.0866 15.6132 14.5512 16.1486 13.8936 16.1486H10.6919C10.272 16.1486 9.92914 16.4915 9.92914 16.9114C9.92914 17.3313 10.272 17.6742 10.6919 17.6742H12.2372V18.8008C12.2372 19.2206 12.5801 19.5635 13 19.5635C13.4199 19.5635 13.7628 19.2206 13.7628 18.8008V17.6742H13.9089H13.909H13.909H13.909H13.909H13.9091H13.9091H13.9091H13.9092H13.9092H13.9092H13.9093H13.9093H13.9093H13.9093H13.9094H13.9094H13.9094H13.9095H13.9095H13.9095H13.9096H13.9096H13.9096H13.9096H13.9097H13.9097H13.9097H13.9098H13.9098H13.9098H13.9099H13.9099H13.9099H13.9099H13.91H13.91H13.91H13.9101H13.9101H13.9101H13.9102H13.9102H13.9102H13.9102H13.9103H13.9103H13.9103H13.9104H13.9104H13.9104H13.9105H13.9105H13.9105H13.9105H13.9106H13.9106H13.9106H13.9107H13.9107H13.9107H13.9108H13.9108H13.9108H13.9108H13.9109H13.9109H13.9109H13.911H13.911H13.911H13.9111H13.9111H13.9111H13.9111H13.9112H13.9112H13.9112H13.9113H13.9113H13.9113H13.9114H13.9114H13.9114H13.9114H13.9115H13.9115H13.9115H13.9116H13.9116H13.9116H13.9116H13.9117H13.9117H13.9117H13.9118H13.9118H13.9118H13.9119H13.9119H13.9119H13.9119H13.912H13.912H13.912H13.9121H13.9121H13.9121H13.9122H13.9122H13.9122H13.9122H13.9123H13.9123H13.9123H13.9124H13.9124H13.9124H13.9125H13.9125H13.9125H13.9125H13.9126H13.9126H13.9126H13.9127H13.9127H13.9127H13.9128H13.9128H13.9128H13.9128H13.9129H13.9129H13.9129H13.913H13.913H13.913H13.9131H13.9131H13.9131H13.9131H13.9132H13.9132H13.9132H13.9133H13.9133H13.9133H13.9134H13.9134H13.9134H13.9134H13.9135H13.9135H13.9135H13.9136H13.9136H13.9136H13.9137H13.9137H13.9137H13.9137H13.9138H13.9138H13.9138H13.9139H13.9139H13.9139H13.914H13.914H13.914H13.914H13.9141H13.9141H13.9141H13.9142H13.9142H13.9142H13.9143H13.9143H13.9143H13.9143H13.9144H13.9144H13.9144H13.9145H13.9145H13.9145H13.9146H13.9146H13.9146H13.9146H13.9147H13.9147H13.9147H13.9148H13.9148H13.9148H13.9149H13.9149H13.9149H13.9149H13.915H13.915H13.915H13.9151H13.9151H13.9151H13.9152H13.9152H13.9152H13.9152H13.9153H13.9153H13.9153H13.9154H13.9154H13.9154H13.9154H13.9155H13.9155H13.9155H13.9156H13.9156H13.9156H13.9157H13.9157H13.9157H13.9157H13.9158H13.9158H13.9158H13.9159H13.9159H13.9159H13.916H13.916H13.916H13.916H13.9161H13.9161H13.9161H13.9162H13.9162H13.9162H13.9163H13.9163H13.9163H13.9163H13.9164H13.9164H13.9164H13.9165H13.9165H13.9165H13.9166H13.9166H13.9166H13.9166H13.9167H13.9167H13.9167H13.9168H13.9168H13.9168H13.9169H13.9169H13.9169H13.9169H13.917H13.917H13.917H13.9171H13.9171H13.9171H13.9172H13.9172H13.9172H13.9172H13.9173H13.9173H13.9173H13.9174H13.9174H13.9174H13.9175H13.9175H13.9175H13.9175H13.9176H13.9176H13.9176H13.9177H13.9177H13.9177H13.9178H13.9178H13.9178H13.9178H13.9179H13.9179H13.9179H13.918H13.918H13.918H13.9181H13.9181H13.9181H13.9181H13.9182H13.9182H13.9182H13.9183H13.9183H13.9183H13.9184H13.9184H13.9184H13.9184H13.9185H13.9185H13.9185H13.9186H13.9186H13.9186H13.9187H13.9187H13.9187H13.9187H13.9188H13.9188H13.9188H13.9189H13.9189H13.9189H13.919H13.919H13.919H13.919H13.9191H13.9191H13.9191H13.9192H13.9192H13.9192H13.9192H13.9193H13.9193H13.9193H13.9194H13.9194H13.9194H13.9195H13.9195H13.9195H13.9195H13.9196H13.9196H13.9196H13.9197H13.9197H13.9197H13.9198H13.9198H13.9198H13.9198H13.9199H13.9199H13.9199H13.92H13.92H13.92H13.9201H13.9201H13.9201H13.9201H13.9202H13.9202H13.9202H13.9203H13.9203H13.9203H13.9204H13.9204H13.9204H13.9204H13.9205H13.9205H13.9205H13.9206H13.9206H13.9206H13.9207H13.9207H13.9207H13.9207H13.9208H13.9208H13.9208H13.9209H13.9209H13.9209H13.921H13.921H13.921H13.921H13.9211H13.9211H13.9211H13.9212H13.9212H13.9212H13.9213H13.9213H13.9213H13.9213H13.9214H13.9214H13.9214H13.9215H13.9215H13.9215H13.9216H13.9216H13.9216H13.9216H13.9217H13.9217H13.9217H13.9218H13.9218H13.9218H13.9219H13.9219H13.9219H13.9219H13.922H13.922H13.922H13.9221H13.9221H13.9221H13.9222H13.9222H13.9222H13.9222H13.9223H13.9223H13.9223H13.9224H13.9224H13.9224H13.9225H13.9225H13.9225H13.9225H13.9226H13.9226H13.9226H13.9227H13.9227H13.9227H13.9227H13.9228H13.9228H13.9228H13.9229H13.9229H13.9229H13.923H13.923H13.923H13.923H13.9231H13.9231H13.9231H13.9232H13.9232H13.9232H13.9233H13.9233H13.9233H13.9233H13.9234H13.9234H13.9234H13.9235H13.9235H13.9235H13.9236H13.9236H13.9236H13.9236H13.9237H13.9237H13.9237H13.9238H13.9238H13.9238H13.9239H13.9239H13.9239H13.9239H13.924H13.924H13.924H13.9241H13.9241H13.9241H13.9242H13.9242H13.9242H13.9242V17.6742L13.9264 17.6741C15.4073 17.6525 16.607 16.4422 16.607 14.9556C16.607 13.4534 15.3911 12.2371 13.8936 12.2371H12.1115C11.4539 12.2371 10.9185 11.7017 10.9185 11.0442C10.9185 10.3866 11.4539 9.85118 12.1115 9.85118H15.257C15.6769 9.85118 16.0198 9.50828 16.0198 9.08841C16.0198 8.66855 15.6769 8.32565 15.257 8.32565Z" fill="#F3DD10" stroke="#F3DD10" stroke-width="0.3"/>
<path d="M21.5929 4.40713C19.2975 2.11171 16.2465 0.85 13 0.85C9.75348 0.85 6.70254 2.11171 4.40713 4.40713C2.11171 6.70254 0.85 9.75348 0.85 13C0.85 16.2465 2.11171 19.2975 4.40713 21.5929C6.70254 23.8883 9.75348 25.15 13 25.15C16.2465 25.15 19.2975 23.8883 21.5929 21.5929C23.8883 19.2975 25.15 16.2465 25.15 13C25.15 9.75348 23.8883 6.70254 21.5929 4.40713ZM13 23.6245C7.14412 23.6245 2.37553 18.8559 2.37553 13C2.37553 7.14412 7.14412 2.37553 13 2.37553C18.8559 2.37553 23.6245 7.14412 23.6245 13C23.6245 18.8559 18.8559 23.6245 13 23.6245Z" fill="#F3DD10" stroke="#F3DD10" stroke-width="0.3"/>
</svg>
