<svg width="26" height="24" viewBox="0 0 26 24" fill="none" xmlns="http://www.w3.org/2000/svg">
<path d="M21.2996 16.1576L19.1474 19.0995L17.6286 17.9136C17.4648 17.7851 17.2221 17.8086 17.0875 17.9641C16.9525 18.1203 16.9763 18.3512 17.1409 18.4789L18.9816 19.9166C19.0509 19.9707 19.137 20 19.2255 20C19.2428 20 19.2605 19.9989 19.2782 19.9963C19.3843 19.9824 19.4797 19.9268 19.5412 19.843L21.9311 16.5758C22.0523 16.4101 22.0096 16.1821 21.835 16.0665C21.6603 15.9494 21.4211 15.9915 21.2996 16.1576Z" fill="#F3DD10" stroke="#F3DD10" stroke-width="0.5"/>
<mask id="path-2-outside-1_2099_6420" maskUnits="userSpaceOnUse" x="0" y="-0.399902" width="26" height="25" fill="black">
<rect fill="white" y="-0.399902" width="26" height="25"/>
<path d="M19.8 13.0001C19.5088 13.0001 19.2248 13.0301 18.9468 13.0765C19.414 12.3993 19.7928 11.6521 20.0692 10.8473C20.6336 10.5881 21 10.0301 21 9.4001V7.8001C21 7.4149 20.856 7.0417 20.6 6.7501V4.6225C20.6224 4.4025 20.7104 3.0929 19.7632 2.0125C18.9416 1.0753 17.6084 0.600098 15.8 0.600098C13.9916 0.600098 12.6584 1.0753 11.8368 2.0121C11.2628 2.6669 11.0696 3.4045 11.0112 3.9341C10.3256 3.5797 9.5176 3.4001 8.6 3.4001C4.4444 3.4001 4.2024 6.9421 4.2 7.0001V8.8317C3.9408 9.1141 3.8 9.4401 3.8 9.7637V11.1453C3.8 11.5769 3.9932 11.9793 4.3244 12.2513C4.6544 13.4953 5.466 14.4353 5.782 14.7653V15.8625C5.782 16.1773 5.6108 16.4661 5.3136 16.6285L2.6524 18.2977C1.6332 18.8537 1 19.9205 1 21.0813V22.6001H6.6H7.4H17.0416C17.8424 23.1041 18.7864 23.4001 19.8 23.4001C22.6672 23.4001 25 21.0673 25 18.2001C25 15.3329 22.6672 13.0001 19.8 13.0001ZM6.6 20.9049V21.8001H1.8V21.0813C1.8 20.2133 2.2736 19.4157 3.0564 18.9881L5.7172 17.3189C6.2504 17.0281 6.5816 16.4705 6.5816 15.8625V14.4261L6.4544 14.3073C6.444 14.2977 5.3812 13.2937 5.0672 11.9253L5.0308 11.7669L4.894 11.6789C4.71 11.5597 4.6 11.3601 4.6 11.1453V9.7637C4.6 9.6197 4.698 9.4485 4.8684 9.2941L5 9.1753L4.9992 7.0233C5.0064 6.9085 5.2148 4.2001 8.6 4.2001C9.5572 4.2001 10.3632 4.4213 11 4.8577V6.7501C10.744 7.0417 10.6 7.4149 10.6 7.8001V9.4001C10.6 9.5217 10.614 9.6413 10.6404 9.7573C10.6512 9.8037 10.6728 9.8461 10.6876 9.8909C10.7096 9.9581 10.7272 10.0273 10.758 10.0909C10.7584 10.0917 10.7588 10.0921 10.7592 10.0929C10.8616 10.3041 11.0108 10.4929 11.1988 10.6437C11.2008 10.6513 11.2032 10.6581 11.2052 10.6653C11.2292 10.7569 11.2544 10.8481 11.2816 10.9373L11.314 11.0417C11.3196 11.0601 11.3264 11.0789 11.3324 11.0973C11.3464 11.1405 11.36 11.1837 11.3744 11.2261C11.3984 11.2961 11.4236 11.3681 11.4528 11.4473C11.4652 11.4805 11.4788 11.5097 11.4916 11.5421C11.5244 11.6257 11.5572 11.7065 11.5916 11.7865C11.6 11.8057 11.6072 11.8265 11.6156 11.8453L11.638 11.8957C11.6484 11.9189 11.6592 11.9397 11.6696 11.9625C11.7088 12.0481 11.7472 12.1309 11.7872 12.2113C11.7936 12.2241 11.7996 12.2381 11.806 12.2509C11.8312 12.3009 11.8564 12.3481 11.8816 12.3961C11.9248 12.4785 11.9672 12.5561 12.0096 12.6313C12.0304 12.6681 12.0508 12.7041 12.0712 12.7389C12.1288 12.8373 12.1836 12.9277 12.2368 13.0117C12.2484 13.0297 12.2596 13.0485 12.2708 13.0657C12.3676 13.2157 12.4516 13.3373 12.5212 13.4321C12.5396 13.4573 12.5556 13.4789 12.5712 13.5001C12.58 13.5117 12.592 13.5285 12.5996 13.5389V14.8625C12.5996 15.2497 12.3884 15.6049 12.0488 15.7905L10.9904 16.3677L10.7308 16.5093L8.4804 17.7369C7.3204 18.3697 6.6 19.5833 6.6 20.9049ZM7.4 21.8001V20.9049C7.4 19.8765 7.9608 18.9313 8.8636 18.4393L12.432 16.4929C13.0292 16.1669 13.4 15.5417 13.4 14.8621V13.2549V13.2545L13.3224 13.1617L13.3072 13.1437C13.3064 13.1425 13.2816 13.1125 13.2412 13.0597C13.2388 13.0565 13.2364 13.0533 13.2336 13.0501C13.2124 13.0225 13.1876 12.9889 13.1592 12.9497C13.1588 12.9489 13.1584 12.9485 13.158 12.9477C13.0984 12.8649 13.0236 12.7573 12.9404 12.6277C12.9384 12.6249 12.9368 12.6217 12.9348 12.6189C12.8956 12.5573 12.854 12.4909 12.8116 12.4201C12.8084 12.4149 12.8052 12.4097 12.802 12.4041C12.7116 12.2525 12.6156 12.0809 12.52 11.8909L12.5196 11.8901C12.4688 11.7885 12.418 11.6809 12.3684 11.5693C12.3616 11.5537 12.3544 11.5385 12.3476 11.5229C12.3256 11.4729 12.3036 11.4205 12.2812 11.3665C12.2732 11.3469 12.2652 11.3265 12.2572 11.3065C12.2364 11.2541 12.2152 11.2013 12.1928 11.1409C12.152 11.0321 12.1136 10.9185 12.0768 10.8013L12.0548 10.7301C12.0524 10.7221 12.0496 10.7141 12.0472 10.7057C12.0096 10.5793 11.9736 10.4501 11.9432 10.3173L11.9068 10.1589L11.7704 10.0709C11.5384 9.9213 11.4 9.6705 11.4 9.4001V7.8001C11.4 7.5757 11.4952 7.3665 11.668 7.2101L11.8 7.0913V4.6001V4.4585L11.7892 4.4501C11.7756 4.1613 11.7928 3.2761 12.4384 2.5397C13.1012 1.7833 14.2324 1.4001 15.8 1.4001C17.362 1.4001 18.4908 1.7805 19.1544 2.5313C19.9332 3.4117 19.8044 4.5381 19.8036 4.5477L19.8 7.0913L19.932 7.2105C20.1048 7.3665 20.2 7.5757 20.2 7.8001V9.4001C20.2 9.7493 19.9712 10.0549 19.6312 10.1597L19.432 10.2209L19.368 10.4189C19.1004 11.2513 18.7192 12.0201 18.2344 12.7041C18.1156 12.8725 18 13.0217 17.8996 13.1357L17.8 13.2493V13.4013C17.6992 13.4433 17.6024 13.4929 17.5052 13.5409C17.4804 13.5533 17.4552 13.5645 17.4308 13.5769C17.3432 13.6221 17.258 13.6701 17.1736 13.7197C17.1292 13.7457 17.0856 13.7725 17.0424 13.7993C16.9656 13.8477 16.8892 13.8965 16.8152 13.9489C16.7672 13.9825 16.7212 14.0189 16.6744 14.0545C16.5588 14.1417 16.4472 14.2337 16.3396 14.3301C16.288 14.3765 16.2356 14.4217 16.1856 14.4701C16.1284 14.5257 16.0736 14.5837 16.0192 14.6417C15.9732 14.6905 15.928 14.7397 15.884 14.7905C15.8312 14.8513 15.7788 14.9125 15.7288 14.9753C15.6876 15.0273 15.6492 15.0809 15.61 15.1341C15.5268 15.2477 15.4484 15.3645 15.374 15.4849C15.3392 15.5413 15.3032 15.5969 15.2708 15.6545C15.2304 15.7257 15.194 15.7989 15.1572 15.8721C15.1272 15.9313 15.0984 15.9909 15.0704 16.0517C15.0372 16.1245 15.0048 16.1973 14.9752 16.2717C14.9456 16.3449 14.9196 16.4197 14.8936 16.4941C14.8632 16.5809 14.834 16.6681 14.8084 16.7573C14.7764 16.8677 14.7472 16.9789 14.7224 17.0917C14.71 17.1489 14.7 17.2069 14.6896 17.2649C14.6708 17.3669 14.6552 17.4697 14.6424 17.5733C14.636 17.6249 14.6296 17.6765 14.6248 17.7289C14.6096 17.8849 14.6 18.0417 14.6 18.2001C14.6 18.3741 14.6092 18.5469 14.6264 18.7177C14.6328 18.7825 14.6456 18.8453 14.6544 18.9093C14.6688 19.0145 14.6816 19.1197 14.7024 19.2233C14.7164 19.2933 14.7364 19.3613 14.7532 19.4305C14.7764 19.5261 14.798 19.6221 14.8268 19.7161C14.8464 19.7797 14.8708 19.8413 14.8928 19.9041C14.9264 20.0013 14.9596 20.0989 14.9992 20.1937C15.0212 20.2469 15.0472 20.2977 15.0712 20.3497C15.1172 20.4513 15.164 20.5525 15.2164 20.6509C15.2396 20.6937 15.2656 20.7349 15.29 20.7773C15.3492 20.8809 15.4092 20.9833 15.4756 21.0825C15.5 21.1189 15.5268 21.1533 15.552 21.1893C15.6224 21.2893 15.6944 21.3885 15.7724 21.4837C15.8012 21.5189 15.8324 21.5517 15.862 21.5861C15.924 21.6581 15.9832 21.7317 16.0492 21.8005H7.4V21.8001ZM19.8 22.6001C18.8968 22.6001 18.0564 22.3257 17.3572 21.8569C17.2208 21.7657 17.092 21.6665 16.9684 21.5625C16.9252 21.5257 16.8844 21.4865 16.8428 21.4481C16.764 21.3765 16.6876 21.3029 16.6148 21.2265C16.568 21.1773 16.5228 21.1273 16.4784 21.0765C16.4128 21.0009 16.3512 20.9229 16.2912 20.8433C16.2528 20.7925 16.2132 20.7433 16.1768 20.6909C16.0884 20.5625 16.0052 20.4305 15.9308 20.2937C15.9136 20.2617 15.9 20.2281 15.8836 20.1957C15.8252 20.0813 15.7708 19.9653 15.7224 19.8461C15.7016 19.7941 15.6836 19.7409 15.6644 19.6881C15.6268 19.5833 15.5924 19.4769 15.5624 19.3693C15.5472 19.3141 15.5324 19.2585 15.5192 19.2025C15.4924 19.0885 15.4716 18.9729 15.454 18.8565C15.4464 18.8065 15.4368 18.7573 15.4312 18.7069C15.4124 18.5393 15.4 18.3705 15.4 18.2001C15.4 18.0645 15.4084 17.9305 15.4204 17.7981C15.4248 17.7509 15.4312 17.7041 15.4372 17.6573C15.4476 17.5733 15.4604 17.4905 15.4752 17.4077C15.4856 17.3521 15.496 17.2965 15.5084 17.2413C15.5244 17.1693 15.5436 17.0989 15.5632 17.0285C15.5796 16.9701 15.594 16.9109 15.6128 16.8529C15.6472 16.7461 15.686 16.6409 15.7284 16.5377C15.7572 16.4677 15.79 16.3997 15.8224 16.3317C15.8436 16.2865 15.8644 16.2417 15.8872 16.1973C15.922 16.1293 15.9592 16.0625 15.9976 15.9965C16.0216 15.9553 16.0464 15.9149 16.0716 15.8749C16.1128 15.8089 16.1544 15.7429 16.1992 15.6793C16.222 15.6469 16.2468 15.6161 16.2704 15.5841C16.364 15.4581 16.464 15.3373 16.5704 15.2221C16.5948 15.1957 16.618 15.1681 16.6432 15.1421C16.698 15.0857 16.7556 15.0317 16.8136 14.9781C16.8468 14.9473 16.8804 14.9161 16.9148 14.8861C16.9748 14.8337 17.0364 14.7829 17.0992 14.7337C17.1312 14.7089 17.164 14.6849 17.1964 14.6609C17.266 14.6097 17.336 14.5585 17.4092 14.5113C17.4144 14.5081 17.4196 14.5049 17.4248 14.5017C17.6988 14.3257 17.9952 14.1785 18.3104 14.0649C18.3368 14.0553 18.3628 14.0449 18.3896 14.0357L18.5076 13.9941C18.9164 13.8685 19.3504 13.8001 19.8 13.8001C22.226 13.8001 24.2 15.7741 24.2 18.2001C24.2 20.6261 22.226 22.6001 19.8 22.6001Z"/>
</mask>
<path d="M19.8 13.0001C19.5088 13.0001 19.2248 13.0301 18.9468 13.0765C19.414 12.3993 19.7928 11.6521 20.0692 10.8473C20.6336 10.5881 21 10.0301 21 9.4001V7.8001C21 7.4149 20.856 7.0417 20.6 6.7501V4.6225C20.6224 4.4025 20.7104 3.0929 19.7632 2.0125C18.9416 1.0753 17.6084 0.600098 15.8 0.600098C13.9916 0.600098 12.6584 1.0753 11.8368 2.0121C11.2628 2.6669 11.0696 3.4045 11.0112 3.9341C10.3256 3.5797 9.5176 3.4001 8.6 3.4001C4.4444 3.4001 4.2024 6.9421 4.2 7.0001V8.8317C3.9408 9.1141 3.8 9.4401 3.8 9.7637V11.1453C3.8 11.5769 3.9932 11.9793 4.3244 12.2513C4.6544 13.4953 5.466 14.4353 5.782 14.7653V15.8625C5.782 16.1773 5.6108 16.4661 5.3136 16.6285L2.6524 18.2977C1.6332 18.8537 1 19.9205 1 21.0813V22.6001H6.6H7.4H17.0416C17.8424 23.1041 18.7864 23.4001 19.8 23.4001C22.6672 23.4001 25 21.0673 25 18.2001C25 15.3329 22.6672 13.0001 19.8 13.0001ZM6.6 20.9049V21.8001H1.8V21.0813C1.8 20.2133 2.2736 19.4157 3.0564 18.9881L5.7172 17.3189C6.2504 17.0281 6.5816 16.4705 6.5816 15.8625V14.4261L6.4544 14.3073C6.444 14.2977 5.3812 13.2937 5.0672 11.9253L5.0308 11.7669L4.894 11.6789C4.71 11.5597 4.6 11.3601 4.6 11.1453V9.7637C4.6 9.6197 4.698 9.4485 4.8684 9.2941L5 9.1753L4.9992 7.0233C5.0064 6.9085 5.2148 4.2001 8.6 4.2001C9.5572 4.2001 10.3632 4.4213 11 4.8577V6.7501C10.744 7.0417 10.6 7.4149 10.6 7.8001V9.4001C10.6 9.5217 10.614 9.6413 10.6404 9.7573C10.6512 9.8037 10.6728 9.8461 10.6876 9.8909C10.7096 9.9581 10.7272 10.0273 10.758 10.0909C10.7584 10.0917 10.7588 10.0921 10.7592 10.0929C10.8616 10.3041 11.0108 10.4929 11.1988 10.6437C11.2008 10.6513 11.2032 10.6581 11.2052 10.6653C11.2292 10.7569 11.2544 10.8481 11.2816 10.9373L11.314 11.0417C11.3196 11.0601 11.3264 11.0789 11.3324 11.0973C11.3464 11.1405 11.36 11.1837 11.3744 11.2261C11.3984 11.2961 11.4236 11.3681 11.4528 11.4473C11.4652 11.4805 11.4788 11.5097 11.4916 11.5421C11.5244 11.6257 11.5572 11.7065 11.5916 11.7865C11.6 11.8057 11.6072 11.8265 11.6156 11.8453L11.638 11.8957C11.6484 11.9189 11.6592 11.9397 11.6696 11.9625C11.7088 12.0481 11.7472 12.1309 11.7872 12.2113C11.7936 12.2241 11.7996 12.2381 11.806 12.2509C11.8312 12.3009 11.8564 12.3481 11.8816 12.3961C11.9248 12.4785 11.9672 12.5561 12.0096 12.6313C12.0304 12.6681 12.0508 12.7041 12.0712 12.7389C12.1288 12.8373 12.1836 12.9277 12.2368 13.0117C12.2484 13.0297 12.2596 13.0485 12.2708 13.0657C12.3676 13.2157 12.4516 13.3373 12.5212 13.4321C12.5396 13.4573 12.5556 13.4789 12.5712 13.5001C12.58 13.5117 12.592 13.5285 12.5996 13.5389V14.8625C12.5996 15.2497 12.3884 15.6049 12.0488 15.7905L10.9904 16.3677L10.7308 16.5093L8.4804 17.7369C7.3204 18.3697 6.6 19.5833 6.6 20.9049ZM7.4 21.8001V20.9049C7.4 19.8765 7.9608 18.9313 8.8636 18.4393L12.432 16.4929C13.0292 16.1669 13.4 15.5417 13.4 14.8621V13.2549V13.2545L13.3224 13.1617L13.3072 13.1437C13.3064 13.1425 13.2816 13.1125 13.2412 13.0597C13.2388 13.0565 13.2364 13.0533 13.2336 13.0501C13.2124 13.0225 13.1876 12.9889 13.1592 12.9497C13.1588 12.9489 13.1584 12.9485 13.158 12.9477C13.0984 12.8649 13.0236 12.7573 12.9404 12.6277C12.9384 12.6249 12.9368 12.6217 12.9348 12.6189C12.8956 12.5573 12.854 12.4909 12.8116 12.4201C12.8084 12.4149 12.8052 12.4097 12.802 12.4041C12.7116 12.2525 12.6156 12.0809 12.52 11.8909L12.5196 11.8901C12.4688 11.7885 12.418 11.6809 12.3684 11.5693C12.3616 11.5537 12.3544 11.5385 12.3476 11.5229C12.3256 11.4729 12.3036 11.4205 12.2812 11.3665C12.2732 11.3469 12.2652 11.3265 12.2572 11.3065C12.2364 11.2541 12.2152 11.2013 12.1928 11.1409C12.152 11.0321 12.1136 10.9185 12.0768 10.8013L12.0548 10.7301C12.0524 10.7221 12.0496 10.7141 12.0472 10.7057C12.0096 10.5793 11.9736 10.4501 11.9432 10.3173L11.9068 10.1589L11.7704 10.0709C11.5384 9.9213 11.4 9.6705 11.4 9.4001V7.8001C11.4 7.5757 11.4952 7.3665 11.668 7.2101L11.8 7.0913V4.6001V4.4585L11.7892 4.4501C11.7756 4.1613 11.7928 3.2761 12.4384 2.5397C13.1012 1.7833 14.2324 1.4001 15.8 1.4001C17.362 1.4001 18.4908 1.7805 19.1544 2.5313C19.9332 3.4117 19.8044 4.5381 19.8036 4.5477L19.8 7.0913L19.932 7.2105C20.1048 7.3665 20.2 7.5757 20.2 7.8001V9.4001C20.2 9.7493 19.9712 10.0549 19.6312 10.1597L19.432 10.2209L19.368 10.4189C19.1004 11.2513 18.7192 12.0201 18.2344 12.7041C18.1156 12.8725 18 13.0217 17.8996 13.1357L17.8 13.2493V13.4013C17.6992 13.4433 17.6024 13.4929 17.5052 13.5409C17.4804 13.5533 17.4552 13.5645 17.4308 13.5769C17.3432 13.6221 17.258 13.6701 17.1736 13.7197C17.1292 13.7457 17.0856 13.7725 17.0424 13.7993C16.9656 13.8477 16.8892 13.8965 16.8152 13.9489C16.7672 13.9825 16.7212 14.0189 16.6744 14.0545C16.5588 14.1417 16.4472 14.2337 16.3396 14.3301C16.288 14.3765 16.2356 14.4217 16.1856 14.4701C16.1284 14.5257 16.0736 14.5837 16.0192 14.6417C15.9732 14.6905 15.928 14.7397 15.884 14.7905C15.8312 14.8513 15.7788 14.9125 15.7288 14.9753C15.6876 15.0273 15.6492 15.0809 15.61 15.1341C15.5268 15.2477 15.4484 15.3645 15.374 15.4849C15.3392 15.5413 15.3032 15.5969 15.2708 15.6545C15.2304 15.7257 15.194 15.7989 15.1572 15.8721C15.1272 15.9313 15.0984 15.9909 15.0704 16.0517C15.0372 16.1245 15.0048 16.1973 14.9752 16.2717C14.9456 16.3449 14.9196 16.4197 14.8936 16.4941C14.8632 16.5809 14.834 16.6681 14.8084 16.7573C14.7764 16.8677 14.7472 16.9789 14.7224 17.0917C14.71 17.1489 14.7 17.2069 14.6896 17.2649C14.6708 17.3669 14.6552 17.4697 14.6424 17.5733C14.636 17.6249 14.6296 17.6765 14.6248 17.7289C14.6096 17.8849 14.6 18.0417 14.6 18.2001C14.6 18.3741 14.6092 18.5469 14.6264 18.7177C14.6328 18.7825 14.6456 18.8453 14.6544 18.9093C14.6688 19.0145 14.6816 19.1197 14.7024 19.2233C14.7164 19.2933 14.7364 19.3613 14.7532 19.4305C14.7764 19.5261 14.798 19.6221 14.8268 19.7161C14.8464 19.7797 14.8708 19.8413 14.8928 19.9041C14.9264 20.0013 14.9596 20.0989 14.9992 20.1937C15.0212 20.2469 15.0472 20.2977 15.0712 20.3497C15.1172 20.4513 15.164 20.5525 15.2164 20.6509C15.2396 20.6937 15.2656 20.7349 15.29 20.7773C15.3492 20.8809 15.4092 20.9833 15.4756 21.0825C15.5 21.1189 15.5268 21.1533 15.552 21.1893C15.6224 21.2893 15.6944 21.3885 15.7724 21.4837C15.8012 21.5189 15.8324 21.5517 15.862 21.5861C15.924 21.6581 15.9832 21.7317 16.0492 21.8005H7.4V21.8001ZM19.8 22.6001C18.8968 22.6001 18.0564 22.3257 17.3572 21.8569C17.2208 21.7657 17.092 21.6665 16.9684 21.5625C16.9252 21.5257 16.8844 21.4865 16.8428 21.4481C16.764 21.3765 16.6876 21.3029 16.6148 21.2265C16.568 21.1773 16.5228 21.1273 16.4784 21.0765C16.4128 21.0009 16.3512 20.9229 16.2912 20.8433C16.2528 20.7925 16.2132 20.7433 16.1768 20.6909C16.0884 20.5625 16.0052 20.4305 15.9308 20.2937C15.9136 20.2617 15.9 20.2281 15.8836 20.1957C15.8252 20.0813 15.7708 19.9653 15.7224 19.8461C15.7016 19.7941 15.6836 19.7409 15.6644 19.6881C15.6268 19.5833 15.5924 19.4769 15.5624 19.3693C15.5472 19.3141 15.5324 19.2585 15.5192 19.2025C15.4924 19.0885 15.4716 18.9729 15.454 18.8565C15.4464 18.8065 15.4368 18.7573 15.4312 18.7069C15.4124 18.5393 15.4 18.3705 15.4 18.2001C15.4 18.0645 15.4084 17.9305 15.4204 17.7981C15.4248 17.7509 15.4312 17.7041 15.4372 17.6573C15.4476 17.5733 15.4604 17.4905 15.4752 17.4077C15.4856 17.3521 15.496 17.2965 15.5084 17.2413C15.5244 17.1693 15.5436 17.0989 15.5632 17.0285C15.5796 16.9701 15.594 16.9109 15.6128 16.8529C15.6472 16.7461 15.686 16.6409 15.7284 16.5377C15.7572 16.4677 15.79 16.3997 15.8224 16.3317C15.8436 16.2865 15.8644 16.2417 15.8872 16.1973C15.922 16.1293 15.9592 16.0625 15.9976 15.9965C16.0216 15.9553 16.0464 15.9149 16.0716 15.8749C16.1128 15.8089 16.1544 15.7429 16.1992 15.6793C16.222 15.6469 16.2468 15.6161 16.2704 15.5841C16.364 15.4581 16.464 15.3373 16.5704 15.2221C16.5948 15.1957 16.618 15.1681 16.6432 15.1421C16.698 15.0857 16.7556 15.0317 16.8136 14.9781C16.8468 14.9473 16.8804 14.9161 16.9148 14.8861C16.9748 14.8337 17.0364 14.7829 17.0992 14.7337C17.1312 14.7089 17.164 14.6849 17.1964 14.6609C17.266 14.6097 17.336 14.5585 17.4092 14.5113C17.4144 14.5081 17.4196 14.5049 17.4248 14.5017C17.6988 14.3257 17.9952 14.1785 18.3104 14.0649C18.3368 14.0553 18.3628 14.0449 18.3896 14.0357L18.5076 13.9941C18.9164 13.8685 19.3504 13.8001 19.8 13.8001C22.226 13.8001 24.2 15.7741 24.2 18.2001C24.2 20.6261 22.226 22.6001 19.8 22.6001Z" fill="#F3DD10"/>
<path d="M19.8 13.0001C19.5088 13.0001 19.2248 13.0301 18.9468 13.0765C19.414 12.3993 19.7928 11.6521 20.0692 10.8473C20.6336 10.5881 21 10.0301 21 9.4001V7.8001C21 7.4149 20.856 7.0417 20.6 6.7501V4.6225C20.6224 4.4025 20.7104 3.0929 19.7632 2.0125C18.9416 1.0753 17.6084 0.600098 15.8 0.600098C13.9916 0.600098 12.6584 1.0753 11.8368 2.0121C11.2628 2.6669 11.0696 3.4045 11.0112 3.9341C10.3256 3.5797 9.5176 3.4001 8.6 3.4001C4.4444 3.4001 4.2024 6.9421 4.2 7.0001V8.8317C3.9408 9.1141 3.8 9.4401 3.8 9.7637V11.1453C3.8 11.5769 3.9932 11.9793 4.3244 12.2513C4.6544 13.4953 5.466 14.4353 5.782 14.7653V15.8625C5.782 16.1773 5.6108 16.4661 5.3136 16.6285L2.6524 18.2977C1.6332 18.8537 1 19.9205 1 21.0813V22.6001H6.6H7.4H17.0416C17.8424 23.1041 18.7864 23.4001 19.8 23.4001C22.6672 23.4001 25 21.0673 25 18.2001C25 15.3329 22.6672 13.0001 19.8 13.0001ZM6.6 20.9049V21.8001H1.8V21.0813C1.8 20.2133 2.2736 19.4157 3.0564 18.9881L5.7172 17.3189C6.2504 17.0281 6.5816 16.4705 6.5816 15.8625V14.4261L6.4544 14.3073C6.444 14.2977 5.3812 13.2937 5.0672 11.9253L5.0308 11.7669L4.894 11.6789C4.71 11.5597 4.6 11.3601 4.6 11.1453V9.7637C4.6 9.6197 4.698 9.4485 4.8684 9.2941L5 9.1753L4.9992 7.0233C5.0064 6.9085 5.2148 4.2001 8.6 4.2001C9.5572 4.2001 10.3632 4.4213 11 4.8577V6.7501C10.744 7.0417 10.6 7.4149 10.6 7.8001V9.4001C10.6 9.5217 10.614 9.6413 10.6404 9.7573C10.6512 9.8037 10.6728 9.8461 10.6876 9.8909C10.7096 9.9581 10.7272 10.0273 10.758 10.0909C10.7584 10.0917 10.7588 10.0921 10.7592 10.0929C10.8616 10.3041 11.0108 10.4929 11.1988 10.6437C11.2008 10.6513 11.2032 10.6581 11.2052 10.6653C11.2292 10.7569 11.2544 10.8481 11.2816 10.9373L11.314 11.0417C11.3196 11.0601 11.3264 11.0789 11.3324 11.0973C11.3464 11.1405 11.36 11.1837 11.3744 11.2261C11.3984 11.2961 11.4236 11.3681 11.4528 11.4473C11.4652 11.4805 11.4788 11.5097 11.4916 11.5421C11.5244 11.6257 11.5572 11.7065 11.5916 11.7865C11.6 11.8057 11.6072 11.8265 11.6156 11.8453L11.638 11.8957C11.6484 11.9189 11.6592 11.9397 11.6696 11.9625C11.7088 12.0481 11.7472 12.1309 11.7872 12.2113C11.7936 12.2241 11.7996 12.2381 11.806 12.2509C11.8312 12.3009 11.8564 12.3481 11.8816 12.3961C11.9248 12.4785 11.9672 12.5561 12.0096 12.6313C12.0304 12.6681 12.0508 12.7041 12.0712 12.7389C12.1288 12.8373 12.1836 12.9277 12.2368 13.0117C12.2484 13.0297 12.2596 13.0485 12.2708 13.0657C12.3676 13.2157 12.4516 13.3373 12.5212 13.4321C12.5396 13.4573 12.5556 13.4789 12.5712 13.5001C12.58 13.5117 12.592 13.5285 12.5996 13.5389V14.8625C12.5996 15.2497 12.3884 15.6049 12.0488 15.7905L10.9904 16.3677L10.7308 16.5093L8.4804 17.7369C7.3204 18.3697 6.6 19.5833 6.6 20.9049ZM7.4 21.8001V20.9049C7.4 19.8765 7.9608 18.9313 8.8636 18.4393L12.432 16.4929C13.0292 16.1669 13.4 15.5417 13.4 14.8621V13.2549V13.2545L13.3224 13.1617L13.3072 13.1437C13.3064 13.1425 13.2816 13.1125 13.2412 13.0597C13.2388 13.0565 13.2364 13.0533 13.2336 13.0501C13.2124 13.0225 13.1876 12.9889 13.1592 12.9497C13.1588 12.9489 13.1584 12.9485 13.158 12.9477C13.0984 12.8649 13.0236 12.7573 12.9404 12.6277C12.9384 12.6249 12.9368 12.6217 12.9348 12.6189C12.8956 12.5573 12.854 12.4909 12.8116 12.4201C12.8084 12.4149 12.8052 12.4097 12.802 12.4041C12.7116 12.2525 12.6156 12.0809 12.52 11.8909L12.5196 11.8901C12.4688 11.7885 12.418 11.6809 12.3684 11.5693C12.3616 11.5537 12.3544 11.5385 12.3476 11.5229C12.3256 11.4729 12.3036 11.4205 12.2812 11.3665C12.2732 11.3469 12.2652 11.3265 12.2572 11.3065C12.2364 11.2541 12.2152 11.2013 12.1928 11.1409C12.152 11.0321 12.1136 10.9185 12.0768 10.8013L12.0548 10.7301C12.0524 10.7221 12.0496 10.7141 12.0472 10.7057C12.0096 10.5793 11.9736 10.4501 11.9432 10.3173L11.9068 10.1589L11.7704 10.0709C11.5384 9.9213 11.4 9.6705 11.4 9.4001V7.8001C11.4 7.5757 11.4952 7.3665 11.668 7.2101L11.8 7.0913V4.6001V4.4585L11.7892 4.4501C11.7756 4.1613 11.7928 3.2761 12.4384 2.5397C13.1012 1.7833 14.2324 1.4001 15.8 1.4001C17.362 1.4001 18.4908 1.7805 19.1544 2.5313C19.9332 3.4117 19.8044 4.5381 19.8036 4.5477L19.8 7.0913L19.932 7.2105C20.1048 7.3665 20.2 7.5757 20.2 7.8001V9.4001C20.2 9.7493 19.9712 10.0549 19.6312 10.1597L19.432 10.2209L19.368 10.4189C19.1004 11.2513 18.7192 12.0201 18.2344 12.7041C18.1156 12.8725 18 13.0217 17.8996 13.1357L17.8 13.2493V13.4013C17.6992 13.4433 17.6024 13.4929 17.5052 13.5409C17.4804 13.5533 17.4552 13.5645 17.4308 13.5769C17.3432 13.6221 17.258 13.6701 17.1736 13.7197C17.1292 13.7457 17.0856 13.7725 17.0424 13.7993C16.9656 13.8477 16.8892 13.8965 16.8152 13.9489C16.7672 13.9825 16.7212 14.0189 16.6744 14.0545C16.5588 14.1417 16.4472 14.2337 16.3396 14.3301C16.288 14.3765 16.2356 14.4217 16.1856 14.4701C16.1284 14.5257 16.0736 14.5837 16.0192 14.6417C15.9732 14.6905 15.928 14.7397 15.884 14.7905C15.8312 14.8513 15.7788 14.9125 15.7288 14.9753C15.6876 15.0273 15.6492 15.0809 15.61 15.1341C15.5268 15.2477 15.4484 15.3645 15.374 15.4849C15.3392 15.5413 15.3032 15.5969 15.2708 15.6545C15.2304 15.7257 15.194 15.7989 15.1572 15.8721C15.1272 15.9313 15.0984 15.9909 15.0704 16.0517C15.0372 16.1245 15.0048 16.1973 14.9752 16.2717C14.9456 16.3449 14.9196 16.4197 14.8936 16.4941C14.8632 16.5809 14.834 16.6681 14.8084 16.7573C14.7764 16.8677 14.7472 16.9789 14.7224 17.0917C14.71 17.1489 14.7 17.2069 14.6896 17.2649C14.6708 17.3669 14.6552 17.4697 14.6424 17.5733C14.636 17.6249 14.6296 17.6765 14.6248 17.7289C14.6096 17.8849 14.6 18.0417 14.6 18.2001C14.6 18.3741 14.6092 18.5469 14.6264 18.7177C14.6328 18.7825 14.6456 18.8453 14.6544 18.9093C14.6688 19.0145 14.6816 19.1197 14.7024 19.2233C14.7164 19.2933 14.7364 19.3613 14.7532 19.4305C14.7764 19.5261 14.798 19.6221 14.8268 19.7161C14.8464 19.7797 14.8708 19.8413 14.8928 19.9041C14.9264 20.0013 14.9596 20.0989 14.9992 20.1937C15.0212 20.2469 15.0472 20.2977 15.0712 20.3497C15.1172 20.4513 15.164 20.5525 15.2164 20.6509C15.2396 20.6937 15.2656 20.7349 15.29 20.7773C15.3492 20.8809 15.4092 20.9833 15.4756 21.0825C15.5 21.1189 15.5268 21.1533 15.552 21.1893C15.6224 21.2893 15.6944 21.3885 15.7724 21.4837C15.8012 21.5189 15.8324 21.5517 15.862 21.5861C15.924 21.6581 15.9832 21.7317 16.0492 21.8005H7.4V21.8001ZM19.8 22.6001C18.8968 22.6001 18.0564 22.3257 17.3572 21.8569C17.2208 21.7657 17.092 21.6665 16.9684 21.5625C16.9252 21.5257 16.8844 21.4865 16.8428 21.4481C16.764 21.3765 16.6876 21.3029 16.6148 21.2265C16.568 21.1773 16.5228 21.1273 16.4784 21.0765C16.4128 21.0009 16.3512 20.9229 16.2912 20.8433C16.2528 20.7925 16.2132 20.7433 16.1768 20.6909C16.0884 20.5625 16.0052 20.4305 15.9308 20.2937C15.9136 20.2617 15.9 20.2281 15.8836 20.1957C15.8252 20.0813 15.7708 19.9653 15.7224 19.8461C15.7016 19.7941 15.6836 19.7409 15.6644 19.6881C15.6268 19.5833 15.5924 19.4769 15.5624 19.3693C15.5472 19.3141 15.5324 19.2585 15.5192 19.2025C15.4924 19.0885 15.4716 18.9729 15.454 18.8565C15.4464 18.8065 15.4368 18.7573 15.4312 18.7069C15.4124 18.5393 15.4 18.3705 15.4 18.2001C15.4 18.0645 15.4084 17.9305 15.4204 17.7981C15.4248 17.7509 15.4312 17.7041 15.4372 17.6573C15.4476 17.5733 15.4604 17.4905 15.4752 17.4077C15.4856 17.3521 15.496 17.2965 15.5084 17.2413C15.5244 17.1693 15.5436 17.0989 15.5632 17.0285C15.5796 16.9701 15.594 16.9109 15.6128 16.8529C15.6472 16.7461 15.686 16.6409 15.7284 16.5377C15.7572 16.4677 15.79 16.3997 15.8224 16.3317C15.8436 16.2865 15.8644 16.2417 15.8872 16.1973C15.922 16.1293 15.9592 16.0625 15.9976 15.9965C16.0216 15.9553 16.0464 15.9149 16.0716 15.8749C16.1128 15.8089 16.1544 15.7429 16.1992 15.6793C16.222 15.6469 16.2468 15.6161 16.2704 15.5841C16.364 15.4581 16.464 15.3373 16.5704 15.2221C16.5948 15.1957 16.618 15.1681 16.6432 15.1421C16.698 15.0857 16.7556 15.0317 16.8136 14.9781C16.8468 14.9473 16.8804 14.9161 16.9148 14.8861C16.9748 14.8337 17.0364 14.7829 17.0992 14.7337C17.1312 14.7089 17.164 14.6849 17.1964 14.6609C17.266 14.6097 17.336 14.5585 17.4092 14.5113C17.4144 14.5081 17.4196 14.5049 17.4248 14.5017C17.6988 14.3257 17.9952 14.1785 18.3104 14.0649C18.3368 14.0553 18.3628 14.0449 18.3896 14.0357L18.5076 13.9941C18.9164 13.8685 19.3504 13.8001 19.8 13.8001C22.226 13.8001 24.2 15.7741 24.2 18.2001C24.2 20.6261 22.226 22.6001 19.8 22.6001Z" stroke="#F3DD10" stroke-width="0.6" mask="url(#path-2-outside-1_2099_6420)"/>
</svg>
