<svg width="26" height="21" viewBox="0 0 26 21" fill="none" xmlns="http://www.w3.org/2000/svg">
<path d="M5.36667 3.41671L5.01958 1.33337H3.77375C3.58792 0.616707 2.94125 0.083374 2.16667 0.083374C1.2475 0.083374 0.5 0.830874 0.5 1.75004C0.5 2.66921 1.2475 3.41671 2.16667 3.41671C2.94125 3.41671 3.58792 2.88337 3.77417 2.16671H4.31333L4.52167 3.41671H4.50583L6.66042 14.2567C5.63333 14.335 4.77792 15.1259 4.67708 16.1209C4.61792 16.7063 4.81042 17.2925 5.20542 17.7284C5.60083 18.1655 6.16417 18.4167 6.75 18.4167H7.58333C7.58333 19.7955 8.70458 20.9167 10.0833 20.9167C11.4621 20.9167 12.5833 19.7955 12.5833 18.4167H17.1667C17.1667 19.7955 18.2879 20.9167 19.6667 20.9167C21.0454 20.9167 22.1667 19.7955 22.1667 18.4167H23.8333C24.0637 18.4167 24.25 18.2305 24.25 18C24.25 17.7696 24.0637 17.5834 23.8333 17.5834H22.0208C21.6767 16.6138 20.7529 15.9167 19.6667 15.9167C18.5804 15.9167 17.6567 16.6138 17.3125 17.5834H12.4375C12.0933 16.6138 11.1696 15.9167 10.0833 15.9167C8.99708 15.9167 8.07333 16.6138 7.72917 17.5834H6.75C6.39917 17.5834 6.06167 17.4325 5.82333 17.1696C5.58292 16.9034 5.47 16.5609 5.50625 16.2046C5.56958 15.5759 6.15042 15.0838 6.82833 15.0838H7.15792C7.16375 15.0838 7.16833 15.0838 7.17417 15.0838H23.4217C24.5679 15.0834 25.5 14.1513 25.5 13.0055V3.41671H5.36667ZM2.16667 2.58337C1.70708 2.58337 1.33333 2.20962 1.33333 1.75004C1.33333 1.29046 1.70708 0.916707 2.16667 0.916707C2.62625 0.916707 3 1.29046 3 1.75004C3 2.20962 2.62625 2.58337 2.16667 2.58337Z" fill="#FF5280"/>
</svg>
