<svg width="23" height="23" viewBox="0 0 23 23" fill="none" xmlns="http://www.w3.org/2000/svg">
<path d="M12.365 10.5422C12.2172 10.0339 11.6855 9.7417 11.1772 9.8894C10.6689 10.0372 10.3767 10.5689 10.5244 11.0772C10.5379 11.1237 10.5683 11.2471 10.6102 11.4524C10.6838 11.8132 10.7583 12.2659 10.8285 12.8155C11.1142 15.0526 11.2368 18.0868 11.1003 22.0082C11.0819 22.5372 11.4957 22.981 12.0247 22.9994C12.5537 23.0178 12.9974 22.6039 13.0159 22.0749C13.1559 18.0535 13.0291 14.9163 12.7298 12.5727C12.5982 11.5425 12.4628 10.8788 12.365 10.5422Z" fill="#FF5280"/>
<path d="M22.5956 12.6107C22.349 10.0879 21.9705 7.94387 21.4001 6.5973C19.7053 2.59067 15.7964 0 11.4448 0C10.0102 0 8.60827 0.280904 7.28272 0.833861C6.55492 1.13772 5.8712 1.49621 5.23832 1.90784C4.79462 2.19642 4.66888 2.79003 4.95746 3.23374C5.24605 3.67744 5.83966 3.80318 6.28337 3.5146C6.81741 3.16725 7.39845 2.86263 8.0209 2.60275C9.11248 2.14741 10.2636 1.91678 11.4448 1.91678C15.0263 1.91678 18.24 4.04666 19.635 7.34451C20.1049 8.45402 20.46 10.4652 20.688 12.7973C20.7395 13.3241 21.2083 13.7094 21.7351 13.6579C22.2618 13.6063 22.6471 13.1375 22.5956 12.6107Z" fill="#FF5280"/>
<path d="M4.03973 4.04423C3.62729 3.71252 3.02402 3.77797 2.69231 4.19045C0.32518 7.13386 -0.260526 11.1838 1.17706 16.0092C1.32818 16.5164 1.86191 16.8051 2.36913 16.654C2.8764 16.5029 3.16508 15.9691 3.01396 15.4619C1.74708 11.2096 2.23823 7.81354 4.18595 5.39165C4.51762 4.97921 4.45217 4.37594 4.03973 4.04423Z" fill="#FF5280"/>
<path d="M11.4451 4.54688C10.992 4.54688 10.5439 4.5953 10.103 4.69162C9.5859 4.8046 9.25828 5.31537 9.3713 5.83248C9.48428 6.34955 9.99506 6.67717 10.5122 6.56419C10.8188 6.49721 11.1297 6.4636 11.4452 6.4636C13.196 6.4636 14.7655 7.50371 15.4484 9.11631C16.5085 11.6236 17.0331 15.389 16.8499 20.6282C16.8314 21.1572 17.2453 21.601 17.7742 21.6195C18.3032 21.638 18.747 21.2241 18.7655 20.6952C18.9576 15.1988 18.3957 11.1652 17.2136 8.36937C16.2303 6.04757 13.9658 4.54688 11.4451 4.54688Z" fill="#FF5280"/>
<path d="M7.83007 6.81422C7.40227 6.50255 6.80281 6.59666 6.49114 7.02446C5.31694 8.63607 4.97332 10.8065 5.52597 12.8511C5.54834 12.9311 5.58733 13.0862 5.63913 13.32C5.72762 13.7194 5.81662 14.1882 5.90004 14.722C6.14002 16.2574 6.28436 17.997 6.28436 19.9037C6.28436 20.433 6.71342 20.862 7.2427 20.862C7.77199 20.862 8.20105 20.433 8.20105 19.9037C8.20105 17.8943 8.04853 16.0562 7.79373 14.4261C7.70397 13.8519 7.60748 13.3435 7.51044 12.9054C7.45092 12.6367 7.40335 12.4476 7.37397 12.3426C6.97065 10.8503 7.21925 9.28 8.04027 8.15315C8.35199 7.72535 8.25783 7.1259 7.83007 6.81422Z" fill="#FF5280"/>
</svg>
