<svg width="23" height="23" viewBox="0 0 23 23" fill="none" xmlns="http://www.w3.org/2000/svg">
<path d="M11.5001 13.4166C6.69882 13.4166 2.78882 16.6366 2.78882 20.6041C2.78882 20.8725 2.99965 21.0833 3.26799 21.0833H19.7322C20.0005 21.0833 20.2113 20.8725 20.2113 20.6041C20.2113 16.6366 16.3013 13.4166 11.5001 13.4166Z" fill="#FF5280"/>
<path d="M16.1479 5.55829C16.0329 5.08871 15.8412 4.62871 15.5729 4.20704C15.3908 3.90038 15.1512 3.59371 14.8925 3.32538C14.03 2.46288 12.9087 1.99329 11.7587 1.93579C10.4554 1.84954 9.12332 2.32871 8.11707 3.32538C7.16832 4.26454 6.68915 5.51996 6.70832 6.78496C6.7179 7.98288 7.19707 9.18079 8.10748 10.1008C8.73998 10.7333 9.51623 11.155 10.35 11.3466C10.8004 11.4616 11.2796 11.5191 11.7587 11.4808C12.8992 11.4329 14.0108 10.9825 14.8829 10.1008C16.1191 8.86454 16.5408 7.12996 16.1479 5.55829ZM13.4166 8.62496C13.0717 8.96996 12.4967 8.96996 12.1516 8.62496L11.4904 7.96371L10.8579 8.59621C10.5129 8.94121 9.9379 8.94121 9.5929 8.59621C9.23832 8.24163 9.23832 7.67621 9.58332 7.33121L10.2158 6.69871L9.60248 6.10454C9.25748 5.74996 9.25748 5.18454 9.60248 4.82038C9.95707 4.47538 10.5225 4.47538 10.8866 4.82038L11.4808 5.43371L12.1229 4.79163C12.4679 4.44663 13.0333 4.44663 13.3879 4.79163C13.7329 5.13663 13.7329 5.71163 13.3879 6.05663L12.7554 6.68913L13.4166 7.35996C13.7616 7.70496 13.7616 8.27996 13.4166 8.62496Z" fill="#FF5280"/>
</svg>
