<svg width="23" height="23" viewBox="0 0 23 23" fill="none" xmlns="http://www.w3.org/2000/svg">
<path d="M11.5001 1.91663C6.21583 1.91663 1.91675 6.21571 1.91675 11.5V15.4703C1.91675 16.4517 2.77637 17.25 3.83341 17.25H4.79175C5.04591 17.25 5.28967 17.149 5.46939 16.9693C5.64911 16.7895 5.75008 16.5458 5.75008 16.2916V11.3629C5.75008 11.1088 5.64911 10.865 5.46939 10.6853C5.28967 10.5056 5.04591 10.4046 4.79175 10.4046H3.92158C4.45441 6.69584 7.64567 3.83329 11.5001 3.83329C15.3545 3.83329 18.5457 6.69584 19.0786 10.4046H18.2084C17.9543 10.4046 17.7105 10.5056 17.5308 10.6853C17.351 10.865 17.2501 11.1088 17.2501 11.3629V17.25C17.2501 18.307 16.3905 19.1666 15.3334 19.1666H13.4167V18.2083H9.58342V21.0833H15.3334C17.4475 21.0833 19.1667 19.364 19.1667 17.25C20.2238 17.25 21.0834 16.4517 21.0834 15.4703V11.5C21.0834 6.21571 16.7843 1.91663 11.5001 1.91663Z" fill="#FF5280"/>
</svg>
