<svg width="22" height="23" viewBox="0 0 22 23" fill="none" xmlns="http://www.w3.org/2000/svg">
<path d="M20.7 8.43333C20.9033 8.43333 21.0983 8.51411 21.2421 8.65788C21.3859 8.80166 21.4667 8.99667 21.4667 9.2V20.7C21.4667 21.31 21.2243 21.895 20.793 22.3263C20.3617 22.7577 19.7767 23 19.1667 23H2.3C1.69 23 1.10499 22.7577 0.673654 22.3263C0.24232 21.895 0 21.31 0 20.7V9.2C0 8.99667 0.0807737 8.80166 0.224552 8.65788C0.36833 8.51411 0.563334 8.43333 0.766667 8.43333H20.7ZM10.7333 9.96667C9.59609 9.96667 8.48439 10.3039 7.53881 10.9357C6.59322 11.5675 5.85623 12.4656 5.42103 13.5162C4.98582 14.5669 4.87195 15.723 5.09382 16.8384C5.31568 17.9538 5.86332 18.9784 6.66747 19.7825C7.47162 20.5867 8.49617 21.1343 9.61156 21.3562C10.727 21.578 11.8831 21.4642 12.9338 21.029C13.9844 20.5938 14.8825 19.8568 15.5143 18.9112C16.1461 17.9656 16.4833 16.8539 16.4833 15.7167C16.4833 14.1917 15.8775 12.7291 14.7992 11.6508C13.7209 10.5725 12.2583 9.96667 10.7333 9.96667ZM11.8335 12.7152L13.8958 14.7277C13.9332 14.7774 13.9533 14.838 13.9533 14.9002C13.9533 14.9624 13.9332 15.0229 13.8958 15.0727L11.8335 17.0622C11.6878 17.2117 11.4885 17.0852 11.4885 16.836V15.6438C11.1778 15.6278 10.867 15.6733 10.5739 15.7776C10.2808 15.8819 10.0112 16.043 9.78044 16.2516C9.5497 16.4603 9.36239 16.7124 9.22924 16.9936C9.09609 17.2748 9.01972 17.5794 9.0045 17.8902C8.99876 17.9782 8.99876 18.0666 9.0045 18.1547H7.51333C7.50573 17.6372 7.60014 17.1232 7.79118 16.6422C7.98222 16.1612 8.26615 15.7225 8.62675 15.3512C8.98734 14.98 9.41754 14.6834 9.89278 14.4784C10.368 14.2734 10.879 14.164 11.3965 14.1565H11.5V12.9375C11.5 12.6883 11.7108 12.5657 11.8335 12.7152ZM15.7167 0C16.1233 0 16.5133 0.161547 16.8009 0.449103C17.0885 0.736659 17.25 1.12667 17.25 1.53333V2.3H19.1667C19.7767 2.3 20.3617 2.54232 20.793 2.97365C21.2243 3.40499 21.4667 3.99 21.4667 4.6V5.36667C21.4667 5.57 21.3859 5.765 21.2421 5.90878C21.0983 6.05256 20.9033 6.13333 20.7 6.13333H0.766667C0.563334 6.13333 0.36833 6.05256 0.224552 5.90878C0.0807737 5.765 0 5.57 0 5.36667V4.6C0 3.99 0.24232 3.40499 0.673654 2.97365C1.10499 2.54232 1.69 2.3 2.3 2.3H4.21667V1.53333C4.21667 1.12667 4.37821 0.736659 4.66577 0.449103C4.95333 0.161547 5.34334 0 5.75 0C6.15667 0 6.54667 0.161547 6.83423 0.449103C7.12179 0.736659 7.28333 1.12667 7.28333 1.53333V2.3H14.1833V1.53333C14.1833 1.12667 14.3449 0.736659 14.6324 0.449103C14.92 0.161547 15.31 0 15.7167 0Z" fill="#FF5280"/>
</svg>
