<svg width="84" height="69" viewBox="0 0 84 69" fill="none" xmlns="http://www.w3.org/2000/svg">
<path d="M6.79 39.03C7.21 39.12 7.54 39 7.93 38.76H6.19C6.22 38.67 6.22 38.61 6.22 38.49C6.1 38.55 6.04 38.58 5.95 38.61C5.89 38.64 5.77 38.67 5.71 38.67C5.44 38.67 5.14 38.64 4.87 38.61C4.78 38.61 4.69 38.58 4.66 38.55C4.57 38.43 4.39 38.43 4.24 38.4C4 38.31 3.76 38.28 3.52 38.22C3.07 38.04 2.65 37.8 2.2 37.59C1.87 37.44 1.75 37.11 1.57 36.84C1.42 36.6 1.33 36.33 1.39 36.03C1.42 35.55 1.54 35.13 1.78 34.71C2.05 34.23 2.32 33.78 2.65 33.39C3.07 32.88 3.61 32.4 4.09 31.95C4.66 31.41 5.14 30.81 5.86 30.45C5.92 30.42 5.98 30.39 6.01 30.3C6.22 30 6.61 29.85 6.91 29.61L7.03 29.58C7.18 29.7 7.27 29.58 7.36 29.52C7.9 29.22 8.38 28.8 8.95 28.5L11.26 27.09L11.92 26.7C12.25 26.55 12.58 26.43 12.88 26.22C13.18 26.04 13.57 25.98 13.78 25.68C13.78 25.65 13.87 25.65 13.9 25.65C14.05 25.59 14.23 25.56 14.44 25.5L18.19 23.85C18.49 23.73 18.79 23.61 19.09 23.52C19.39 23.46 19.69 23.37 19.96 23.28C20.35 23.16 20.71 22.89 21.13 22.95C21.16 22.95 21.19 22.92 21.19 22.92C21.4 22.71 21.67 22.71 21.94 22.65C22.03 22.62 22.15 22.56 22.21 22.56C22.45 22.62 22.57 22.53 22.69 22.41C22.78 22.32 22.84 22.26 22.93 22.23C23.29 22.17 23.62 22.14 23.98 21.99C24.22 21.84 24.49 21.84 24.79 21.78C25.03 21.75 25.24 21.72 25.45 21.63C25.54 21.57 25.63 21.54 25.75 21.54C25.81 21.57 25.93 21.54 25.99 21.54L26.38 21.45C26.35 21.36 26.26 21.27 26.2 21.12L26.41 21.21C26.47 21.24 26.5 21.27 26.56 21.27C26.86 21.24 27.13 21.21 27.43 21.15C27.73 21.09 28 20.97 28.3 20.88C28.69 20.76 29.05 20.73 29.41 20.67L29.74 20.61L31.15 20.31C31.63 20.25 32.14 20.19 32.62 20.04C33.04 19.92 33.43 19.89 33.88 19.89C34 19.89 34.12 19.86 34.21 19.83C34.54 19.77 34.87 19.56 35.26 19.65C35.32 19.65 35.38 19.59 35.44 19.59C35.71 19.56 35.95 19.5 36.25 19.47C36.91 19.41 37.63 19.38 38.32 19.35C39.43 19.29 40.54 19.29 41.65 19.38C42.01 19.44 42.31 19.47 42.7 19.44C42.94 19.41 43.21 19.5 43.48 19.53C43.72 19.56 43.93 19.56 44.2 19.59C44.26 19.59 44.32 19.53 44.38 19.5C44.14 19.44 43.99 19.32 43.9 19.11C43.81 18.99 43.63 18.9 43.45 18.9C43.3 18.87 43.09 18.81 42.94 18.72C42.19 18.48 41.41 18.39 40.66 18.36C40.57 18.36 40.51 18.39 40.45 18.39C40.06 18.42 39.67 18.51 39.31 18.48C38.74 18.42 38.2 18.51 37.66 18.48C37.36 18.45 37.06 18.48 36.76 18.54C36.31 18.57 35.86 18.69 35.41 18.72C34.63 18.78 33.85 18.93 33.1 19.05C32.26 19.17 31.42 19.35 30.58 19.53C30.46 19.53 30.28 19.53 30.16 19.71C30.25 19.74 30.31 19.74 30.4 19.74C30.49 19.74 30.58 19.74 30.73 19.71C30.58 19.86 30.49 19.8 30.4 19.74C30.31 19.77 30.28 19.86 30.22 19.86C29.95 19.95 29.62 19.98 29.32 20.04C29.29 20.04 29.26 20.01 29.14 19.98C29.38 19.95 29.53 19.92 29.68 19.92C29.83 19.89 30.01 19.89 30.07 19.71C29.02 19.71 20.95 21.84 20.47 22.26C20.74 22.23 20.92 22.2 21.13 22.2C20.77 22.35 20.41 22.53 20.02 22.56C20.05 22.5 20.05 22.44 20.11 22.38C20.02 22.38 19.99 22.35 19.96 22.38C19.03 22.68 18.1 23.01 17.17 23.37C16.93 23.43 16.72 23.52 16.54 23.67C16.3 23.79 16.09 23.85 15.82 23.94C15.7 23.97 15.55 24 15.43 24.15C15.55 24.18 15.64 24.18 15.7 24.18V24.24C15.55 24.3 15.46 24.33 15.37 24.39C15.31 24.3 15.31 24.27 15.25 24.21L14.83 24.36C14.89 24.42 14.95 24.45 15.04 24.51C14.68 24.69 14.38 24.84 14.08 25.02C14.05 25.05 14.02 25.02 13.99 25.02C13.78 25.23 13.57 25.32 13.27 25.2C13.24 25.17 13.15 25.2 13.09 25.2C13.09 25.23 13.06 25.26 13.06 25.26L13.24 25.35C13.21 25.44 13.18 25.44 13.18 25.47C12.7 25.71 12.16 25.89 11.71 26.19C11.71 26.22 11.68 26.22 11.65 26.22C11.32 26.43 10.96 26.61 10.6 26.82L9.67 27.36C9.25 27.63 8.8 27.9 8.38 28.2C8.02 28.41 7.72 28.65 7.36 28.89C7.18 29.04 6.97 29.16 6.82 29.28C6.52 29.49 6.28 29.73 5.98 29.94C5.35 30.36 4.81 30.9 4.21 31.35C4.12 31.41 4 31.47 3.91 31.56C3.52 31.98 3.13 32.43 2.74 32.88L2.47 33.18C1.99 33.63 1.66 34.17 1.42 34.74C1.21 35.13 1.09 35.58 1.03 36.03C0.94 36.72 1.24 37.23 1.66 37.68C2.2 38.19 2.92 38.49 3.67 38.67C3.94 38.73 4.24 38.76 4.54 38.85C4.96 39 5.35 38.97 5.77 38.97C6.1 39 6.46 38.94 6.79 39.03ZM28.6 20.19C28.78 19.95 28.81 19.95 29.08 20.16C28.9 20.16 28.78 20.19 28.6 20.19ZM27.46 20.37C27.61 20.34 27.73 20.31 27.85 20.25C27.73 20.46 27.73 20.46 27.46 20.37ZM26.29 20.73V20.67L26.71 20.58C26.59 20.7 26.59 20.7 26.29 20.73ZM6.01 57.27C6.34 57.36 6.61 57.27 6.82 57C6.97 56.79 7.09 56.67 7.18 56.43C7.27 56.07 7.45 55.71 7.57 55.38C7.6 55.23 7.6 55.08 7.66 54.96C7.75 54.72 7.81 54.54 7.81 54.3C7.81 54.24 7.84 54.18 7.9 54.12C7.96 53.85 8.11 53.67 8.2 53.43C8.35 53.01 8.47 52.59 8.71 52.26C8.86 52.02 8.92 51.78 9.01 51.51C9.04 51.42 9.13 51.3 9.13 51.18C9.13 51.03 9.22 50.97 9.31 50.88C9.49 50.73 9.58 50.55 9.58 50.31C9.58 50.1 9.7 49.98 9.82 49.89C9.85 49.74 9.85 49.59 9.91 49.53C10.24 49.17 10.36 48.72 10.63 48.33C10.75 48.06 10.96 47.85 11.08 47.55C11.17 47.34 11.29 47.13 11.53 47.01C11.53 46.56 11.74 46.14 12.13 45.87C12.16 45.57 12.25 45.33 12.58 45.21C12.67 45.15 12.79 45.06 12.82 44.88C12.82 44.79 12.91 44.73 12.94 44.64C13.03 44.49 13.12 44.4 13.18 44.28C13.3 44.01 13.48 43.86 13.45 43.56C13.45 43.53 13.48 43.47 13.51 43.44C13.78 43.2 14.02 42.96 14.14 42.57C14.14 42.54 14.17 42.51 14.2 42.48C14.41 42.3 14.44 41.97 14.77 41.82C14.77 41.82 14.77 41.76 14.8 41.73C14.83 41.7 14.83 41.61 14.86 41.61C15.13 41.55 15.16 41.34 15.19 41.16C15.25 40.86 15.37 40.65 15.67 40.47C15.94 40.32 16.06 40.08 16.18 39.84L16.39 39.39C16.42 39.39 16.39 39.36 16.39 39.33H16.15C16.15 39.3 16.15 39.27 16.12 39.27C16.21 39.18 16.3 39.09 16.42 39.06C16.63 39 16.78 38.88 16.9 38.7C17.08 38.43 17.26 38.07 17.65 38.13C17.71 38.13 17.74 38.1 17.74 38.1C18.16 37.98 18.55 37.8 19.03 37.77C19.3 37.77 19.6 37.71 19.87 37.62C20.23 37.56 20.59 37.41 20.95 37.32L21.22 37.23L22.18 37.05C22.72 36.96 23.2 36.69 23.77 36.66C23.86 36.66 24.01 36.6 24.1 36.54C24.19 36.48 24.28 36.48 24.4 36.48C25.06 36.45 25.75 36.33 26.38 36.24C26.47 36.21 26.56 36.24 26.68 36.24C26.77 36.27 26.86 36.27 26.89 36.3C26.95 36.42 26.98 36.51 27.01 36.63C27.13 36.54 27.22 36.45 27.34 36.45C27.43 36.45 27.58 36.45 27.67 36.39C27.7 36.36 27.79 36.39 27.88 36.39V36.72C27.76 36.72 27.64 36.69 27.46 36.66C27.46 36.69 27.43 36.75 27.4 36.81L27.7 36.9C27.58 37.29 27.43 37.65 27.28 38.07L26.95 37.83C27.1 37.71 27.22 37.62 27.28 37.5C27.34 37.38 27.31 37.26 27.34 37.17C27.28 37.11 27.19 37.08 27.1 37.05L27.25 36.75C27.25 36.63 27.13 36.66 27.01 36.63C26.98 36.75 26.95 36.84 26.8 36.87C26.71 36.9 26.68 36.96 26.71 37.08L26.8 37.23H27.19L27.01 37.5C26.92 37.32 26.83 37.35 26.74 37.41C26.62 37.56 26.44 37.68 26.35 37.8C26.32 37.83 26.32 37.95 26.32 38.01V38.28C26.47 38.46 26.56 38.25 26.71 38.22L26.8 38.37C26.95 38.19 26.74 38.13 26.74 38.04C26.8 37.95 26.89 37.95 26.92 38.04C27.07 38.25 27.16 38.52 26.95 38.76C26.89 38.88 26.86 38.97 26.8 39.06C26.74 39.36 26.62 39.6 26.56 39.9C26.5 40.23 26.38 40.44 26.02 40.44C25.84 40.47 25.81 40.62 25.87 40.86C25.99 40.77 26.05 40.53 26.35 40.68C26.02 40.74 26.02 40.95 26.05 41.19C26.05 41.28 26.02 41.4 25.99 41.52L25.48 41.4C25.48 41.43 25.45 41.43 25.45 41.46C25.51 41.55 25.57 41.58 25.63 41.64L25.96 41.79C25.87 41.82 25.81 41.85 25.78 41.85C25.72 41.85 25.66 41.79 25.63 41.73V41.64C25.57 41.64 25.51 41.67 25.42 41.67L25.3 41.37C25.24 41.4 25.18 41.4 25.18 41.43C25.03 41.55 24.79 41.67 24.88 41.85C24.91 42.09 24.7 42.18 24.73 42.33C24.73 42.39 24.76 42.42 24.76 42.42C24.7 42.57 24.67 42.78 24.55 42.9C24.46 43.02 24.4 43.17 24.43 43.32C24.46 43.59 24.31 43.83 24.16 44.04C23.98 44.28 23.95 44.49 23.98 44.76C23.98 44.91 24.04 44.97 24.16 45C24.58 45.09 24.88 45.33 25.15 45.6C25.6 46.05 26.2 45.84 26.41 45.3C26.47 45.12 26.56 44.91 26.5 44.7C26.47 44.67 26.5 44.58 26.53 44.55C26.65 44.37 26.74 44.22 26.83 44.04L27.34 43.35C27.55 43.05 27.73 42.78 27.97 42.51C28 42.45 28.09 42.42 28.15 42.33C28.36 42.15 28.63 41.94 28.75 41.64L28.96 41.4C29.08 41.31 29.17 41.19 29.08 41.1C29.17 40.92 29.32 40.8 29.32 40.71C29.29 40.56 29.35 40.5 29.41 40.41C29.5 40.32 29.56 40.23 29.62 40.08C29.68 39.9 29.8 39.87 29.95 40.02C30.01 40.05 30.07 40.05 30.19 40.11C30.1 39.96 29.95 39.87 30.1 39.81H30.13V39.78C30.43 39.51 30.67 39.3 30.91 39.03C30.88 38.91 30.88 38.76 30.88 38.67C30.76 38.76 30.64 38.88 30.55 39C30.49 39.06 30.46 39.09 30.37 39.12C30.04 39.27 29.68 39.39 29.5 39.66C29.29 40.05 28.87 40.17 28.6 40.44C28.6 40.47 28.54 40.44 28.48 40.44C28.75 40.11 29.05 39.84 29.35 39.54C29.17 39.42 29.02 39.42 28.93 39.54C28.72 39.87 28.51 40.08 28.21 40.32C28.09 40.44 28 40.59 27.82 40.71C27.7 40.8 27.55 40.86 27.37 40.95L27.22 40.86L27.7 40.62V40.08L27.52 39.93V39.87C27.61 39.9 27.7 39.9 27.79 39.9L27.73 39.81C27.82 39.75 27.97 39.72 28.06 39.63C28.03 39.51 28.03 39.42 28 39.36C28.09 39.27 28.12 39.12 28.21 39.06C28.45 38.76 28.36 38.4 28.63 38.1C28.57 38.07 28.54 38.04 28.51 38.01C28.75 37.71 29.05 37.44 28.96 37.05C29.08 36.87 29.17 36.75 29.32 36.63L28.96 36.51C29.17 36.3 29.41 36.18 29.53 35.97C29.65 35.79 29.68 35.52 29.77 35.34C29.68 35.28 29.65 35.25 29.59 35.19C29.89 35.01 29.89 35.01 29.92 34.83C30.28 34.65 30.28 34.62 30.1 34.32C30.19 34.2 30.25 34.08 30.34 33.99C30.4 33.87 30.49 33.78 30.58 33.69C30.52 33.63 30.46 33.6 30.37 33.54C30.49 33.48 30.55 33.42 30.7 33.36L30.52 33.3C30.67 33.21 30.76 33.12 30.88 33.06C31.03 32.91 31.03 32.88 30.94 32.7C31.03 32.61 31.15 32.49 31.24 32.37C31.33 32.25 31.39 32.07 31.48 31.92L31.33 31.62C31.57 31.59 31.69 31.5 31.72 31.29C31.75 31.17 31.84 31.11 31.9 31.02L32.05 30.84C32.14 30.63 32.08 30.39 32.29 30.24C32.32 30.24 32.32 30.21 32.32 30.18C32.29 30.03 32.44 29.94 32.53 29.82L32.77 29.49C32.59 29.4 32.44 29.37 32.29 29.34C32.41 29.28 32.53 29.28 32.62 29.25C32.74 29.22 32.95 29.22 32.98 29.04C32.98 28.86 33.04 28.77 33.13 28.65C33.31 28.5 33.4 28.32 33.22 28.14C33.37 28.08 33.46 28.05 33.52 27.99C33.52 27.99 33.46 27.87 33.46 27.78C33.55 27.75 33.64 27.72 33.79 27.63C33.76 27.48 33.79 27.36 33.91 27.27C33.94 27.24 33.88 27.09 33.91 27.06C34.21 26.82 34.36 26.49 34.54 26.16C34.66 26.04 34.72 25.83 34.81 25.68C34.87 25.56 34.96 25.44 35.08 25.32C35.14 25.23 35.2 25.17 35.23 25.08C35.29 25.02 35.32 24.93 35.35 24.87C35.56 24.51 35.71 24.12 35.92 23.79C36.16 23.4 36.31 23.01 36.52 22.65C36.61 22.53 36.58 22.44 36.55 22.32C36.52 22.23 36.52 22.17 36.49 22.11C36.31 21.75 36.13 21.48 35.71 21.45C35.62 21.45 35.53 21.36 35.47 21.27C35.38 21.12 35.23 21.09 35.08 21C34.99 20.94 34.87 20.94 34.81 20.91L34.21 20.64C34.15 20.61 34.09 20.64 34.03 20.64C33.64 20.79 33.25 20.94 32.92 21.15C32.62 21.27 32.32 21.42 32.08 21.6C31.99 21.66 31.87 21.69 31.87 21.81L32.29 21.63C32.29 21.72 32.26 21.78 32.2 21.81C31.72 22.11 31.21 22.44 30.76 22.8C30.55 22.98 30.31 23.1 30.1 23.28C29.68 23.58 29.38 24 28.9 24.24C28.75 24.27 28.66 24.42 28.57 24.51C28.48 24.6 28.48 24.66 28.45 24.66C28.09 24.72 27.97 25.05 27.67 25.17L27.37 25.47C27.58 25.44 27.67 25.56 27.73 25.71C28.09 25.44 28.42 25.17 28.75 24.87L28.6 24.69C28.87 24.51 29.02 24.3 29.29 24.15C29.62 23.94 29.95 23.7 30.28 23.46L31.81 22.47C32.26 22.17 32.71 21.9 33.19 21.6C33.4 21.51 33.58 21.39 33.82 21.45C33.64 21.6 33.46 21.72 33.25 21.81C33.04 21.96 32.77 22.05 32.62 22.26C32.53 22.38 32.44 22.47 32.29 22.5C32.02 22.62 31.75 22.86 31.54 23.07C31.27 23.28 31.12 23.52 30.76 23.52C30.73 23.79 30.7 23.85 30.49 23.85C30.25 23.88 30.04 24.03 29.86 24.18C29.83 24.18 29.8 24.27 29.8 24.3C29.86 24.45 29.77 24.51 29.65 24.57C29.59 24.63 29.5 24.66 29.47 24.72C29.32 24.96 29.05 25.08 28.75 25.14C28.75 25.14 28.75 25.17 28.72 25.17C28.78 25.2 28.84 25.2 28.93 25.23L28.27 25.71C28.3 25.71 28.3 25.74 28.33 25.8C28.15 25.83 28 25.92 27.79 25.98C27.85 26.19 27.79 26.34 27.61 26.43C27.55 26.46 27.52 26.58 27.43 26.58C27.19 26.67 27.1 26.97 26.8 27C26.77 27 26.74 27.09 26.71 27.15C26.47 27.12 26.29 27.15 26.2 27.42C26.23 27.48 26.29 27.54 26.35 27.63C26.17 27.78 25.96 27.9 25.81 28.02L25.66 28.2C25.48 28.38 25.3 28.65 25.06 28.77C24.88 28.86 24.73 29.01 24.67 29.19C24.43 29.1 24.28 29.16 24.07 29.49C24.19 29.67 24.13 29.82 23.95 29.85C23.89 29.91 23.86 29.91 23.8 29.91C23.65 29.85 23.53 29.97 23.41 30.09V30.18C23.5 30.24 23.56 30.27 23.65 30.39C23.5 30.39 23.38 30.45 23.32 30.42C23.14 30.39 22.99 30.45 22.9 30.54C22.72 30.81 22.45 31.05 22.54 31.44C22.03 31.53 22.03 31.53 22 31.89C21.91 31.92 21.82 31.98 21.73 32.01C21.79 32.04 21.85 32.07 21.91 32.16C21.85 32.19 21.79 32.22 21.76 32.22C21.46 32.22 21.28 32.34 21.16 32.61C21.16 32.7 21.1 32.76 21.04 32.79C20.95 32.85 20.77 32.94 20.68 33.03L20.32 33.6C20.29 33.57 20.2 33.51 20.2 33.48C20.23 33.39 20.23 33.27 20.29 33.24C20.41 33.15 20.56 33.09 20.68 33.03C20.68 32.91 20.71 32.79 20.74 32.7C20.62 32.58 20.56 32.64 20.47 32.7L20.02 32.94C19.96 32.97 19.84 33.03 19.72 33.06C19.81 33.3 19.66 33.42 19.51 33.57L19.3 33.42C19.15 33.66 19.03 33.87 18.85 34.08L19.39 34.23C19.48 34.2 19.51 34.14 19.42 34.08C19.33 33.96 19.27 33.84 19.33 33.69L20.17 33.6C20.08 33.75 20.05 33.84 19.99 33.93C19.75 34.08 19.72 34.29 19.69 34.53C19.3 34.62 19.12 34.92 18.88 35.19C18.73 35.34 18.64 35.49 18.49 35.64C18.37 35.58 18.37 35.34 18.22 35.46C18.04 35.61 17.92 35.79 17.71 35.88V35.94C17.56 36.09 17.47 36.33 17.32 36.42C17.05 36.63 16.69 36.39 16.39 36.48C16.39 36.39 16.42 36.33 16.42 36.27C16.27 36.39 16.15 36.48 16.03 36.6C15.97 36.66 15.85 36.69 15.76 36.72C15.67 36.78 15.58 36.81 15.52 36.84C15.25 36.93 15.04 36.99 14.77 37.14C14.59 37.2 14.41 37.53 14.47 37.8C14.47 37.83 14.47 37.89 14.44 37.95C14.38 38.13 14.44 38.25 14.59 38.4C14.65 38.46 14.68 38.55 14.74 38.64L15.16 38.55L15.07 38.91C15.28 38.82 15.34 38.52 15.61 38.52C15.82 38.49 15.97 38.64 16.18 38.64V38.7C16.09 38.76 16 38.82 15.85 38.85C15.76 38.76 15.67 38.67 15.61 38.91C15.73 39 15.79 38.91 15.91 38.85C15.82 38.94 15.79 39 15.76 39.09C15.73 39.12 15.7 39.21 15.73 39.27C15.82 39.39 15.7 39.42 15.58 39.48C15.55 39.36 15.49 39.21 15.4 39.09C15.31 39.3 15.07 39.45 15.22 39.72C14.77 39.87 14.62 40.26 14.32 40.53C14.38 40.71 14.5 40.89 14.29 40.92C14.02 40.98 13.78 41.28 13.45 41.13C13.57 41.31 13.81 41.34 13.99 41.43C13.87 41.7 13.75 41.97 13.45 41.97C13.36 42.09 13.27 42.18 13.15 42.27C12.94 42.42 12.91 42.51 13 42.75C13.03 42.78 13.03 42.84 13.03 42.84C12.97 42.87 12.91 42.87 12.85 42.87L12.94 43.14C12.73 43.17 12.58 43.17 12.46 43.2C12.37 43.08 12.25 42.99 12.19 42.9C12.01 43.02 11.98 43.14 12.04 43.32C12.16 43.35 12.28 43.35 12.46 43.35C12.34 43.47 12.25 43.5 12.19 43.56C12.16 43.62 12.13 43.74 12.16 43.77C12.19 43.83 12.28 43.86 12.37 43.86C12.43 43.89 12.49 43.83 12.58 43.83C12.49 44.01 12.37 43.98 12.22 43.98C12.16 43.98 12.13 44.01 12.07 44.04C12.13 44.1 12.19 44.13 12.22 44.19C12.13 44.49 11.98 44.76 11.59 44.73C11.5 44.73 11.32 44.79 11.35 44.82C11.38 44.94 11.26 44.91 11.2 44.91L11.02 44.79C10.72 44.85 10.75 45.12 10.63 45.27C10.48 45.45 10.39 45.63 10.24 45.81C10.15 45.6 9.94 45.57 9.73 45.57C9.79 45.81 9.67 46.05 9.61 46.29C9.85 46.23 9.85 45.96 10.15 45.9C10.03 46.14 9.97 46.35 9.88 46.59C9.79 46.77 9.7 46.8 9.46 46.77C9.58 46.35 9.55 46.32 9.34 46.29C9.43 46.59 9.43 46.59 9.16 46.86C9.04 47.01 8.92 47.19 8.74 47.37C8.71 47.43 8.71 47.46 8.71 47.52C8.68 47.7 8.56 47.85 8.41 47.97C8.35 48.03 8.23 48.12 8.23 48.21C8.29 48.45 8.11 48.66 7.99 48.81C7.84 48.93 7.75 49.11 7.72 49.29C7.66 49.44 7.66 49.59 7.45 49.62C7.39 49.62 7.36 49.74 7.36 49.8C7.36 50.04 7.24 50.22 7.09 50.37C6.82 50.7 6.58 51 6.43 51.42C6.4 51.6 6.28 51.78 6.19 51.96C6.16 51.99 6.13 52.02 6.1 52.08C6.01 52.29 5.98 52.47 5.86 52.68L5.56 53.25C5.47 53.43 5.41 53.67 5.32 53.88C5.35 53.88 5.41 53.91 5.5 53.91C5.41 54.06 5.35 54.21 5.26 54.27C5.11 54.36 5.05 54.48 5.02 54.63C4.99 54.69 4.96 54.75 4.9 54.81C4.78 55.11 4.57 55.41 4.57 55.71C4.57 56.25 4.78 56.67 5.17 56.94C5.44 57.12 5.74 57.21 6.01 57.27ZM25.39 21.03C25.57 20.79 25.75 20.73 25.99 20.82C25.78 20.88 25.63 20.94 25.39 21.03ZM23.11 21.57C23.38 21.33 23.74 21.48 23.98 21.3C24.01 21.27 24.04 21.21 24.13 21.21C24.31 21.18 24.52 21.12 24.73 21.12C24.49 21.3 24.25 21.33 23.98 21.3C23.89 21.48 23.74 21.48 23.59 21.51C23.44 21.54 23.29 21.57 23.11 21.57ZM18.94 36.33C18.97 36.15 19.03 35.97 19.18 35.85C19.24 35.82 19.3 35.76 19.33 35.64C19.48 35.43 19.6 35.16 19.87 35.04C19.93 35.04 19.96 34.95 19.99 34.89C20.02 34.83 20.05 34.74 20.08 34.71L20.98 33.81C21.07 33.69 21.13 33.54 21.19 33.39C21.28 33.21 21.37 33.06 21.58 32.97C21.79 32.94 21.91 32.82 22 32.67C22.06 32.49 22.21 32.37 22.36 32.28C22.42 32.28 22.48 32.19 22.48 32.13C22.6 31.83 22.81 31.71 23.05 31.53C23.2 31.41 23.35 31.26 23.38 31.02C23.41 30.96 23.44 30.9 23.53 30.84L24.31 30.15C24.34 30.12 24.4 30.12 24.4 30.12C24.58 29.76 24.97 29.61 25.15 29.22C25.15 29.22 25.15 29.19 25.18 29.19C25.54 29.1 25.66 28.68 25.96 28.47C26.26 28.26 26.47 27.96 26.77 27.72C27.25 27.33 27.67 26.94 28.09 26.52C28.3 26.34 28.54 26.07 28.75 25.89C28.99 25.68 29.29 25.5 29.5 25.29C29.59 25.23 29.68 25.14 29.77 25.05C29.53 25.05 29.44 25.29 29.2 25.26L29.92 24.66C29.95 24.66 30.01 24.63 30.01 24.66C30.22 24.78 30.31 24.63 30.43 24.51C30.52 24.39 30.73 24.36 30.67 24.15C30.67 24.12 30.7 24.06 30.73 24.03L31.12 23.61C31.54 23.34 31.96 23.01 32.32 22.68C32.71 22.44 33.1 22.14 33.49 21.84C33.67 21.72 33.91 21.63 34.12 21.51C34.12 21.78 34.03 21.99 33.94 22.17C33.76 22.62 33.55 23.1 33.34 23.55C33.31 23.67 33.19 23.76 33.16 23.88C33.04 24.15 32.98 24.39 32.86 24.66C32.8 24.78 32.68 24.84 32.62 24.93C32.59 25.02 32.53 25.02 32.53 25.05C32.56 25.23 32.47 25.35 32.32 25.5C32.23 25.59 32.26 25.77 32.11 25.89C32.02 25.98 32.08 26.1 32.23 26.1C32.35 26.1 32.5 26.07 32.62 26.04L32.95 26.01C32.95 26.19 32.89 26.25 32.71 26.22C32.65 26.22 32.59 26.19 32.53 26.19C32.05 26.19 31.87 26.37 31.72 26.91C31.84 26.82 31.99 26.73 32.11 26.67C32.23 26.61 32.41 26.58 32.53 26.55C32.35 26.67 32.59 26.91 32.44 27.06C32.29 27.21 32.11 27.15 31.9 27.27C31.9 27.18 31.9 27.12 31.87 27.06C31.78 27.06 31.69 27.03 31.6 27.03C31.42 27.3 31.24 27.48 31.24 27.81C31.24 27.84 31.21 27.87 31.21 27.9L30.52 28.83C30.49 28.83 30.49 28.86 30.49 28.92C30.82 29.07 30.97 28.77 31.24 28.71C31.15 28.68 31.03 28.65 30.91 28.59C31.15 28.56 31.15 28.56 31.24 28.71C31.36 28.62 31.48 28.47 31.69 28.47C31.48 28.38 31.6 28.2 31.63 28.05C31.57 28.14 31.45 28.23 31.36 28.35C31.36 28.05 31.39 27.9 31.6 27.72L32.02 27.36C32.08 27.33 32.17 27.36 32.2 27.39C32.23 27.42 32.23 27.48 32.23 27.54C32.17 27.69 32.11 27.84 32.02 27.96C31.87 27.96 31.69 27.84 31.63 28.05C31.72 28.08 31.78 28.14 31.96 28.17L31.69 28.47C31.69 28.5 31.72 28.59 31.69 28.62L31.39 28.89C31.33 28.92 31.27 28.92 31.24 28.95L30.97 29.13C31.09 29.16 31.15 29.19 31.15 29.22C31.18 29.25 31.21 29.31 31.18 29.34C31.18 29.37 31.12 29.46 31.03 29.46C30.94 29.46 30.85 29.37 30.79 29.58L31.12 29.67C31.03 29.85 30.97 30.03 30.85 30.12L30.76 30.39C30.67 30.57 30.55 30.69 30.34 30.63C30.22 30.75 30.1 30.84 29.92 30.72C29.83 30.63 29.68 30.69 29.59 30.84C29.47 31.02 29.47 31.29 29.23 31.41C29.2 31.41 29.2 31.44 29.2 31.47C29.29 31.71 29.08 31.8 28.99 31.92C28.9 32.01 28.84 32.13 28.72 32.31C28.87 32.28 28.93 32.28 28.99 32.25C29.2 32.19 29.2 32.19 29.35 32.4L29.41 32.43C29.47 32.34 29.47 32.25 29.44 32.13C29.41 31.98 29.41 31.83 29.47 31.74C29.56 31.59 29.53 31.47 29.5 31.32C29.65 31.26 29.86 31.17 29.83 30.96C30.04 30.93 30.25 30.87 30.46 30.84C30.49 31.17 30.25 31.2 29.98 31.29C29.98 31.29 30.01 31.32 30.01 31.35C30.07 31.35 30.1 31.38 30.22 31.38C30.19 31.44 30.19 31.5 30.19 31.56L29.98 31.47C29.98 31.65 30.01 31.86 29.95 32.01C29.92 32.19 29.8 32.31 29.68 32.46C29.59 32.46 29.5 32.43 29.41 32.43C29.47 32.61 29.47 32.61 29.62 32.7L29.14 33.75C29.08 33.84 28.96 33.87 28.84 33.96C28.78 33.99 28.69 33.99 28.57 34.02L28.9 34.14C28.87 34.38 28.87 34.38 28.54 34.26C28.54 34.44 28.54 34.44 28.69 34.65C28.66 34.74 28.6 34.86 28.57 34.98C28.48 34.95 28.36 34.92 28.27 34.86L28.12 35.1C28.24 35.13 28.36 35.13 28.54 35.16C28.21 35.43 28.15 35.79 28.09 36.18L27.79 36C27.73 36.15 27.64 36.24 27.58 36.33C27.34 36.21 27.64 35.97 27.37 35.88C27.31 36.06 27.25 36.09 27.13 35.97L26.95 35.79C27.31 35.61 27.67 35.79 28 35.79C28.03 35.61 28.06 35.49 28.06 35.34C28 35.28 27.91 35.19 27.85 35.1C27.7 35.13 27.55 35.19 27.37 35.28C27.43 35.4 27.52 35.46 27.58 35.58C27.34 35.58 27.19 35.58 26.98 35.52C26.77 35.46 26.47 35.52 26.23 35.58C26.05 35.61 25.93 35.64 25.81 35.61C25.54 35.58 25.33 35.61 25.09 35.64L22.66 35.91C22.18 36 21.67 36 21.19 36.06C20.5 36.15 19.78 36.27 19.12 36.33C19.06 36.36 19.03 36.33 18.94 36.33ZM22.21 21.9C22.18 21.84 22.18 21.81 22.18 21.78H22.45V21.84L22.21 21.9ZM31.36 22.11C31.57 22.11 31.72 21.99 31.84 21.84C31.63 21.81 31.48 21.99 31.36 22.11ZM21.52 21.99L21.82 21.9C21.82 21.9 21.88 21.93 21.88 21.96C21.79 22.08 21.67 22.11 21.52 21.99ZM22.57 22.2C22.51 22.17 22.45 22.17 22.39 22.17C22.39 22.14 22.42 22.14 22.42 22.11C22.48 22.11 22.54 22.14 22.6 22.14C22.6 22.14 22.57 22.17 22.57 22.2ZM30.79 22.56L31.27 22.26C31.3 22.23 31.3 22.17 31.33 22.14C31.18 22.26 30.88 22.32 30.79 22.56ZM19.12 22.92C19.09 22.77 19.15 22.68 19.27 22.68C19.42 22.68 19.54 22.68 19.72 22.77C19.51 22.8 19.33 22.86 19.12 22.92ZM30.25 22.95C30.31 22.92 30.34 22.86 30.43 22.83C30.25 22.83 30.25 22.83 30.25 22.95ZM29.8 23.31L30.01 23.1L29.95 23.04L29.77 23.25C29.77 23.28 29.8 23.31 29.8 23.31ZM17.32 23.55C17.32 23.55 17.29 23.52 17.29 23.49C17.74 23.31 18.16 23.07 18.67 23.07L17.32 23.55ZM16.6 23.88C16.6 23.82 16.6 23.79 16.63 23.79C16.69 23.76 16.75 23.73 16.81 23.73V23.76C16.75 23.79 16.69 23.85 16.6 23.88ZM17.26 24C17.23 23.97 17.23 23.97 17.23 23.94C17.26 23.94 17.29 23.91 17.32 23.88C17.32 23.91 17.35 23.91 17.35 23.94C17.32 23.94 17.29 23.97 17.26 24ZM15.88 24.15V24.03L16.12 24C16.12 24.03 16.12 24.03 16.15 24.03L15.88 24.15ZM13.78 24.9L14.08 24.81C14.08 24.81 14.05 24.78 14.05 24.75L13.78 24.9ZM13.66 25.02H13.99L13.78 24.9C13.75 24.93 13.69 24.93 13.66 24.96V25.02ZM32.8 25.47L32.74 25.38C32.74 25.35 32.74 25.32 32.77 25.32L32.89 25.35C32.86 25.44 32.86 25.47 32.8 25.47ZM12.58 25.62C12.61 25.59 12.61 25.56 12.64 25.56C12.64 25.53 12.61 25.53 12.61 25.5C12.58 25.53 12.55 25.53 12.55 25.56C12.55 25.56 12.58 25.59 12.58 25.62ZM27.25 25.71C27.28 25.65 27.31 25.59 27.31 25.53C27.28 25.56 27.25 25.62 27.19 25.68C27.22 25.71 27.22 25.71 27.25 25.71ZM24.46 28.71C24.7 28.62 24.97 28.5 25 28.23C24.91 28.17 24.85 28.05 24.91 27.96C24.94 27.93 25.03 27.87 25.09 27.87C25.51 27.93 25.75 27.66 25.96 27.42L26.89 26.46C26.92 26.43 26.95 26.43 26.98 26.43C27.16 26.34 27.22 26.19 27.22 26.01C27.13 25.95 26.95 25.74 26.86 25.92C26.74 26.07 26.47 26.1 26.44 26.34C26.44 26.37 26.38 26.4 26.35 26.43C26.29 26.49 26.23 26.52 26.17 26.55C26.2 26.64 26.2 26.67 26.23 26.73C26.11 26.79 26.02 26.79 25.96 26.82C25.96 26.97 25.93 27.12 25.93 27.24L25.33 27.54C25.39 27.42 25.54 27.36 25.54 27.15C25.48 27.15 25.45 27.15 25.42 27.18L24.97 27.57C24.73 27.78 24.64 28.05 24.4 28.23C24.34 28.23 24.34 28.26 24.34 28.32C24.43 28.35 24.52 28.38 24.58 28.44C24.55 28.56 24.49 28.62 24.46 28.71ZM10.06 27.48V27.42C10.15 27.39 10.24 27.39 10.36 27.36C10.36 27.39 10.39 27.42 10.39 27.45L10.06 27.48ZM32.77 27.69C32.77 27.63 32.74 27.6 32.71 27.6C32.74 27.57 32.77 27.54 32.8 27.54L32.89 27.6C32.86 27.6 32.8 27.63 32.77 27.69ZM8.83 28.23C8.98 28.08 9.1 28.14 9.19 28.17C9.19 28.02 9.19 27.93 9.34 27.9C9.43 28.05 9.28 28.08 9.19 28.17C9.1 28.26 9.01 28.32 8.83 28.23ZM25 28.2L25.15 28.08C25.03 28.05 25 28.08 25 28.2ZM25.39 28.26C25.42 28.23 25.45 28.2 25.45 28.17C25.45 28.17 25.42 28.14 25.39 28.14C25.39 28.14 25.36 28.17 25.33 28.17C25.33 28.2 25.36 28.23 25.39 28.26ZM32.41 28.5C32.35 28.5 32.32 28.47 32.32 28.44C32.32 28.41 32.35 28.41 32.41 28.38L32.47 28.44L32.41 28.5ZM24.04 29.07C24.1 29.01 24.22 28.95 24.22 28.83C24.07 28.83 24.01 28.89 24.04 29.07ZM23.71 29.49C23.74 29.52 23.83 29.49 23.86 29.46C23.92 29.4 23.86 29.31 23.83 29.25C23.83 29.22 23.74 29.22 23.71 29.22C23.8 29.16 23.95 29.1 24.04 29.07C23.98 29.01 23.95 28.92 23.86 28.89C23.8 28.89 23.71 28.89 23.62 28.92C23.56 28.95 23.44 29.01 23.41 29.1C23.38 29.16 23.41 29.25 23.44 29.31C23.53 29.37 23.62 29.46 23.71 29.49ZM32.08 29.1C32.08 29.07 32.08 29.07 32.05 29.04C32.11 29.01 32.17 29.01 32.23 28.95C32.23 29.01 32.23 29.01 32.26 29.04C32.2 29.07 32.14 29.07 32.08 29.1ZM30.34 29.58C30.46 29.52 30.58 29.4 30.73 29.31C30.73 29.22 30.7 29.13 30.7 29.07C30.28 29.1 30.25 29.16 30.34 29.58ZM22.87 29.67C23.23 29.97 23.41 29.97 23.62 29.61C23.41 29.55 23.2 29.64 23.11 29.37C22.99 29.49 22.93 29.58 22.87 29.67ZM30.85 30.12L30.73 29.94L30.97 29.82C30.76 29.61 30.67 29.85 30.49 29.91L30.4 29.73C30.22 29.79 30.22 29.79 30.13 29.97C30.4 30.03 30.64 30.06 30.85 30.12ZM23.08 30.18C23.14 30.24 23.23 30.18 23.29 30.03H22.51C22.69 30.3 22.9 30.06 23.08 30.18ZM29.98 30.3L30.07 30.18C30.04 30.18 30.01 30.15 29.98 30.15C29.98 30.18 29.95 30.24 29.92 30.27C29.95 30.27 29.95 30.3 29.98 30.3ZM31.3 30.39V30.3C31.36 30.3 31.39 30.27 31.45 30.27C31.45 30.3 31.45 30.3 31.48 30.36C31.42 30.36 31.36 30.36 31.3 30.39ZM20.86 31.89C21.04 31.98 21.22 31.92 21.43 31.89C21.61 31.86 21.76 31.8 21.82 31.59C21.88 31.53 21.91 31.44 21.97 31.38L22.6 30.81C22.63 30.78 22.63 30.72 22.66 30.66C22.21 30.72 22.27 30.66 22.09 30.39C21.97 30.54 21.82 30.69 21.64 30.93L22.24 31.02C22.03 31.11 21.88 31.17 21.79 31.29L21.52 31.62H21.4L21.22 31.38C21.01 31.41 21.1 31.56 21.07 31.65C21.01 31.74 20.83 31.74 20.86 31.89ZM30.34 30.63C30.31 30.57 30.31 30.51 30.31 30.42L29.89 30.51C29.89 30.51 29.89 30.54 29.92 30.54L30.34 30.63ZM21.19 30.9H21.22C21.28 30.9 21.28 30.87 21.28 30.87C21.28 30.84 21.28 30.84 21.22 30.81C21.22 30.84 21.19 30.87 21.19 30.9ZM22.81 31.11L22.78 31.08L22.87 30.99C22.9 30.99 22.9 31.02 22.93 31.02C22.87 31.05 22.84 31.08 22.81 31.11ZM29.62 32.01C29.68 31.92 29.74 31.86 29.65 31.77C29.62 31.83 29.53 31.89 29.62 31.98V32.01ZM29.74 32.16C29.74 32.16 29.77 32.13 29.77 32.07C29.77 32.07 29.74 32.04 29.74 32.01H29.62C29.62 32.04 29.62 32.04 29.65 32.07C29.65 32.13 29.68 32.13 29.74 32.16ZM20.65 32.28C20.92 32.46 20.92 32.46 21.04 32.28H20.65ZM28.78 32.64C28.9 32.61 28.99 32.58 29.11 32.49C28.87 32.37 28.84 32.37 28.78 32.64ZM28.3 33.78C28.42 33.72 28.54 33.72 28.54 33.66C28.63 33.36 28.87 33.15 29.05 32.91C28.87 32.79 28.87 32.79 28.78 32.67H28.72C28.66 32.97 28.3 33.12 28.33 33.48C28.33 33.51 28.24 33.54 28.21 33.57L28.3 33.78ZM29.08 33.33C29.14 33.3 29.17 33.3 29.17 33.3V33.18C29.14 33.18 29.08 33.18 29.08 33.21V33.33ZM28.99 33.72C28.99 33.72 29.02 33.69 29.02 33.66L28.84 33.54C28.84 33.69 28.87 33.75 28.99 33.72ZM27.43 33.75C27.43 33.72 27.46 33.69 27.46 33.66L27.43 33.63C27.4 33.63 27.37 33.66 27.34 33.69C27.37 33.69 27.4 33.72 27.43 33.75ZM27.73 35.07C27.85 34.98 28 34.89 28.12 34.77L28.18 34.68C28.09 34.56 28.21 34.5 28.24 34.41C28.27 34.29 28.33 34.2 28.33 34.11C28.36 33.99 28.27 33.87 28.15 33.93C28 33.99 27.73 34.32 27.79 34.47C27.88 34.62 27.79 34.68 27.76 34.77L27.67 35.01C27.67 35.04 27.7 35.04 27.73 35.07ZM18.37 35.16C18.49 35.31 18.52 35.31 18.7 35.16L18.85 35.01C18.97 34.89 19.18 34.53 19.21 34.41C19.06 34.47 18.88 34.47 18.7 34.41C18.55 34.38 18.46 34.44 18.46 34.59L18.82 34.68C18.61 34.95 18.25 34.62 18.1 34.95C18.22 35.01 18.31 35.07 18.37 35.16ZM17.11 35.07C17.44 34.92 17.5 34.83 17.5 34.5C17.29 34.65 17.08 34.74 17.11 35.07ZM28.75 35.25C28.78 35.19 28.78 35.16 28.78 35.16C28.84 35.16 28.84 35.19 28.87 35.19C28.84 35.19 28.84 35.25 28.84 35.25H28.75ZM16.54 36.06C16.66 36.06 16.75 36 16.75 35.85H16.36C16.45 35.94 16.51 36.06 16.54 36.06ZM17.74 36.39L17.71 36.36C17.83 36.21 17.92 36.06 18.07 35.91C18.07 36.21 17.98 36.33 17.74 36.39ZM17.14 36.24C17.2 36.21 17.26 36.15 17.32 36.06L17.26 36C17.17 36.06 17.14 36.15 17.11 36.21C17.11 36.24 17.14 36.24 17.14 36.24ZM30.76 38.31C30.79 38.31 30.85 38.37 30.88 38.31C31.18 38.19 31.18 38.19 31.36 37.95C31.42 37.95 31.48 37.98 31.54 37.95C31.72 37.89 31.87 37.8 32.05 37.77C32.11 37.77 32.23 37.77 32.26 37.83C32.35 37.98 32.47 37.95 32.56 37.86C32.86 37.71 33.1 37.56 33.4 37.44C33.79 37.29 34.18 37.2 34.57 37.08C35.08 36.93 35.5 36.87 36.01 37.11C36.34 37.26 36.61 37.44 36.76 37.83C36.79 37.89 36.88 38.01 36.94 38.04C36.97 38.07 37.06 38.07 37.09 38.07C37.12 38.04 37.12 37.95 37.12 37.89L36.94 37.5C36.64 36.96 36.25 36.66 35.65 36.54C35.11 36.48 34.57 36.6 34.03 36.6C33.88 36.6 33.67 36.63 33.58 36.72C33.46 36.81 33.34 36.81 33.19 36.81C33.07 36.81 32.95 36.84 32.77 36.93C32.53 37.14 32.2 37.29 31.9 37.44C31.66 37.56 31.45 37.68 31.39 37.95C31.3 37.95 31.24 37.89 31.18 37.89L30.91 38.1C30.85 38.16 30.79 38.22 30.73 38.25C30.73 38.28 30.73 38.31 30.76 38.31ZM27.91 37.14L28.06 36.87C28.15 37.11 28.03 37.11 27.91 37.14ZM30.79 37.89C30.91 37.86 31.03 37.8 31.18 37.89C31.15 37.8 31.18 37.71 31.3 37.65C31.39 37.59 31.48 37.5 31.63 37.41C31.78 37.32 31.81 37.29 31.96 37.14C31.57 37.35 31.24 37.56 30.91 37.77C30.85 37.8 30.82 37.86 30.79 37.89ZM32.56 37.56C32.53 37.53 32.5 37.5 32.5 37.44C32.53 37.44 32.56 37.41 32.56 37.41C32.59 37.41 32.62 37.44 32.62 37.44C32.62 37.5 32.59 37.53 32.56 37.56ZM30.31 38.28L30.79 37.89C30.58 38.01 30.4 38.07 30.28 38.25L30.31 38.28ZM31.3 38.4C31.45 38.37 31.6 38.28 31.72 38.28C31.84 38.25 31.99 38.25 32.05 38.1C31.48 38.07 31.42 38.1 31.3 38.4ZM10.15 38.7C10.99 38.88 11.8 38.55 12.61 38.4C11.77 38.52 10.93 38.43 10.15 38.7ZM7.3 38.67L7.39 38.61C7.39 38.58 7.36 38.55 7.33 38.55C7.3 38.55 7.27 38.58 7.24 38.61C7.27 38.61 7.27 38.64 7.3 38.67ZM26.8 38.76C26.77 38.67 26.71 38.61 26.68 38.55C26.62 38.73 26.62 38.73 26.8 38.76ZM30.88 38.67C31 38.64 31.18 38.73 31.3 38.61C31.15 38.52 31 38.58 30.88 38.67ZM29.92 39.15C30.04 39 30.19 38.88 30.34 38.7C30.01 38.67 29.92 38.91 29.92 39.15ZM8.23 39C8.71 39 9.22 38.97 9.73 38.82L9.64 38.7C9.19 38.73 8.74 38.73 8.29 38.76C8.26 38.76 8.23 38.88 8.2 38.94C8.2 38.94 8.2 38.97 8.23 39ZM26.77 39.06L26.65 38.94C26.65 39.09 26.71 39.09 26.77 39.06ZM25.96 39.48C26.11 39.45 26.29 39.39 26.5 39.36C26.44 39.21 26.41 39.06 26.35 39C26.23 38.94 26.08 39.03 25.96 39.09L25.84 39.18C25.81 39.27 25.78 39.36 25.81 39.39C25.81 39.45 25.9 39.48 25.96 39.48ZM14.53 39.48C14.8 39.51 14.89 39.36 15.04 39.27C14.74 39.15 14.71 39.15 14.53 39.48ZM15.73 39.6C15.79 39.51 15.91 39.45 16 39.36C16.06 39.6 16.03 39.63 15.73 39.6ZM29.95 39.72L29.89 39.63C29.89 39.6 29.92 39.57 29.95 39.57C29.95 39.57 30.01 39.57 30.01 39.6L29.95 39.72ZM14.53 39.75C14.59 39.66 14.59 39.63 14.62 39.6C14.62 39.6 14.59 39.57 14.53 39.6C14.53 39.6 14.5 39.63 14.47 39.63C14.47 39.66 14.5 39.72 14.53 39.75ZM25.3 41.28C25.45 41.28 25.45 41.19 25.51 41.1C25.63 40.77 25.81 40.44 25.93 40.17C26.05 40.05 26.02 40.29 26.11 40.2C26.2 40.11 26.29 40.11 26.35 40.08L26.26 39.9C26.29 39.87 26.32 39.81 26.38 39.78C26.17 39.66 26.17 39.9 25.99 39.93H25.78C25.6 40.05 25.48 40.23 25.48 40.44C25.48 40.5 25.45 40.68 25.36 40.71C25.12 40.89 25.21 41.1 25.3 41.28ZM30.31 39.87C30.28 39.78 30.25 39.78 30.13 39.81C30.19 39.87 30.22 39.93 30.31 39.87ZM13.72 40.17C13.72 40.11 13.72 40.08 13.75 40.02H13.69C13.69 40.05 13.63 40.08 13.63 40.11C13.63 40.17 13.69 40.17 13.72 40.17ZM13.87 40.56C14.02 40.56 14.08 40.5 14.17 40.38C14.08 40.32 14.05 40.26 13.96 40.17C13.9 40.29 13.84 40.38 13.81 40.47C13.81 40.5 13.84 40.56 13.87 40.56ZM14.26 41.94C14.35 41.76 14.29 41.46 14.53 41.43C14.44 41.61 14.47 41.82 14.26 41.94ZM13.18 41.82C13.18 41.7 13.15 41.61 13.15 41.46C13.03 41.58 12.94 41.64 13 41.76C13.03 41.79 13.12 41.79 13.18 41.82ZM25.36 42.03C25.33 42.03 25.3 42 25.24 41.97C25.3 41.97 25.33 41.94 25.36 41.94C25.39 41.94 25.39 41.97 25.39 42L25.36 42.03ZM24.94 43.02C24.94 42.69 25.03 42.54 25.3 42.42C25.36 42.39 25.39 42.3 25.42 42.24C25.45 42.21 25.51 42.21 25.54 42.21C25.57 42.21 25.6 42.27 25.6 42.3C25.54 42.51 25.48 42.66 25.45 42.87C25.45 42.9 25.42 42.96 25.42 43.02H24.94ZM12.52 42.54C12.58 42.51 12.64 42.51 12.7 42.48C12.61 42.33 12.55 42.33 12.49 42.45C12.49 42.48 12.52 42.54 12.52 42.54ZM25.24 42.96C25.36 42.9 25.39 42.87 25.45 42.87L25.39 42.6C25.39 42.57 25.3 42.54 25.3 42.54C25.21 42.57 25.18 42.63 25.18 42.66C25.18 42.75 25.21 42.84 25.24 42.96ZM11.86 42.75C11.95 42.72 11.98 42.66 12.01 42.63C12.01 42.6 11.98 42.6 11.98 42.57C11.92 42.63 11.86 42.66 11.83 42.72L11.86 42.75ZM11.62 43.2L11.77 42.96C11.74 42.96 11.71 42.96 11.68 42.93C11.68 43.02 11.65 43.11 11.62 43.2ZM11.17 43.83C11.41 43.68 11.5 43.41 11.62 43.2C11.38 43.35 11.26 43.56 11.17 43.83ZM24.67 43.2H25.18C25.03 43.38 25.03 43.38 24.67 43.2ZM11.32 44.46L11.8 44.37V44.31C11.77 44.31 11.74 44.31 11.71 44.28C11.5 44.22 11.47 44.13 11.62 43.95L11.71 43.83V43.77C11.65 43.77 11.56 43.77 11.53 43.8C11.35 43.98 11.2 44.19 11.32 44.46ZM10.15 45.33C10.33 45.33 10.42 45.21 10.48 45.06L10.78 44.55C10.9 44.37 11.02 44.19 11.14 43.95C11.11 43.95 11.11 43.92 11.08 43.92C10.66 44.34 10.45 44.88 10.15 45.33ZM12.52 44.58V44.49C12.52 44.46 12.55 44.46 12.58 44.46C12.58 44.49 12.61 44.49 12.61 44.52L12.52 44.58ZM10.18 47.04C10.15 47.04 10.15 47.01 10.12 47.01L10.21 46.65C10.12 46.59 10.12 46.56 10.21 46.5C10.3 46.41 10.36 46.26 10.48 46.2C10.51 46.14 10.6 46.14 10.66 46.11C10.72 46.08 10.78 46.08 10.84 46.05V45.99C10.72 45.99 10.63 45.99 10.48 45.96C10.48 45.9 10.48 45.84 10.51 45.81C10.78 45.69 10.78 45.45 10.84 45.24V45.18L10.93 45.09C10.96 45.12 11.05 45.18 11.05 45.21C11.05 45.42 11.05 45.66 11.26 45.75C11.14 45.9 11.08 46.05 10.93 46.14L10.39 46.5C10.33 46.53 10.27 46.59 10.21 46.65H10.36L10.18 47.04ZM6.31 52.26C6.28 52.23 6.25 52.23 6.25 52.2C6.58 51.63 6.91 51.12 7.24 50.58C7.54 50.1 7.78 49.59 8.05 49.11L8.68 48C8.86 47.67 9.07 47.4 9.28 47.07C9.31 47.04 9.37 47.01 9.43 46.98C9.43 47.13 9.25 47.55 9.16 47.67C8.89 48.18 8.56 48.66 8.26 49.17C8.02 49.59 7.78 50.01 7.57 50.46L7.48 50.67C7.45 50.73 7.45 50.82 7.36 50.88C7.18 51.15 6.91 51.42 6.73 51.69C6.58 51.87 6.43 52.05 6.31 52.26ZM9.43 47.79C9.58 47.37 9.79 47.22 10.12 47.31C10.03 47.58 9.79 47.79 9.43 47.79ZM9.25 48.09C9.37 47.91 9.37 47.91 9.55 48.09H9.25ZM9.07 48.69C9.01 48.69 8.95 48.66 8.92 48.66C8.92 48.63 8.92 48.51 8.95 48.48C9.07 48.33 9.16 48.36 9.28 48.54L9.07 48.69ZM8.53 49.62C8.59 49.35 8.62 49.17 8.68 48.96C8.68 48.9 8.74 48.84 8.83 48.81C8.86 48.81 8.92 48.81 8.95 48.84C8.98 48.84 9.01 48.9 9.01 48.93C8.98 48.99 8.98 49.11 8.92 49.14C8.83 49.29 8.68 49.41 8.53 49.62ZM8.23 50.37C8.11 50.04 8.2 49.83 8.56 49.83C8.68 49.8 8.8 49.77 8.86 49.65C8.98 49.38 9.1 49.17 9.28 48.93C9.28 49.2 9.1 49.38 9.01 49.59C8.95 49.71 8.89 49.83 8.8 49.92C8.71 50.04 8.62 50.07 8.53 50.16C8.56 50.37 8.56 50.43 8.23 50.37ZM7.84 50.94L7.93 50.73L7.99 50.82C7.96 50.88 7.93 50.91 7.84 50.94ZM6.1 53.88V53.46C5.77 53.34 5.8 53.7 5.59 53.79C5.53 53.64 5.59 53.55 5.71 53.43C5.77 53.34 5.86 53.28 5.83 53.13C5.83 53.04 5.95 52.92 6.01 52.89C6.28 52.83 6.4 52.65 6.43 52.38C6.46 52.08 6.79 51.9 7.12 51.99C7.15 52.11 7.12 52.23 7 52.26C6.61 52.35 6.55 52.59 6.49 52.95V53.04H6.13C6.22 53.22 6.31 53.34 6.37 53.46C6.31 53.61 6.31 53.79 6.1 53.88ZM7.6 52.5C7.57 52.23 7.57 52.23 7.78 52.29C7.72 52.35 7.66 52.41 7.6 52.5ZM47.733 31.29C47.673 31.08 47.643 30.78 47.523 30.6C47.433 30.51 47.283 30.39 46.713 30.42C46.563 30.42 46.473 30.42 46.443 30.39C46.173 30.21 45.933 30.15 45.723 30.06C45.573 30 45.483 30.03 45.333 30.12C45.183 30.24 45.183 30.45 44.973 30.57C44.853 30.63 44.763 30.69 44.703 30.78C44.643 30.93 44.553 31.11 44.343 31.2C44.313 31.23 44.253 31.29 44.283 31.35C44.313 31.41 44.373 31.35 44.433 31.32C44.523 31.29 44.583 31.26 44.613 31.32C44.643 31.38 44.583 31.44 44.553 31.47C44.193 31.86 43.653 31.86 43.353 32.22C43.233 32.34 43.113 32.25 42.963 32.31C42.843 32.37 42.153 33.24 42.063 33.33C41.943 33.36 41.793 33.42 41.823 33.51C41.883 33.63 42.303 33.93 42.213 33.9C42.183 33.9 42.123 33.9 42.063 33.96C42.003 34.05 42.183 33.99 42.183 34.05C42.183 34.11 42.063 34.17 42.003 34.11C41.853 34.05 41.763 34.23 41.733 34.29C41.613 34.59 41.103 34.44 40.893 34.68C40.803 34.77 40.113 35.46 39.843 35.67C39.753 35.7 39.873 36.27 39.753 36.21C39.723 36.21 39.663 36.24 39.723 36.27C39.813 36.45 39.753 36.54 39.633 36.57L39.453 36.66C39.333 36.78 39.213 36.99 39.063 37.14C38.913 37.26 38.943 37.11 38.913 37.11C38.883 37.14 38.853 37.23 38.793 37.2C38.673 37.14 38.613 37.2 38.523 37.29C38.493 37.32 38.523 37.38 38.403 37.35C38.373 37.29 38.463 37.26 38.433 37.23C38.373 37.08 38.463 36.96 38.493 36.81C38.523 36.75 38.523 36.66 38.493 36.66C38.313 36.72 38.283 36.63 38.193 36.54C38.163 36.54 38.163 36.57 38.133 36.51C38.133 36.45 38.163 36.36 38.163 36.27C38.163 36.27 38.133 36.24 38.163 36.18C38.223 36.18 38.223 36.18 38.253 36.24C38.283 36.27 38.283 36.33 38.373 36.27C38.403 36.21 38.373 36.15 38.343 36.15C38.223 36.09 38.253 36.06 38.373 36C38.373 35.94 38.373 35.82 38.463 35.7C38.433 35.88 38.583 35.88 38.613 35.94C38.583 35.94 38.553 35.97 38.493 36C38.463 36.09 38.463 36.21 38.493 36.27C38.553 36.33 38.613 36.27 38.643 36.27C38.763 36.15 38.913 36.03 39.003 35.88C39.033 35.82 39.093 35.7 39.063 35.61C39.033 35.61 39.003 35.64 38.973 35.64C38.973 35.7 38.883 35.73 38.823 35.67C38.733 35.61 38.763 35.52 38.793 35.46C38.853 35.34 38.883 35.22 38.793 35.07C39.003 35.22 39.063 35.1 39.123 34.92C39.123 34.86 39.183 34.83 39.243 34.77C39.273 34.92 39.333 35.07 39.153 35.16C39.063 35.19 39.063 35.28 39.063 35.34C39.063 35.4 39.063 35.46 39.123 35.49C39.213 35.46 39.213 35.4 39.213 35.37C39.333 35.16 39.393 34.95 39.543 34.77C39.573 34.74 39.603 34.71 39.573 34.68C39.483 34.56 39.603 34.5 39.663 34.41C39.693 34.35 39.753 34.32 39.723 34.26C39.723 34.11 39.813 34.02 39.873 33.96C39.963 33.87 39.963 33.75 39.963 33.63C39.933 33.54 39.963 33.51 39.993 33.48C40.173 33.39 40.263 33.24 40.353 33.09C40.413 33 40.443 32.88 40.323 32.76C40.473 32.76 40.533 32.7 40.563 32.61C40.593 32.52 40.653 32.46 40.743 32.43C40.803 32.4 40.803 32.37 40.803 32.34C40.893 32.16 40.833 32.01 40.923 31.86C41.103 31.74 41.163 31.53 41.283 31.35C41.433 31.11 41.583 30.84 41.703 30.6L43.353 27.72C43.593 27.36 43.653 26.94 43.983 26.61C44.043 26.55 43.983 26.49 44.043 26.43C44.343 26.19 44.493 25.8 44.643 25.44L44.973 24.99C45.153 24.75 45.333 24.57 45.453 24.36C45.573 24.12 45.783 23.97 45.753 23.76C45.873 23.67 45.993 23.49 46.053 23.37L46.503 22.86C46.593 22.71 46.743 22.59 46.803 22.41C46.863 22.14 46.893 21.93 46.803 21.72C46.683 21.51 46.533 21.39 46.293 21.42C46.233 21.42 46.203 21.36 46.203 21.33C46.203 21.27 46.173 21.24 46.143 21.21C46.053 21.09 45.843 21.09 45.723 21C45.513 20.91 45.243 20.94 45.093 21.15C45.003 21.27 44.943 21.48 44.823 21.63C44.703 21.87 44.553 22.08 44.403 22.26C44.163 22.68 43.923 23.16 43.683 23.52L42.933 24.87C42.783 25.08 42.753 25.29 42.783 25.41C42.393 25.77 42.153 26.1 42.003 26.49C41.913 26.7 41.763 26.94 41.673 27.18C41.463 27.42 41.343 27.66 40.173 29.94C39.873 30.33 39.663 30.78 39.603 31.17C39.333 31.65 39.153 32.16 38.913 32.67L38.643 33.27C38.523 33.51 38.343 33.78 38.193 34.05C37.893 34.44 37.773 34.95 37.503 35.4C37.293 35.88 37.143 36.33 36.903 36.75C36.603 37.23 36.453 37.8 36.213 38.25C36.003 38.7 35.823 39.21 35.613 39.69L35.013 41.25C34.953 41.37 35.163 42.15 35.283 42.24C35.433 42.3 35.493 42.36 35.553 42.45C35.583 42.51 35.613 42.57 35.703 42.57C35.823 42.51 35.853 42.57 35.883 42.66C35.823 42.84 35.793 42.99 35.793 43.11C35.793 43.17 35.733 43.2 35.793 43.26C35.823 43.29 35.853 43.2 35.883 43.26C35.823 43.35 35.883 43.53 35.823 43.65C35.763 43.71 35.703 43.74 35.673 43.83C35.673 44.31 35.883 44.67 36.123 45.03C36.273 45.24 36.513 45.42 36.633 45.6C36.783 45.84 36.963 45.84 37.203 45.96C37.653 46.05 38.043 45.93 38.373 45.63C38.583 45.48 38.793 45.39 39.033 45.15C39.123 45.03 39.303 44.94 39.393 44.76C39.543 44.64 39.693 44.58 39.753 44.37C39.783 44.28 40.293 44.46 40.263 44.28C39.963 44.25 39.603 44.25 39.453 44.37C39.393 44.43 39.333 44.64 39.303 44.4C39.303 44.37 39.273 44.34 39.213 44.34C39.153 44.34 39.153 44.4 39.153 44.43C39.153 44.64 39.093 44.73 39.063 44.85C39.033 44.94 38.973 44.94 38.913 44.97C38.883 45 38.853 45 38.793 44.97C38.763 44.91 38.793 44.88 38.883 44.85C38.973 44.85 39.033 44.79 39.003 44.7C38.943 44.61 38.853 44.7 38.763 44.7L38.703 44.79C38.703 44.67 38.763 44.55 38.733 44.43C38.733 44.43 38.703 44.43 38.703 44.4C38.733 44.4 38.733 44.43 38.733 44.43L39.033 44.34C39.063 44.34 39.123 44.31 39.063 44.25C39.063 44.16 39.003 44.19 38.973 44.19H38.913C38.973 44.04 38.973 44.04 39.093 44.1C39.183 44.13 39.333 44.07 39.363 43.98C39.513 43.68 40.083 43.98 40.263 44.28C40.293 44.28 40.353 44.28 40.383 44.25C40.563 44.16 40.653 43.86 40.923 43.77C41.073 43.68 41.133 43.53 41.193 43.41C41.253 43.26 41.373 43.2 41.493 43.11C41.703 42.96 41.973 42.78 42.093 42.51C42.123 42.3 42.303 42.15 42.513 42.03C42.573 42.03 42.633 41.97 42.633 41.91C42.513 41.79 42.663 41.76 42.693 41.7C42.693 41.61 42.843 41.55 42.873 41.46C42.903 41.37 42.873 41.31 42.813 41.31C42.723 41.37 42.363 41.1 42.213 41.16C42.123 41.22 42.093 41.16 42.033 41.13C41.943 41.01 41.853 41.07 41.793 41.16C41.793 41.25 41.703 41.25 41.673 41.19C41.583 41.16 41.613 41.13 41.673 41.1C41.673 41.1 41.703 41.1 41.703 41.07C41.793 40.92 41.823 40.89 41.973 40.98C42.003 40.98 42.033 41.01 42.063 40.98C42.093 40.89 42.153 40.89 42.183 40.86C42.243 40.8 42.363 40.83 42.423 40.86C42.423 40.86 42.453 40.89 42.423 40.92C42.423 40.98 42.363 40.98 42.243 40.98C42.423 41.07 42.873 41.28 43.023 41.28C43.143 41.28 43.353 41.1 43.353 40.95C43.353 40.86 43.353 40.8 43.383 40.8C43.473 40.74 43.503 40.62 43.563 40.53C43.623 40.38 43.833 40.35 43.953 40.2C44.043 40.05 44.193 39.9 44.253 39.75C44.283 39.72 44.523 39.39 44.463 39.36C44.373 39.18 44.523 39.09 44.613 39.06C44.763 39 44.823 38.88 44.913 38.76C44.973 38.61 45.093 38.52 45.033 38.37C44.913 38.13 45.273 38.31 45.303 38.16C45.303 37.95 45.483 37.8 45.423 37.62C45.393 37.56 45.453 37.53 45.483 37.5C45.573 37.44 45.693 37.35 45.753 37.2C45.873 37.02 46.473 36.27 46.563 36C46.593 35.91 46.683 35.82 46.623 35.73C46.593 35.67 46.593 35.64 46.593 35.58C46.473 35.58 45.933 35.61 45.963 35.79C45.993 35.85 45.843 35.91 45.783 35.97C45.753 36 45.723 35.97 45.723 35.94C45.693 35.88 45.693 35.82 45.723 35.76C45.813 35.58 45.693 35.1 45.993 35.07C46.503 34.98 46.533 34.8 46.503 34.65C46.593 34.65 46.653 34.74 46.713 34.8C46.743 34.83 46.743 34.92 46.653 34.92C46.443 34.95 46.503 35.1 46.503 35.22C46.533 35.31 46.563 35.37 45.993 35.49C46.023 35.58 46.563 35.55 46.593 35.58C46.653 35.58 46.743 35.64 46.743 35.55C46.713 35.34 46.803 35.31 46.893 35.25C46.953 35.19 46.983 35.16 46.983 35.13C47.043 34.89 47.043 34.59 47.163 34.41C47.283 34.14 47.253 33.87 47.373 33.63C47.373 33.63 47.433 33.6 47.373 33.54C47.823 33.36 47.583 33.3 47.613 33.18L47.673 32.82L47.763 32.16C47.823 31.83 47.823 31.53 47.733 31.29ZM42.813 26.07C42.783 26.28 42.573 26.43 42.423 26.55C42.453 26.34 42.693 26.22 42.813 26.07ZM42.363 26.7C42.333 26.91 42.183 27 42.123 27.12C42.093 26.94 42.123 26.79 42.363 26.7ZM40.383 30.15L40.503 30.12C40.563 30.15 40.563 30.18 40.533 30.21C40.353 30.42 40.293 30.6 40.143 30.75H40.083C40.263 30.57 40.233 30.3 40.383 30.15ZM40.083 30.9C40.083 31.05 40.143 31.08 40.083 31.17C40.023 31.02 39.993 30.96 40.083 30.9ZM45.963 31.32C45.873 31.71 45.873 32.13 45.783 32.55C45.693 32.88 45.603 33.24 45.483 33.57C45.453 33.75 45.423 33.93 45.363 34.08C45.333 34.2 45.303 34.29 45.243 34.32C45.153 34.41 45.153 34.47 45.123 34.53C45.093 34.68 45.153 34.86 45.033 34.98C44.883 35.07 44.853 35.22 44.733 35.34C44.673 35.4 44.583 35.49 44.703 35.58C44.763 35.64 44.763 35.52 44.823 35.49C44.853 35.43 44.853 35.43 44.883 35.43C44.883 35.58 44.793 35.61 44.763 35.67C44.793 35.7 44.853 35.64 44.913 35.61C44.943 35.58 44.973 35.58 45.003 35.61C45.033 35.64 45.033 35.67 45.033 35.67C45.003 35.73 44.973 35.73 44.943 35.73C44.853 35.73 44.763 35.73 44.763 35.67C44.703 35.64 44.643 35.64 44.583 35.7C44.133 36.39 43.293 37.65 42.933 38.25C42.663 38.7 42.333 39 42.093 39.36C41.823 39.75 41.583 40.14 41.283 40.44C41.133 40.62 41.043 40.89 40.833 41.07C40.473 41.34 40.233 41.79 39.903 42.15C39.693 42.36 39.453 42.45 39.303 42.78C39.243 42.87 39.123 42.87 39.063 42.93C38.913 43.14 38.643 43.29 38.463 43.56C38.433 43.62 38.403 43.68 38.343 43.71C38.223 43.74 38.103 43.83 38.043 43.89C37.743 44.22 37.443 44.43 36.993 44.52C36.843 44.61 36.753 44.46 36.753 44.25C36.813 43.98 36.783 43.74 36.783 43.56L36.723 42.57C36.693 42.45 36.663 42.33 36.753 42.18C36.783 42.09 36.783 41.94 36.693 41.94C36.723 41.88 36.783 41.85 36.783 41.82C36.843 41.73 36.813 41.64 36.723 41.64C36.693 41.61 36.693 41.55 36.723 41.49C36.783 41.43 36.813 41.34 36.813 41.28C36.843 40.98 37.083 40.71 37.323 40.44C37.563 40.17 37.773 39.81 38.073 39.51C38.193 39.36 38.253 39.21 38.313 39.12C38.523 38.88 38.703 38.64 38.853 38.43C39.093 38.04 39.453 37.8 39.693 37.41C39.903 37.08 40.203 36.84 40.443 36.51C40.593 36.27 40.803 36.06 41.043 35.85L41.313 35.43C41.343 35.4 41.343 35.4 41.343 35.37C41.313 35.22 41.463 35.19 41.583 35.16C41.883 34.95 42.093 34.65 42.273 34.35L42.483 33.99C42.483 33.93 42.573 33.9 42.723 33.87C43.233 33.36 43.293 33.36 43.323 33.3C43.323 33.24 43.233 33.24 42.843 33.57C43.353 33.12 43.383 33 43.503 32.85C43.623 32.76 43.743 32.67 43.923 32.64C44.013 32.61 44.043 32.55 44.133 32.46C44.523 31.92 45.033 31.62 45.453 31.23C45.543 31.17 45.633 31.14 45.783 31.08C45.903 31.05 45.993 31.17 45.963 31.32ZM44.073 31.11C44.073 31.08 44.043 31.08 44.013 31.08C43.833 31.2 43.623 31.35 43.443 31.53C43.383 31.59 43.233 31.62 43.233 31.8L42.693 32.34C42.543 32.34 42.513 32.4 42.483 32.46C42.423 32.67 42.243 32.76 42.123 32.91C41.913 33 41.823 33.09 41.793 33.27C41.823 33.24 41.823 33.27 41.823 33.24C42.123 33 42.393 32.79 42.663 32.52C43.353 31.8 43.563 31.56 43.773 31.38L44.043 31.2C44.073 31.14 44.103 31.14 44.073 31.11ZM44.883 31.11C44.853 31.17 44.853 31.23 44.763 31.2C44.793 31.11 44.823 31.11 44.883 31.11ZM39.933 31.23C39.963 31.2 40.023 31.23 40.023 31.26C39.963 31.26 39.963 31.32 39.933 31.35C39.933 31.35 39.903 31.29 39.903 31.26L39.933 31.23ZM44.073 31.59C44.163 31.56 44.253 31.53 44.313 31.41C44.193 31.38 44.103 31.38 44.013 31.5C43.983 31.53 43.983 31.56 43.983 31.56C43.983 31.65 44.043 31.65 44.073 31.59ZM39.543 31.98C39.633 31.8 39.723 31.71 39.813 31.53C39.843 31.47 39.843 31.44 39.903 31.44C39.933 31.44 39.963 31.44 39.963 31.47C39.933 31.53 39.903 31.56 39.873 31.59C39.813 31.74 39.723 31.89 39.603 32.04C39.573 32.04 39.543 32.07 39.513 32.04C39.513 32.01 39.513 32.01 39.543 31.98ZM40.713 31.8C40.743 31.8 40.743 31.83 40.743 31.83C40.623 31.8 40.533 31.83 40.503 31.74C40.503 31.68 40.563 31.68 40.653 31.74C40.653 31.77 40.713 31.77 40.713 31.8ZM40.263 32.04C40.263 31.98 40.323 31.89 40.383 31.89C40.413 31.86 40.443 31.89 40.413 31.98C40.383 32.01 40.413 32.1 40.323 32.1C40.293 32.07 40.233 32.07 40.263 32.04ZM40.593 32.34C40.563 32.4 40.503 32.43 40.443 32.4C40.383 32.34 40.323 32.25 40.203 32.19C40.323 32.19 40.383 32.19 40.503 32.1C40.533 32.07 40.563 32.1 40.593 32.16C40.653 32.22 40.653 32.31 40.593 32.34ZM38.793 33.51C38.883 33.27 39.033 33.03 39.153 32.79C39.213 32.55 39.303 32.37 39.423 32.19C39.483 32.13 39.513 32.1 39.573 32.16C39.633 32.19 39.603 32.22 39.573 32.28C39.393 32.52 39.303 32.76 39.153 32.97C39.093 33.06 39.123 33.18 39.063 33.3C38.943 33.48 38.793 33.69 38.673 33.9C38.673 33.75 38.763 33.66 38.793 33.51ZM40.323 32.73C40.293 32.73 40.263 32.73 40.263 32.7C40.323 32.64 40.293 32.49 40.383 32.46C40.413 32.43 40.413 32.49 40.413 32.52C40.383 32.61 40.443 32.7 40.323 32.73ZM43.683 32.49C43.683 32.49 43.743 32.52 43.743 32.55C43.743 32.58 43.683 32.58 43.683 32.58C43.653 32.58 43.623 32.58 43.623 32.55C43.623 32.52 43.653 32.49 43.683 32.49ZM39.993 32.85C39.993 32.85 39.963 32.85 39.963 32.82C39.963 32.79 39.963 32.79 39.993 32.76C40.023 32.73 40.053 32.76 40.053 32.76C40.053 32.79 40.023 32.82 39.993 32.85ZM39.543 32.79C39.573 32.79 39.573 32.79 39.603 32.82C39.603 32.88 39.543 32.91 39.513 32.97C39.483 32.85 39.483 32.82 39.543 32.79ZM39.873 33.09C39.903 33.09 39.933 33.09 39.933 33.12C39.903 33.15 39.873 33.18 39.843 33.18C39.813 33.12 39.843 33.09 39.873 33.09ZM39.933 33.36C39.843 33.45 39.843 33.45 39.693 33.45C39.783 33.42 39.813 33.3 39.933 33.36V33.33C39.933 33.3 39.933 33.18 40.023 33.18C40.053 33.15 40.053 33.21 40.053 33.24C40.023 33.36 39.963 33.36 39.933 33.36ZM41.673 33.42V33.24C41.553 33.33 41.553 33.36 41.673 33.42ZM39.183 33.63C39.243 33.42 39.273 33.42 39.393 33.48C39.303 33.51 39.273 33.57 39.183 33.63ZM41.043 33.99C41.223 33.99 41.253 33.75 41.433 33.69C41.523 33.63 41.523 33.57 41.403 33.48C41.313 33.57 41.403 33.66 41.313 33.66C41.313 33.66 41.283 33.63 41.253 33.63V33.66C41.253 33.69 41.283 33.66 41.313 33.69C41.253 33.75 41.163 33.87 41.073 33.87C40.953 33.9 40.983 34.08 40.863 34.08C40.833 34.32 40.533 34.29 40.533 34.53C40.533 34.56 40.473 34.56 40.473 34.59C40.413 34.59 40.383 34.65 40.323 34.68C40.113 34.86 39.933 35.07 39.723 35.31C39.723 35.31 39.693 35.31 39.693 35.34C39.633 35.37 39.513 35.4 39.573 35.49C39.393 35.76 39.213 35.94 39.003 36.12C38.973 36.15 38.883 36.18 38.973 36.27C39.003 36.3 39.033 36.27 39.063 36.24C39.153 36.21 39.213 36.12 39.273 36C39.393 35.88 39.483 35.64 39.753 35.61C39.783 35.61 39.813 35.58 39.813 35.55C39.783 35.43 39.843 35.4 39.873 35.34L40.833 34.32C40.923 34.23 41.043 34.2 41.013 34.02C41.013 34.02 41.013 33.99 41.043 33.99ZM39.423 34.29C39.363 34.29 39.333 34.26 39.333 34.17C39.333 34.11 39.363 34.08 39.393 34.08C39.483 34.08 39.483 34.02 39.573 33.96L39.603 33.93C39.663 33.96 39.663 33.99 39.663 34.02C39.693 34.11 39.543 34.29 39.423 34.29ZM37.533 36.03C37.563 35.91 37.653 35.73 37.743 35.61C37.803 35.52 37.803 35.43 37.923 35.4C37.953 35.4 37.983 35.34 37.983 35.31C38.043 34.92 38.223 34.68 38.373 34.32C38.403 34.2 38.523 34.11 38.553 33.99C38.553 33.96 38.583 33.93 38.643 33.96C38.703 33.99 38.703 34.02 38.673 34.08C38.493 34.44 38.343 34.86 38.103 35.22C37.443 36.27 37.533 36.42 37.533 36.03ZM46.593 34.56C46.563 34.47 46.623 34.38 46.713 34.32C46.743 34.38 46.593 34.53 46.773 34.56C46.713 34.59 46.623 34.62 46.593 34.56ZM38.853 34.95C38.823 34.95 38.823 34.95 38.823 34.92C38.823 34.89 38.823 34.86 38.853 34.86C38.883 34.86 38.943 34.86 38.943 34.89C38.943 34.92 38.883 34.95 38.853 34.95ZM38.313 35.37C38.313 35.31 38.313 35.25 38.403 35.19C38.403 35.28 38.373 35.31 38.313 35.37ZM45.033 35.31C44.973 35.34 44.943 35.31 44.883 35.28C44.943 35.25 44.973 35.22 45.003 35.25C45.033 35.25 45.033 35.31 45.033 35.31ZM45.093 35.94C45.063 35.97 45.033 36 45.033 36.06C45.093 36.36 44.883 36.99 44.313 37.14H44.283C44.553 36.78 44.823 36.33 44.913 36.12C44.943 36.03 44.883 36.03 44.853 35.97C45.003 36 45.063 35.91 45.093 35.79C45.123 35.73 45.153 35.67 45.213 35.61C45.243 35.52 45.303 35.55 45.363 35.58C45.393 35.58 45.393 35.64 45.363 35.67C45.303 35.73 45.273 35.88 45.093 35.94ZM38.673 35.88C38.613 35.91 38.583 35.85 38.583 35.79C38.583 35.7 38.613 35.67 38.673 35.67C38.703 35.64 38.763 35.7 38.763 35.79C38.763 35.82 38.763 35.88 38.673 35.88ZM38.133 35.67C38.193 35.73 38.133 35.82 38.193 35.88C38.043 35.85 38.133 35.76 38.133 35.67ZM43.263 38.52C42.993 38.94 42.993 39.54 42.753 39.96C42.693 40.08 42.603 40.14 42.513 40.2C42.813 40.35 42.843 40.29 42.873 40.2C42.873 40.11 42.933 40.08 42.993 40.08L43.023 40.11C43.023 40.17 43.023 40.2 42.993 40.2C42.873 40.23 42.783 40.44 42.363 40.32C42.363 40.32 42.363 40.35 42.333 40.35H42.303C42.063 40.5 41.793 40.65 41.673 40.92C41.493 41.1 41.523 41.49 41.373 41.73C41.193 41.91 40.773 41.85 40.653 42.09C40.593 42.15 40.533 42.18 40.503 42.18C40.323 42.27 40.323 42.39 40.503 42.45C40.533 42.45 40.593 42.48 40.593 42.51C40.593 42.6 40.533 42.6 40.503 42.57C40.203 42.48 40.173 42.51 40.083 42.81C40.083 42.81 40.083 42.84 40.053 42.84C39.753 42.93 39.633 43.26 39.423 43.38C39.303 43.44 39.273 43.56 39.153 43.68C39.093 43.74 39.033 43.8 38.973 43.8C39.033 43.47 39.153 43.17 39.483 42.96C39.723 42.75 39.903 42.42 40.143 42.21C40.353 41.94 40.593 41.67 40.833 41.46C41.043 41.25 41.193 41.04 41.343 40.83C41.433 40.65 41.553 40.5 41.733 40.35C41.913 40.14 41.973 39.87 42.123 39.66C42.753 39.54 42.663 38.97 42.963 38.49C42.993 38.46 43.023 38.43 43.083 38.4C43.233 38.31 43.143 38.04 43.293 37.89C43.323 37.86 43.323 37.8 43.473 37.83L43.533 37.77C43.593 37.56 43.683 37.35 43.833 37.2C43.833 37.17 43.893 37.11 43.863 37.05C43.863 36.99 43.863 36.96 43.923 36.93C44.043 36.9 44.493 36.33 44.493 36.27C44.493 36.06 44.583 35.97 44.643 35.85C44.733 36 44.823 36.21 44.193 36.9L43.923 37.26C43.743 37.68 43.533 38.16 43.263 38.52ZM46.173 36.24C45.993 36.27 46.083 36.18 45.693 36C46.173 36.09 46.173 36.18 46.173 36.24ZM45.303 36.27C45.303 36.24 45.303 36.24 45.333 36.24C45.333 36.21 45.783 36.24 45.813 36.24C45.783 36.27 45.333 36.27 45.303 36.27ZM37.833 36.36C37.833 36.18 37.953 36.3 38.013 36.3C37.953 36.33 37.863 36.33 37.833 36.36ZM37.503 36.3C37.533 36.48 37.533 36.54 37.443 36.63C37.293 36.42 37.443 36.39 37.503 36.3ZM38.523 36.63C38.613 36.6 38.643 36.57 38.613 36.51C38.553 36.51 38.523 36.54 38.523 36.63ZM38.163 36.75C38.103 36.78 38.073 36.81 38.013 36.75C37.983 36.72 38.013 36.66 38.043 36.66C38.103 36.63 38.133 36.69 38.133 36.75H38.163ZM36.693 37.83C36.813 37.68 36.903 37.47 36.903 37.32C37.023 37.14 37.173 36.96 37.233 36.75C37.233 36.69 37.263 36.66 37.323 36.66C37.413 36.69 37.383 36.75 37.383 36.78C37.383 36.81 37.323 36.87 37.323 36.93C37.023 37.32 36.933 37.83 36.633 38.28C36.633 38.13 36.633 38.01 36.693 37.83ZM38.163 36.84V37.11C38.103 37.02 38.073 36.96 38.163 36.84ZM44.133 37.68C44.103 37.74 44.013 37.77 43.923 37.74C43.863 37.68 43.923 37.62 43.953 37.59C44.043 37.5 44.163 37.35 44.283 37.2C44.253 37.2 44.283 37.2 44.283 37.23C44.343 37.26 44.313 37.35 44.313 37.35C44.193 37.41 44.163 37.56 44.133 37.68ZM37.413 37.41C37.503 37.41 37.593 37.38 37.623 37.29C37.653 37.26 37.683 37.23 37.743 37.26V37.32C37.623 37.41 37.623 37.62 37.533 37.77C37.533 37.8 37.503 37.83 37.473 37.8C37.443 37.68 37.563 37.47 37.413 37.41ZM38.073 37.29C38.073 37.32 38.103 37.35 38.073 37.35C38.073 37.41 38.073 37.56 37.953 37.56C37.893 37.53 37.893 37.41 37.863 37.35C37.893 37.23 38.013 37.23 38.073 37.29ZM37.323 37.5C37.323 37.56 37.323 37.56 37.293 37.56C37.263 37.56 37.263 37.5 37.263 37.47C37.263 37.44 37.233 37.41 37.293 37.44C37.323 37.44 37.353 37.47 37.323 37.5ZM44.313 37.8C44.253 37.8 44.283 37.71 44.253 37.68C44.253 37.62 44.253 37.56 44.313 37.56C44.373 37.56 44.853 37.59 44.853 37.62C44.853 37.68 44.373 37.8 44.313 37.8ZM37.713 37.77C37.713 37.71 37.773 37.65 37.803 37.65C37.863 37.65 37.863 37.71 37.863 37.77C37.863 37.8 37.863 37.83 37.803 37.83C37.773 37.83 37.713 37.8 37.713 37.77ZM43.653 38.43C43.623 38.28 43.773 37.98 43.953 37.86C43.863 38.04 43.773 38.25 43.653 38.43ZM36.543 38.43C36.603 38.58 36.453 38.76 36.333 38.91C36.333 38.73 36.393 38.52 36.543 38.43ZM36.603 39.03C36.633 38.91 36.663 38.82 36.663 38.73C36.663 38.7 36.693 38.67 36.723 38.67C36.753 38.67 36.753 38.7 36.753 38.73C36.693 38.85 36.663 38.97 36.603 39.03ZM35.853 40.05C35.943 39.66 36.063 39.27 36.333 39.06C36.153 39.33 36.063 39.72 35.853 40.05ZM37.743 39.15C37.683 39.3 37.593 39.33 37.533 39.48C37.563 39.33 37.623 39.21 37.743 39.15ZM36.393 39.3C36.393 39.27 36.453 39.24 36.483 39.21C36.513 39.3 36.483 39.33 36.453 39.33C36.423 39.33 36.393 39.33 36.393 39.3ZM43.353 39.66C43.293 39.75 43.233 39.87 43.023 39.96C43.083 39.81 43.233 39.72 43.293 39.57C43.293 39.54 43.323 39.51 43.353 39.54C43.383 39.57 43.383 39.6 43.353 39.66ZM42.273 40.29C42.273 40.32 42.273 40.35 42.303 40.35C42.393 40.29 42.453 40.26 42.513 40.2C42.483 40.2 42.423 40.17 42.393 40.14C42.363 40.17 42.333 40.23 42.273 40.29ZM35.733 40.44C35.703 40.26 35.733 40.23 35.793 40.2C35.793 40.26 35.763 40.35 35.733 40.44ZM42.093 40.8C42.063 40.83 42.003 40.89 41.973 40.83C41.913 40.8 41.913 40.74 41.943 40.71C42.033 40.62 42.063 40.44 42.213 40.44C42.123 40.53 42.123 40.74 42.093 40.8ZM40.203 42.78C40.233 42.75 40.233 42.75 40.263 42.75C40.263 42.75 40.293 42.78 40.293 42.81C40.293 42.84 40.563 43.08 40.263 42.84C40.233 42.84 40.233 42.84 40.203 42.78ZM36.003 43.17C36.003 43.02 35.943 42.99 36.063 42.87C36.093 42.84 36.123 42.84 36.153 42.9C36.183 42.99 36.123 43.05 36.003 43.17ZM39.453 43.74C39.453 43.74 39.423 43.74 39.363 43.77V43.71C39.363 43.68 39.363 43.65 39.423 43.65L39.753 43.32C39.843 43.26 40.173 43.35 40.233 43.23C40.263 43.2 40.293 43.2 40.353 43.2C40.383 43.23 40.353 43.26 40.353 43.29C40.203 43.62 39.663 43.53 39.453 43.74ZM40.533 43.77C40.443 43.68 40.443 43.62 40.473 43.53C40.473 43.44 40.503 43.35 40.563 43.35C40.563 43.32 40.563 43.26 40.623 43.26L40.533 43.77ZM36.513 43.65C36.483 43.62 36.453 43.62 36.453 43.56C36.453 43.53 36.483 43.5 36.513 43.5C36.543 43.5 36.573 43.53 36.573 43.56C36.573 43.62 36.543 43.62 36.513 43.65ZM40.353 43.98C40.293 44.07 39.813 43.89 39.783 43.77C39.753 43.74 39.753 43.71 39.783 43.68C39.813 43.62 39.873 43.59 39.933 43.62C40.263 43.8 40.293 43.83 40.353 43.83C40.383 43.8 40.413 43.77 40.443 43.83C40.473 43.89 40.443 43.95 40.353 43.98ZM40.323 43.95L40.353 43.98V43.95H40.323ZM38.283 44.88C38.253 44.88 38.193 44.85 38.253 44.85C38.253 44.73 38.373 44.73 38.433 44.67C38.433 44.79 38.373 44.88 38.283 44.88ZM53.6727 39.3C53.6427 39.3 53.6727 39.27 53.7027 39.24L54.6027 38.1C54.6627 38.04 54.7227 37.95 54.7227 37.86C54.8727 37.77 55.0227 37.59 55.0827 37.47C55.2327 37.23 55.4127 37.02 55.5627 36.84C55.6827 36.66 55.7727 36.51 55.9227 36.39C56.3427 35.88 56.5827 35.7 56.4327 35.43C56.3727 35.4 56.3427 35.4 56.3127 35.46C56.1627 35.76 55.9527 35.94 55.4427 36.51C54.9627 37.11 54.5427 37.68 54.1227 38.25C53.8527 38.67 53.5527 39.06 53.2227 39.48C52.9227 39.93 52.5627 40.35 52.2327 40.8C52.0527 41.07 51.8427 41.25 51.6927 41.52C51.3927 41.82 51.0927 42.12 50.7927 42.45C50.5527 42.72 50.3427 43.02 50.0127 43.23C49.8627 43.35 49.7427 43.41 49.5927 43.53C49.3527 43.74 49.1127 43.89 48.8127 44.01C48.7827 44.04 48.7227 44.07 48.6927 44.04C48.6327 43.98 48.6627 43.95 48.6927 43.89L48.7827 43.65C48.9627 43.26 48.9927 42.84 49.2027 42.48C49.3827 42.15 49.4427 41.79 49.6227 41.46C49.8327 41.22 49.9827 40.89 50.0727 40.56C50.1027 40.41 50.1627 40.2 50.2527 40.08L50.5527 39.63C50.7627 39.3 50.9127 38.97 51.0927 38.61C51.2127 38.4 51.3027 38.1 51.4527 37.86C51.5727 37.65 51.6927 37.35 51.8427 37.08L52.2327 36.42C52.7127 35.67 53.0127 35.28 53.2527 34.86C53.2827 34.74 53.2827 34.65 53.3727 34.59C53.7627 34.02 54.0327 33.42 54.3627 32.82C54.4827 32.55 54.8127 31.83 54.9027 31.53C55.0227 31.32 54.9627 31.08 54.7827 30.87C54.5727 30.63 54.3027 30.45 54.0627 30.27C53.8827 30.09 53.6127 30.12 53.4027 30.03H53.3427C53.2527 30.12 53.1327 30.06 53.0427 30.06C52.9527 30.03 52.8927 30.03 52.8327 30.06C52.3227 30.15 51.8427 30.33 51.3927 30.57C50.9727 30.63 50.7627 31.56 51.0927 31.29C51.3627 31.11 51.6927 31.02 51.9927 30.84C52.2927 30.69 52.6527 30.63 52.9827 30.57C53.1327 30.6 53.1627 30.63 53.1327 30.72C53.1027 30.99 53.0427 31.23 52.8927 31.5C52.6527 31.98 52.0827 32.91 51.7827 33.39C51.5727 33.81 51.4227 34.23 51.1827 34.62C51.0327 34.83 50.8827 35.04 50.7627 35.28C50.6427 35.61 50.4327 35.91 50.0127 36.57C49.7427 36.99 49.5027 37.44 49.2627 37.86C49.1127 38.16 49.0827 38.46 48.9327 38.7C48.7227 39.09 48.4527 39.45 48.3027 39.84C48.0927 40.35 47.8527 40.86 47.6127 41.37C47.4027 41.97 47.1927 42.57 47.1027 43.2C47.0427 43.56 46.9827 43.92 47.1327 44.22C47.3127 44.55 47.6427 44.85 48.0027 44.97C48.3027 45.06 48.6027 45.12 48.9327 44.91C49.2027 44.76 49.4427 44.61 49.6827 44.4C50.0127 44.19 50.1627 43.86 50.4627 43.62C51.0027 43.05 51.5427 42.42 52.1427 41.82C52.2327 41.7 52.3827 41.58 52.4127 41.37C52.1427 41.55 51.9927 41.82 51.7827 42.03C51.5727 42.27 51.3927 42.51 51.1527 42.72C51.0927 42.75 51.0627 42.78 51.0027 42.72C51.2127 42.57 51.3327 42.39 51.4227 42.21C51.4527 42.15 51.4527 42.06 51.5427 42.03C51.7227 41.91 51.8427 41.67 52.0527 41.58C52.1427 41.52 52.1727 41.46 52.2027 41.37C52.2627 41.28 52.2927 41.07 52.3827 41.04C52.5327 40.98 52.4727 40.74 52.6227 40.77C52.6227 40.59 52.7727 40.47 52.8627 40.35C53.0427 40.2 53.0727 40.02 53.2527 39.87C53.4627 39.72 53.6727 39.6 53.6727 39.3ZM62.7027 38.91C62.5527 38.85 62.4627 38.97 62.3727 39.09C62.3127 39.24 62.2527 39.36 62.1327 39.48C62.0427 39.54 61.9827 39.63 61.9227 39.75C61.8327 39.99 61.6827 40.14 61.3527 40.53C61.1727 40.71 60.9927 40.86 60.8127 41.01C60.6327 41.22 60.5127 41.37 60.2427 41.52C60.1827 41.55 60.1527 41.7 60.0327 41.7C59.9727 41.73 59.9127 41.79 59.8527 41.91C59.8227 42 59.7627 42.06 59.7027 42.06C59.5527 42.15 59.4627 42.15 59.4027 42.24C59.3127 42.39 59.1327 42.45 59.0727 42.6C58.9827 42.69 58.8627 42.78 58.7427 42.78L58.1427 43.26C57.2127 43.77 56.5527 44.01 56.3127 44.13C56.1027 44.28 55.8927 44.43 55.6227 44.52C55.6527 44.43 55.7127 44.31 55.7127 44.16C55.7127 43.83 55.8327 43.5 55.9527 43.2C56.1327 42.78 56.2527 42.36 56.3727 41.94C56.6427 41.28 56.8227 40.59 57.1227 39.93C57.2727 39.57 57.3327 39.18 57.5427 38.85C57.9327 38.22 58.0527 37.5 58.4427 36.9C58.7127 36.48 59.2527 35.67 59.4927 35.19C59.8527 34.47 60.0627 34.02 60.3027 33.57C60.5727 33.18 60.7527 32.79 60.9927 32.4C61.2327 32.1 61.0827 31.77 60.7827 31.59C60.5427 31.44 60.3627 31.32 60.0927 31.29C59.8527 31.26 59.7027 31.08 59.4327 31.02C59.1027 31.02 58.8927 31.08 58.8327 31.41C58.8327 31.5 58.8627 31.59 58.8027 31.68C58.5927 31.95 58.3827 32.25 58.2927 32.61C58.2927 32.7 58.2327 32.76 58.2027 32.85C58.0227 33.15 57.7527 33.42 57.5427 33.75C57.3927 33.93 57.3027 34.17 57.1227 34.32C56.9427 34.47 56.7927 35.01 56.5827 35.16C56.5227 35.16 56.4927 35.22 56.5227 35.31C56.5527 35.37 56.6127 35.34 56.6727 35.31C56.7027 35.31 56.7327 35.31 56.7327 35.37V35.34C56.7627 35.34 56.8527 35.31 56.8827 35.25C57.3027 34.5 57.6927 34.05 58.1427 33.63C58.1427 33.63 58.1427 33.6 58.1727 33.6C58.1727 33.63 58.1427 33.63 58.1427 33.63C58.0827 33.72 58.0527 33.84 57.9927 33.93C57.9327 34.05 57.8127 34.11 57.8127 34.26C57.8727 34.35 57.8127 34.38 57.7527 34.41C57.7527 34.5 57.6627 34.56 57.6327 34.68C57.4827 34.95 57.2127 35.55 57.1527 35.91C57.0927 36.18 56.6727 36.75 56.5227 37.02C56.4327 37.2 56.3127 37.35 56.2527 37.5C56.1327 37.74 55.9827 37.95 55.9227 38.22C55.8027 38.7 55.5927 39.18 55.4127 39.63C55.3827 39.72 55.2627 39.81 55.2327 39.96C55.1127 40.35 54.9327 40.74 54.7827 41.13C54.6927 41.46 54.5127 41.76 54.4227 42.15C54.3927 42.3 54.3927 42.45 54.2727 42.63C54.0327 42.9 53.8827 43.23 53.8827 43.59C53.8827 43.74 53.8527 43.89 53.7627 43.98C53.5527 44.22 53.5827 44.43 53.8227 44.61C53.8827 44.67 53.9127 44.73 53.9127 44.82C53.9427 45.15 54.2127 45.45 54.5427 45.48C54.6327 45.51 54.7527 45.51 54.8127 45.54C54.8727 45.57 54.9327 45.6 54.9927 45.6C55.1727 45.57 55.2927 45.45 55.3827 45.36C55.4727 45.39 55.5627 45.36 55.6527 45.33L56.0427 45.15C56.5227 45 56.6127 44.85 56.8827 44.61L58.1427 43.68C58.3227 43.53 58.5327 43.38 58.7127 43.26C58.9827 43.02 59.2227 42.81 59.4927 42.54C59.7327 42.3 60.0027 42.15 60.2127 41.88C60.2427 41.88 60.3027 41.82 60.3627 41.82C60.1527 42.03 61.1127 41.16 61.3227 41.01C61.3827 40.86 61.4727 40.68 61.6227 40.53C61.6527 40.47 61.7127 40.47 61.8027 40.35C62.0427 39.99 62.1627 39.84 62.2527 39.69C62.3427 39.57 62.4027 39.45 62.5227 39.36C62.5527 39.33 62.5527 39.27 62.5227 39.21C62.4027 39.18 62.8227 38.94 62.7027 38.91ZM58.8327 33.42C58.8927 33.48 58.8327 33.57 58.8027 33.63C58.7127 33.72 58.6827 33.81 58.6527 33.9C58.6527 34.08 58.5927 34.14 58.3827 34.08C58.5927 33.87 58.5627 33.54 58.8327 33.42ZM57.8727 35.43C57.9327 35.25 58.0827 34.74 58.3227 34.65C58.3227 34.65 58.3527 34.62 58.3227 34.59C58.2927 34.56 58.2327 34.5 58.1427 34.56C58.1727 34.41 58.1727 34.32 58.2927 34.32C58.3827 34.32 58.3827 34.29 58.3827 34.23C58.3827 34.17 58.4427 34.14 58.4727 34.17C58.6527 34.23 58.7127 34.11 58.7427 34.02C58.7727 33.99 58.7727 33.99 58.7727 33.93C58.8027 33.99 58.7727 33.99 58.7427 34.02C58.7427 34.2 58.6227 34.38 58.5327 34.53C58.2927 34.92 57.9927 35.61 57.5427 36.39C57.5127 36.51 57.4527 36.6 57.3627 36.66C57.1227 36.3 57.7527 35.7 57.8727 35.43ZM56.5827 35.49C56.5827 35.49 56.5827 35.52 56.6127 35.52C56.6427 35.49 56.6427 35.43 56.6727 35.43C56.7027 35.4 56.7027 35.37 56.7327 35.37H56.6427C56.6127 35.4 56.5527 35.43 56.5827 35.49ZM58.4127 35.58C58.2327 35.73 58.2027 35.94 57.8727 36.45C57.7827 36.63 57.6627 36.81 57.6027 36.99C57.5727 37.05 57.5427 37.14 57.4827 37.11C57.3927 37.08 57.4527 36.99 57.4827 36.96L58.2327 35.7C58.3227 35.58 58.3227 35.49 58.4427 35.43C58.4727 35.49 58.4427 35.55 58.4127 35.58ZM56.5227 37.74C56.6127 37.68 56.6427 37.62 56.6427 37.56C56.6427 37.47 56.6427 37.35 56.8227 37.35L56.8527 37.38C56.8527 37.17 57.1227 37.2 57.1227 37.05C57.1527 37.02 57.1827 37.05 57.1827 37.08C57.1527 37.32 57.0027 37.5 56.9427 37.71C56.8827 37.74 56.8527 37.74 56.8227 37.74C56.7027 37.62 56.7027 37.77 56.7027 37.83C56.6727 37.86 56.6127 37.86 56.6127 37.89C56.5527 37.92 56.5227 37.95 56.4627 37.89C56.4327 37.86 56.4927 37.77 56.5227 37.74ZM56.9727 38.07L57.3327 37.32C57.3627 37.53 57.1527 37.98 56.9727 38.07ZM55.2027 37.68C55.1427 37.74 55.0527 37.8 55.0527 37.92C55.1127 37.83 55.2027 37.77 55.2027 37.68ZM56.4327 38.13C56.4627 38.13 56.5227 38.16 56.5227 38.22C56.5227 38.25 56.4927 38.25 56.4627 38.25C56.3727 38.25 56.3427 38.25 56.3427 38.22C56.3427 38.13 56.3727 38.13 56.4327 38.13ZM56.8227 38.58C56.8227 38.64 56.7927 38.73 56.7327 38.79C56.7027 38.85 56.6127 38.88 56.6727 38.97C56.7327 39 56.6727 39.03 56.6427 39.09C56.5827 39.06 56.5527 39 56.5527 38.97C56.6727 38.76 56.7027 38.46 56.8827 38.25C56.9427 38.19 57.0027 38.19 57.0927 38.31C56.9127 38.34 56.8527 38.43 56.8227 38.58ZM55.8027 39.75C55.6227 39.54 55.9527 39.57 55.9227 39.45C55.7427 39.42 55.7427 39.42 55.8327 39.27C55.8927 39.21 55.9227 39.15 55.9227 39.06C55.9527 38.79 56.1927 38.67 56.3727 38.46C56.3727 38.4 56.4927 38.43 56.5827 38.34C56.5827 38.52 56.5227 38.7 56.4327 38.79C56.2827 39 56.2527 39.18 56.1327 39.39C56.1027 39.51 56.0127 39.66 56.0427 39.81C56.0127 39.9 55.9227 39.9 55.8627 39.9C55.7727 39.9 55.6827 39.9 55.7727 40.05C55.7427 40.11 55.7127 40.11 55.6827 40.11C55.6227 40.11 55.5927 40.11 55.5327 40.08C55.5327 39.93 55.5327 39.72 55.8027 39.75ZM54.5127 38.55L54.5427 38.58C54.6027 38.55 54.6027 38.52 54.6327 38.43H54.6027C54.6027 38.49 54.5427 38.52 54.5127 38.55ZM56.3727 39.72C56.3727 39.75 56.3427 39.75 56.2827 39.75C56.2827 39.75 56.2227 39.72 56.2527 39.66C56.2827 39.57 56.3127 39.45 56.3727 39.36C56.4927 39.51 56.4327 39.63 56.3727 39.72ZM53.8527 39.45C53.8227 39.48 53.7927 39.51 53.7927 39.6C53.8527 39.57 53.8827 39.54 53.8527 39.45ZM53.6127 39.84C53.5527 39.93 53.4627 39.99 53.3727 40.11C53.5227 40.05 53.5827 39.96 53.6127 39.84ZM54.9927 41.52C55.0227 41.34 55.0227 41.16 55.2627 41.07C55.3227 41.04 55.3527 40.95 55.3227 40.86C55.2627 40.68 55.3227 40.5 55.3527 40.35C55.3827 40.32 55.3827 40.26 55.4427 40.26C55.4727 40.26 55.4727 40.32 55.5027 40.35C55.5927 40.44 55.5027 40.41 55.4727 40.44C55.4727 40.5 55.4427 40.5 55.4127 40.53C55.3827 40.59 55.3527 40.65 55.3827 40.71C55.4427 40.74 55.5027 40.68 55.5327 40.65C55.5627 40.65 55.5927 40.59 55.6827 40.62C55.7127 40.68 55.6527 40.77 55.6227 40.8C55.5027 40.92 55.4727 41.07 55.4427 41.25C55.4127 41.43 55.2327 41.55 54.9927 41.52ZM52.9527 40.65C53.1627 40.53 53.1927 40.44 53.2527 40.32C53.1027 40.41 53.0727 40.53 52.9527 40.65ZM55.9827 40.77C55.9227 40.77 55.8627 40.74 55.8627 40.68C55.8627 40.53 55.9227 40.44 56.0127 40.35C56.0127 40.47 55.9827 40.53 56.0427 40.65C56.1027 40.71 56.0427 40.74 55.9827 40.77ZM52.6827 41.01C52.7427 40.98 52.8327 40.95 52.8327 40.86C52.7427 40.89 52.6827 40.95 52.6827 41.01ZM55.8627 41.04C55.7727 41.16 55.7427 41.31 55.5927 41.43C55.6227 41.25 55.7127 41.16 55.7727 40.98C55.7727 40.95 55.8027 40.92 55.8327 40.95C55.8927 40.95 55.8927 41.01 55.8627 41.04ZM55.3527 42.39C55.3227 42.42 55.2627 42.45 55.2327 42.39C55.2327 42.39 55.2627 42.33 55.2927 42.33C55.3227 42.3 55.3227 42.36 55.3527 42.39C55.4127 42.39 55.4427 42.39 55.4427 42.48C55.4427 42.6 55.4427 42.69 55.2927 42.72C55.2327 42.6 55.3827 42.54 55.3527 42.39ZM54.8127 42.72C54.7827 42.72 54.7527 42.69 54.7527 42.69L54.8127 42.6C54.8427 42.63 54.8427 42.63 54.8427 42.69L54.8127 42.72ZM54.3627 43.38C54.3927 43.32 54.3327 43.2 54.4827 43.23C54.5427 43.23 54.5727 43.17 54.5427 43.14C54.4827 43.08 54.5427 43.05 54.6027 43.08C54.6327 43.08 54.6327 42.99 54.6927 43.05C54.7227 43.08 54.6927 43.11 54.6627 43.14V43.17C54.6927 43.38 54.5427 43.38 54.3627 43.38ZM78.2542 20.85L77.2342 20.31C76.7242 20.1 76.3042 19.71 75.7942 19.77C75.5242 19.83 75.2842 19.86 75.0442 19.95C74.9242 20.01 74.8342 19.95 74.7442 20.07C74.5942 20.28 74.3242 20.34 74.1142 20.4C73.6942 20.55 73.3042 20.79 73.0342 21.21C72.7942 21.6 72.3442 21.75 72.1342 22.02C71.8342 22.32 71.5042 22.47 71.3842 22.86C71.2942 22.98 71.2342 23.13 71.0842 23.22C70.8742 23.25 70.8442 23.37 70.6942 23.55C70.5742 23.67 70.5142 23.79 70.3642 23.85C70.2142 23.97 70.0942 24.15 70.0042 24.33C69.9742 24.63 69.7942 24.81 69.6142 25.05C69.4642 25.29 69.2542 25.59 69.0742 25.8L68.5642 26.73C68.2942 27.09 68.0242 27.54 67.7842 27.9C67.6942 28.08 67.5442 28.35 67.3942 28.5C67.3042 28.62 67.3342 28.77 67.2742 28.86C67.1242 29.13 66.9142 29.34 66.8842 29.64C66.8842 29.67 66.9142 29.73 66.8842 29.76C66.7042 29.67 66.6742 29.82 66.6142 29.91C66.4642 30.42 66.3442 30.6 66.2842 30.87C66.1942 31.11 66.1042 31.29 65.9842 31.5C65.9542 31.65 65.9242 31.77 65.8642 31.86C65.5942 32.16 65.3542 32.49 65.2342 32.82C65.0842 33.06 65.0242 33.33 64.9642 33.51C64.6942 33.84 64.5442 34.14 64.3942 34.53C64.3942 34.56 64.3942 34.65 64.3642 34.68C64.2442 34.77 64.1542 34.89 64.1842 35.07C64.2142 35.16 64.2142 35.22 64.1242 35.31C63.9742 35.43 63.9142 35.58 63.7942 35.76C63.5842 36.12 63.4642 36.63 63.1942 37.02C63.1942 37.05 63.1642 37.14 63.1942 37.17C63.2242 37.29 63.1942 37.29 63.1342 37.41C63.0742 37.44 62.9542 37.47 62.9842 37.59C63.0442 37.77 62.9242 37.92 62.8042 37.98C62.7142 38.1 62.5942 38.22 62.6242 38.4C62.6542 38.46 62.6242 38.49 62.5942 38.49C62.5042 38.52 62.4442 38.7 62.3842 38.79C62.2942 38.88 62.3242 39.03 62.2342 39.15C62.1142 39.42 61.9942 39.66 61.8442 39.84C61.6942 40.2 61.5142 40.56 61.3942 40.83C61.3342 41.13 61.2742 41.43 61.0642 41.7C61.0342 41.79 60.9442 41.88 60.8542 42.06C60.5842 42.72 60.4342 42.99 60.3442 43.29C60.2842 43.47 60.1942 43.68 60.1042 43.86C60.0142 43.95 60.0442 44.01 60.0742 44.07C60.2842 44.1 60.3442 44.31 60.3742 44.46C60.4342 44.76 60.7342 44.85 60.8542 45.06C60.9742 45.18 61.2142 45.12 61.3942 45.15C61.4542 45.15 61.4842 45.15 61.5442 45.12C61.5442 45.18 61.5742 45.21 61.6042 45.21C61.7542 45.24 61.9342 45.21 62.0842 45.15C62.3242 45.06 62.4742 44.97 62.7142 44.88C63.4642 44.61 63.6142 44.37 64.0642 43.98L66.0742 42.51C66.3742 42.24 66.7042 42.03 67.0042 41.82C67.4542 41.43 67.8442 41.1 68.2642 40.68C68.6542 40.29 69.1042 40.05 69.4342 39.6C69.4942 39.6 69.5842 39.51 69.6742 39.51C69.3442 39.84 70.8742 38.46 71.2042 38.22C71.3242 37.95 71.4742 37.68 71.7142 37.44C71.7442 37.35 71.8642 37.32 71.9842 37.14C72.3742 36.57 72.5842 36.33 72.7342 36.06C72.8542 35.88 72.9742 35.7 73.1242 35.52C73.2142 35.49 73.1842 35.4 73.1542 35.31C72.9742 35.25 73.6042 34.86 73.4242 34.83C73.1842 34.74 73.0642 34.92 72.9142 35.1C72.8242 35.34 72.7342 35.52 72.4942 35.73C72.3742 35.85 72.2542 36 72.1942 36.18C72.0142 36.54 71.8042 36.78 71.2642 37.41C70.9942 37.74 70.6942 37.98 70.3942 38.22C70.1242 38.55 69.8842 38.79 69.4942 39C69.3742 39.09 69.3442 39.3 69.1342 39.33C69.0442 39.36 68.9542 39.48 68.8642 39.66C68.7742 39.78 68.7142 39.87 68.5942 39.9C68.3842 40.02 68.2042 40.05 68.1142 40.2C67.9642 40.44 67.6942 40.53 67.5742 40.74C67.4242 40.92 67.2442 41.04 67.0642 41.07L66.0742 41.82C64.6042 42.63 63.5242 43.05 63.1642 43.23C62.8642 43.44 62.5642 43.62 62.2642 43.77C62.2942 43.71 62.3242 43.62 62.3242 43.56C62.4142 43.17 62.5942 42.87 62.9842 42.15L64.0942 39.78C64.1842 39.42 64.3042 39.12 64.3942 38.82C64.4542 38.7 64.4542 38.52 64.6042 38.43C64.6342 38.34 64.7242 38.22 64.7542 38.07C64.8442 37.77 65.0242 37.56 65.1142 37.26C65.2042 37.11 65.3242 36.99 65.3542 36.78C65.3842 36.54 65.5942 36.33 65.6242 36.09C65.6842 35.88 65.8642 35.79 65.7742 35.58C65.8942 35.55 65.9542 35.43 66.0142 35.34C66.1342 35.19 66.2242 35.01 66.2842 34.86C66.4042 34.77 66.4042 34.59 66.4942 34.47C66.7042 34.11 66.9742 33.75 67.0642 33.3C67.0942 33.12 67.1542 32.97 67.2442 32.79C67.3942 32.52 67.5742 32.19 67.6642 31.8C67.6642 31.77 67.6942 31.74 67.7242 31.68C67.8742 31.59 67.9942 31.41 68.1142 31.23C68.2042 30.99 68.2342 30.72 68.3842 30.57C68.6242 30.3 68.7742 30 68.8642 29.7C68.8342 29.73 68.8342 29.76 68.8042 29.76C68.8942 29.55 68.8642 29.31 69.1042 29.25L69.1642 29.22C69.2842 28.86 69.4642 28.59 69.6142 28.38C70.0042 27.87 70.2742 27.39 70.6942 26.97C70.7242 26.97 70.7542 26.94 70.7542 26.91C70.7542 26.73 70.8742 26.67 70.9642 26.58L70.9942 26.46C70.9942 26.16 71.2942 26.04 71.4442 25.86C71.7442 25.56 71.9842 25.26 72.2242 24.9C72.3142 24.78 72.4642 24.75 72.5542 24.63C72.8242 24.15 73.1842 23.85 73.6342 23.58C73.6942 23.46 73.8442 23.4 73.9642 23.25C74.1142 23.1 74.2942 22.89 74.5042 22.77C74.6542 22.62 74.8942 22.56 75.0742 22.35C75.3142 22.26 75.5542 22.05 75.7942 21.96C76.2742 21.75 77.8342 21.39 77.3242 21.39H77.2342C77.2642 21.39 77.2942 21.36 77.3242 21.36C77.5342 21.33 77.8342 21.42 77.9242 21.69C78.0142 21.84 78.2242 21.9 78.3742 21.87C78.5842 21.78 78.6142 21.6 78.6142 21.39C78.6142 21.21 78.4942 20.91 78.2542 20.85ZM69.1042 27.27C69.0742 27.21 69.0742 27.21 69.0742 27.18C69.0742 27.15 69.0742 27.09 69.1342 27.09C69.1342 27.09 69.1642 27.15 69.1642 27.18L69.1042 27.27ZM68.9242 28.53C68.9542 28.5 68.9842 28.47 69.0142 28.38C69.1042 28.53 69.0142 28.53 68.9242 28.53ZM67.7242 28.89C67.6942 28.92 67.6642 28.89 67.6942 28.83C67.6942 28.74 67.7242 28.71 67.8442 28.68C67.8442 28.77 67.8442 28.89 67.7242 28.89ZM68.0842 28.77C68.0842 28.89 68.0542 28.95 67.9942 28.98C67.9642 28.98 67.9642 28.95 67.9642 28.95C67.9642 28.83 68.0542 28.8 68.0842 28.77ZM68.1742 29.07C68.2042 29.07 68.2342 29.07 68.2342 29.13C68.2342 29.13 68.2042 29.16 68.1742 29.16C68.1142 29.16 68.1142 29.16 68.1142 29.07H68.1742ZM67.3342 29.31C67.3942 29.31 67.3942 29.34 67.3942 29.37C67.4242 29.4 67.3942 29.46 67.3642 29.4C67.3342 29.4 67.3342 29.37 67.2742 29.34C67.3042 29.34 67.3042 29.31 67.3342 29.31ZM68.0242 29.37C68.0542 29.34 68.0842 29.34 68.1142 29.4C68.1442 29.49 68.0542 29.55 67.9942 29.61H67.9642C67.9642 29.61 67.9642 29.64 67.9942 29.64H67.9642V29.61C67.9342 29.52 67.9642 29.46 68.0242 29.37ZM68.9542 29.4C68.9242 29.4 68.8942 29.49 68.8942 29.55C68.8942 29.61 68.8642 29.64 68.8642 29.7C68.9242 29.52 68.9842 29.4 68.9542 29.4ZM68.4442 29.43L68.4742 29.46C68.5042 29.55 68.4742 29.55 68.4142 29.58H68.3842V29.55C68.3542 29.58 68.3842 29.58 68.3842 29.58H68.3542L68.2942 29.55H68.3842C68.3542 29.46 68.3842 29.46 68.4442 29.43ZM67.1842 29.64H67.2442L67.1542 29.82C67.1542 29.76 67.1842 29.7 67.1842 29.64ZM68.2942 29.73C68.2942 29.79 68.2642 29.79 68.2042 29.79H68.1742C68.1742 29.73 68.1742 29.7 68.2642 29.7C68.2642 29.7 68.2942 29.7 68.2942 29.73ZM67.4842 29.79H67.5442L67.4542 29.94C67.4242 29.91 67.4242 29.88 67.4242 29.88C67.4242 29.82 67.4542 29.79 67.4842 29.79ZM67.5142 29.97H67.4842L67.5742 29.82V29.88C67.5742 29.91 67.5742 29.97 67.5142 29.97ZM67.7242 30.21C67.6942 30.15 67.6642 30.12 67.7242 30.12C67.7542 30.15 67.8142 30.12 67.8142 30.21C67.7542 30.21 67.7242 30.24 67.7242 30.21ZM67.9942 30.18V30.39C67.9942 30.39 67.9342 30.39 67.9342 30.36C67.9042 30.27 67.9642 30.24 67.9942 30.18ZM68.0842 31.05C68.0242 31.02 67.9942 30.99 67.9942 30.96L68.0242 30.93L67.9642 30.87V30.96L67.9042 30.87H67.9942L68.0242 30.93C68.0242 30.96 68.0542 31.02 68.0842 31.05C68.0842 30.93 68.1742 30.84 68.0542 30.75C68.0242 30.69 68.2342 30.57 68.1442 30.45H68.2042C68.3542 30.54 68.4142 30.45 68.5042 30.3L68.0842 31.05ZM67.3942 30.36C67.4242 30.36 67.4842 30.39 67.4842 30.39C67.5142 30.48 67.4542 30.51 67.4242 30.54C67.3942 30.48 67.3342 30.45 67.3942 30.36ZM67.0942 30.48L67.0042 30.66H66.9742C67.0042 30.57 66.9742 30.51 67.0942 30.48ZM67.7542 30.69C67.6942 30.78 67.6642 30.84 67.5442 30.87C67.5142 30.9 67.5142 30.9 67.4842 30.9C67.5142 30.87 67.5142 30.87 67.5442 30.87C67.5442 30.78 67.6342 30.72 67.6642 30.63C67.6642 30.54 67.6942 30.51 67.7542 30.51C67.8142 30.57 67.7842 30.63 67.7542 30.69ZM67.4842 30.54C67.5142 30.54 67.5442 30.6 67.5442 30.63C67.5442 30.69 67.5142 30.69 67.4842 30.69C67.4242 30.69 67.3942 30.66 67.3942 30.63C67.4242 30.6 67.4242 30.54 67.4842 30.54ZM67.5742 31.14C67.5742 31.14 67.5442 31.11 67.5442 31.02C67.5442 31.02 67.5742 30.99 67.6042 30.99C67.6342 30.99 67.6342 31.02 67.6342 31.05C67.6342 31.11 67.6342 31.14 67.5742 31.14ZM66.4342 31.5C66.3442 31.53 66.3142 31.53 66.2842 31.5C66.2242 31.47 66.2242 31.41 66.2842 31.35C66.3142 31.23 66.4342 31.14 66.5542 31.08C66.5242 31.23 66.5242 31.38 66.4342 31.5ZM67.3942 31.32C67.3942 31.53 67.3042 31.65 67.3042 31.77C67.3042 31.8 67.2142 31.8 67.1842 31.8C67.1542 31.77 67.1842 31.77 67.1842 31.71C67.1542 31.56 67.3042 31.47 67.3942 31.32C67.4242 31.29 67.4542 31.23 67.4842 31.23C67.4842 31.29 67.4542 31.29 67.3942 31.32ZM66.6742 31.32C66.6742 31.44 66.6742 31.5 66.5842 31.59C66.5542 31.5 66.5842 31.47 66.6742 31.32ZM66.9442 31.56C66.9442 31.68 66.9442 31.77 66.8242 31.83C66.7942 31.68 66.7942 31.59 66.9442 31.56ZM65.5342 33.33C65.5042 33.45 65.3242 33.51 65.2942 33.69C65.2942 33.84 65.1742 33.99 65.1442 34.2C65.1142 34.23 65.1142 34.35 65.0242 34.29C64.9642 34.26 64.9642 34.2 64.9342 34.11C64.9942 33.9 65.1442 33.81 65.2342 33.66C65.2642 33.57 65.3242 33.48 65.3842 33.42C65.4142 33.24 65.4442 33.12 65.2942 32.94C65.5042 33.06 65.5942 33 65.5942 32.79C65.5942 32.7 65.7142 32.67 65.7442 32.58C65.8942 32.34 65.9542 32.1 66.1042 31.86C66.1342 31.77 66.1642 31.74 66.2242 31.74C66.2242 31.92 66.1942 32.16 66.0442 32.37C65.8642 32.67 65.6842 32.94 65.5342 33.33ZM67.0942 31.92C67.0042 32.25 67.0342 32.58 66.7342 32.79H66.7042C66.7342 32.64 66.7342 32.46 66.8542 32.34C66.9742 32.25 66.9442 32.07 66.9442 31.95C66.9742 31.86 67.0042 31.86 67.0642 31.86C67.0942 31.83 67.1542 31.89 67.0942 31.92ZM66.7342 32.1C66.7342 32.19 66.6742 32.25 66.6442 32.25C66.6142 32.25 66.5842 32.22 66.5242 32.22C66.5842 32.13 66.6142 32.1 66.6442 32.1C66.6742 32.1 66.7342 32.07 66.7342 32.1ZM66.1342 32.61C66.0442 32.49 66.1342 32.43 66.1942 32.43L66.2242 32.49C66.2842 32.61 66.1942 32.55 66.1342 32.61ZM66.1342 33.3C66.0742 33.42 66.0742 33.57 65.9542 33.72C65.9242 33.78 65.9242 33.81 65.8942 33.84C65.8642 33.9 65.8342 33.9 65.8342 33.84C65.7742 33.81 65.7742 33.78 65.8342 33.78C66.0442 33.54 66.0442 33.15 66.2242 32.88C66.2842 32.85 66.3142 32.79 66.3442 32.76C66.3742 32.97 66.3142 33.18 66.1342 33.3ZM65.8042 33.3C65.8042 33.09 65.8942 33 65.9842 32.91C66.0142 33.06 65.8942 33.18 65.8042 33.3ZM66.7942 33.18C66.7342 33.27 66.6742 33.21 66.5842 33.15C66.5542 33.15 66.4942 33.12 66.4942 33.12C66.4942 32.97 66.5242 32.85 66.7342 32.97C66.7942 32.97 66.9142 32.91 66.9442 33C66.9742 33.09 66.8242 33.09 66.7942 33.18ZM66.4642 33.39C66.4042 33.42 66.4042 33.39 66.4042 33.36C66.3442 33.3 66.3442 33.27 66.3742 33.24C66.4642 33.21 66.4642 33.27 66.4642 33.33C66.4942 33.36 66.4942 33.39 66.4642 33.39ZM65.9242 34.35V34.44C65.8942 34.41 65.9242 34.35 65.9242 34.35C66.0142 34.23 65.9542 34.08 66.0742 33.99C66.0442 34.11 66.1342 34.29 65.9242 34.35ZM64.7542 34.44C64.7542 34.41 64.8142 34.38 64.8442 34.41C64.8742 34.41 64.9342 34.41 64.9342 34.5C64.8742 34.62 64.8742 34.71 64.7542 34.77C64.7542 34.8 64.7242 34.8 64.7242 34.77C64.6942 34.77 64.6942 34.77 64.6942 34.71C64.6942 34.65 64.7542 34.56 64.7542 34.44ZM64.5142 34.95C64.5442 34.98 64.6342 34.92 64.6942 35.01C64.7542 35.07 64.6942 35.13 64.6642 35.19C64.5742 35.28 64.5442 35.34 64.3942 35.4C64.4542 35.22 64.3942 35.07 64.5142 34.95ZM65.4142 35.22C65.5042 35.13 65.4742 34.98 65.5942 34.95C65.6242 35.1 65.5642 35.19 65.4142 35.22ZM64.8442 35.13C64.8142 35.25 64.7842 35.31 64.6942 35.37C64.7542 35.28 64.7542 35.16 64.8442 35.13ZM65.2942 35.85C65.2942 35.85 65.2342 35.97 65.1142 35.88C64.9942 35.85 64.9342 35.79 64.8442 35.79C64.8142 35.79 64.7842 35.7 64.8442 35.67C64.9342 35.58 64.9642 35.52 64.9642 35.43C64.9942 35.37 64.9942 35.28 65.0542 35.34C65.1142 35.37 65.0542 35.4 65.0542 35.43C65.0542 35.55 64.9942 35.7 65.0842 35.73C65.2042 35.79 65.2042 35.64 65.2342 35.55L65.3542 35.46C65.3842 35.61 65.2342 35.73 65.2942 35.85ZM64.5142 35.79C64.4842 35.73 64.5742 35.67 64.6342 35.55C64.6342 35.67 64.6342 35.76 64.6042 35.79C64.5742 35.82 64.5142 35.82 64.5142 35.79ZM64.1842 36.12C64.1242 36.18 64.0942 36.36 63.9742 36.12C64.0642 36.12 64.0942 36.12 64.0642 36.06C64.0642 36 64.0342 35.94 64.0942 35.97C64.1542 35.97 64.1842 35.94 64.2142 36C64.2742 36.03 64.2142 36.09 64.1842 36.12ZM64.4242 36.15C64.3942 36.15 64.3942 36.09 64.3942 36.09C64.3942 36.03 64.4242 36.03 64.4842 35.97C64.4842 36.03 64.4842 36.09 64.4242 36.15ZM64.5742 36.3C64.5742 36.21 64.6342 36.18 64.6942 36.15C64.6942 36.15 64.7242 36.15 64.7242 36.18C64.6942 36.21 64.6642 36.3 64.6342 36.3C64.5742 36.33 64.5442 36.3 64.5742 36.3ZM64.9042 36.66C64.8142 36.66 64.7842 36.6 64.7842 36.57C64.8142 36.51 64.8142 36.39 64.9342 36.39C64.9642 36.39 65.0542 36.36 65.0542 36.42C65.0542 36.51 64.9342 36.57 64.9042 36.66ZM64.0942 36.75C64.0642 36.66 64.0942 36.6 64.1842 36.51C64.1842 36.63 64.1242 36.72 64.0942 36.75ZM63.7642 36.66C63.8542 36.78 63.8542 36.9 63.7642 36.99C63.6442 36.84 63.7942 36.78 63.7642 36.66ZM64.8142 36.81C64.7242 36.9 64.7242 36.96 64.6642 37.08C64.6042 36.96 64.6642 36.84 64.6942 36.78C64.6942 36.72 64.6942 36.69 64.7842 36.72C64.8142 36.72 64.8742 36.78 64.8142 36.81ZM64.2442 37.08C64.2442 36.93 64.2442 36.93 64.3942 36.81C64.3642 36.93 64.3042 36.96 64.2442 37.08ZM63.7642 37.53C63.6742 37.41 63.7342 37.38 63.7942 37.35C63.8242 37.41 63.7942 37.44 63.7642 37.53ZM63.7942 38.04C63.7942 37.98 63.8242 37.89 63.8842 37.8C63.9442 37.98 63.8842 38.04 63.7942 38.04ZM63.0742 38.43C62.9842 38.34 63.0442 38.31 63.1042 38.19C63.1642 38.31 63.1042 38.37 63.0742 38.43ZM63.9442 38.52C63.7942 38.79 63.8542 39.15 63.7042 39.42C63.6442 39.54 63.5842 39.66 63.5242 39.57C63.4642 39.54 63.5242 39.42 63.5542 39.36C63.5842 39.15 63.7342 38.91 63.7342 38.67C63.7642 38.58 63.8242 38.52 63.9442 38.52C63.9442 38.49 63.7942 38.4 63.8842 38.37C63.8842 38.31 63.9742 38.28 63.9742 38.34C64.0342 38.4 63.9742 38.49 63.9442 38.52ZM77.7852 28.32C78.4752 27.84 80.3652 26.97 80.7252 26.61C80.9352 26.4 81.1752 26.22 81.4752 26.1C82.0152 25.92 82.3752 25.59 82.7052 25.29C83.2452 24.66 83.1252 24.21 82.5852 23.88C82.5252 23.76 82.2552 23.52 82.0452 23.58C81.8352 23.61 81.5952 23.7 81.3552 23.73C80.6052 23.88 79.1352 25.71 78.5652 26.1C77.9052 26.52 77.2152 27 77.1252 27.45C77.0352 27.99 77.5752 28.44 77.7852 28.32ZM79.4952 25.86C79.4952 25.26 80.0652 25.14 80.4252 24.93C80.6052 24.75 80.8452 24.54 81.2052 24.6C81.2052 24.6 81.2652 24.57 81.2052 24.51C81.1752 24.48 81.2052 24.36 81.0252 24.36C81.2052 24.21 81.2652 24.06 81.4152 24.18C81.4752 24.24 81.5352 24.21 81.5352 24.15C81.5652 24.03 81.6852 24.06 81.7152 24.15C81.8952 24.36 82.0452 24.24 82.1352 24.15L82.2552 24.09C82.2252 24.15 82.1952 24.12 82.1352 24.15C82.0152 24.39 81.7452 24.51 81.5352 24.63C80.9952 24.99 80.4252 25.23 79.9452 25.65C79.8252 25.8 79.6752 25.86 79.4952 25.86ZM71.2452 45.06C71.3952 45.12 71.6352 45.3 71.7852 45.06C71.8152 45.03 71.8452 45.06 71.8752 45.06C72.2352 45.3 72.5652 45.15 72.9252 45.06C73.0152 45.03 73.1352 44.97 73.2552 44.97C73.6152 44.97 73.9752 44.82 74.3052 44.61C74.4552 44.52 74.5752 44.4 74.7252 44.46C74.9052 44.49 74.9952 44.43 75.1452 44.34C75.3552 44.22 75.5652 44.07 75.8052 43.95C76.0752 43.8 76.3152 43.56 76.5552 43.44L76.6752 43.32C76.8852 43.05 77.1552 42.84 77.4252 42.66L77.6952 42.51C77.8452 42.36 77.9352 42.24 78.1152 42.09C78.4452 41.88 78.6852 41.58 78.9552 40.86L79.4952 40.35L79.8252 40.02C80.0052 39.84 80.2152 39.72 80.3052 39.45C80.3052 39.45 80.3052 39.42 80.3652 39.45C80.6052 39.42 80.6952 39.21 80.8752 39.09C80.7852 39.06 80.7552 38.97 80.6652 39.03C80.4552 39.18 80.1552 39.36 79.9452 39.54C79.6452 39.78 79.3752 40.05 79.1052 40.32C78.8652 40.65 78.5052 41.31 78.1752 41.58C77.9952 41.73 77.8752 41.82 77.6352 41.73C77.7552 41.91 77.5452 42 77.4852 42.12C77.3652 42.27 77.1252 42.33 77.0052 42.3C76.6452 42.21 76.5552 42.27 76.4052 42.63C76.3452 42.75 76.3452 42.81 76.4052 42.87C76.5852 42.99 76.5252 43.11 76.3752 43.17C76.0752 43.2 75.9252 43.53 75.6252 43.59H75.5952C75.5052 43.74 75.2952 43.74 75.1152 43.83C75.0552 43.86 74.9652 43.86 74.9952 43.74C75.2352 43.71 75.0852 43.62 74.9952 43.53C75.0852 43.47 75.2052 43.53 75.2052 43.5C75.1752 43.32 75.3852 43.2 75.2952 43.05C75.2352 43.14 75.1152 43.05 75.0252 43.11C74.9052 43.17 74.7552 43.26 74.6352 43.29C74.3652 43.41 74.0952 43.41 73.7952 43.56C73.5252 43.68 73.2252 43.83 72.9252 43.89C72.5952 43.95 72.2652 44.13 71.9352 44.13C71.5152 44.16 71.0652 44.07 70.6452 43.89C70.5552 43.8 70.3452 43.68 70.3152 43.62C70.3152 43.44 70.2252 43.35 70.1652 43.26C70.1052 43.2 70.0752 43.08 70.0152 42.99C69.9552 42.87 69.9852 42.72 69.8952 42.6C69.8352 42.54 69.7752 42.51 69.8352 42.42C69.8652 42.42 69.8652 42.33 69.8652 42.3C69.8652 42.18 69.7752 42.06 69.8952 41.94C69.8952 41.91 69.8952 41.82 69.8352 41.79C69.8052 41.76 69.7752 41.76 69.7752 41.73C69.8652 41.58 69.8652 41.4 69.8952 41.25C69.9252 41.13 69.9252 40.92 70.0452 40.83C70.0752 40.8 70.0452 40.74 70.0452 40.74C69.8652 40.65 70.0452 40.59 70.0752 40.53C70.1352 40.5 70.1952 40.41 70.2552 40.32C70.2552 40.17 70.3152 40.02 70.4052 39.84C70.4652 39.72 70.5552 39.6 70.5852 39.45C70.6152 39.36 70.4352 39.45 70.3452 39.36V39.33C70.4652 39.24 70.5552 38.76 70.6752 38.79C70.7352 38.79 70.7952 38.79 70.8252 38.7C70.8852 38.64 70.9152 38.61 70.9152 38.55C70.8552 38.43 70.7652 38.46 70.7052 38.4C71.0052 38.43 71.0052 38.43 71.1252 38.22C71.2152 37.98 71.3352 37.77 71.5152 37.59C71.8452 36.84 71.8452 36.81 71.8752 36.81C71.9652 36.57 72.1152 36.36 72.2952 36.15C72.3252 36.06 72.4152 36 72.2952 35.91C72.2352 35.88 72.2052 35.79 72.3252 35.79C72.5352 35.79 72.6852 35.7 72.8352 35.67C72.9552 35.61 73.0752 35.64 73.1952 35.7C73.2852 35.76 73.4352 35.76 73.4952 35.7C73.6152 35.64 73.7352 35.67 73.8552 35.64C73.9752 35.61 74.1252 35.67 74.2152 35.67C74.6052 35.67 75.5352 35.64 75.8952 35.67C76.0152 35.67 76.1652 35.7 76.2852 35.64C76.4952 35.46 76.7652 35.49 77.0052 35.46C77.3052 35.43 77.6352 35.46 77.9052 35.28C77.5452 35.37 77.1852 35.22 76.8252 35.19C76.4652 35.16 76.1352 35.16 75.7752 35.04C75.9252 34.92 76.0452 34.95 76.1352 34.77C76.1352 34.68 76.1952 34.68 76.2852 34.68C76.5552 34.68 76.7652 34.44 76.9152 34.29C77.0652 34.11 77.2752 34.05 77.4252 33.84L77.6352 33.75C77.6652 33.69 77.7252 33.66 77.7252 33.75C77.7552 33.78 77.7852 33.81 77.7852 33.84C77.8452 33.69 77.9652 33.54 78.1752 33.48C78.1452 33.48 78.1452 33.48 78.1152 33.45C78.0552 33.33 78.0852 33.24 78.2652 33.18C78.3552 33.15 78.4152 33.12 78.4752 33.03C78.6852 32.73 78.9252 32.4 79.0152 32.07C79.1052 31.74 78.6252 31.35 78.3852 31.08C78.3252 31.02 78.3252 30.99 78.3552 30.93C78.2652 30.93 78.2352 30.9 78.1452 30.87C77.9952 30.81 77.8452 30.69 77.8152 30.51C77.8152 30.54 77.7852 30.54 77.7852 30.57C77.7252 30.66 77.6652 30.69 77.5752 30.63C77.3652 30.48 77.0352 30.51 76.7652 30.42C76.2852 30.27 75.8052 30.39 75.3552 30.48C75.3252 30.45 75.2652 30.48 75.2652 30.48C74.9352 30.66 74.6352 30.87 74.3652 31.11C74.1552 31.32 73.9152 31.44 73.7352 31.62C73.5552 31.89 73.3152 32.07 73.1352 32.31C72.8052 32.7 72.4152 33.06 72.1152 33.45C71.7252 33.93 71.2452 34.35 71.0352 34.92C71.0352 34.95 71.0352 34.98 71.0052 34.98C70.8852 35.04 70.8252 35.13 70.7952 35.22C70.7352 35.49 70.5252 35.7 70.3452 35.91C70.0452 36.3 69.8952 36.81 69.2952 37.89C69.2652 37.92 69.2652 37.98 69.2352 38.04C69.0852 38.28 69.0852 39.09 68.8452 39.33V39.36C68.6952 39.78 68.6052 40.14 68.5452 40.53C68.4852 40.95 68.3352 41.4 68.6052 41.85C68.6952 41.97 68.6652 42.18 68.7252 42.33C68.9352 43.05 69.2952 43.71 69.8652 44.25C70.2552 44.64 70.7052 44.91 71.2452 45.06ZM73.9752 34.74C73.8852 34.8 73.7952 34.71 73.6752 34.71C73.6752 34.65 73.6452 34.65 73.6452 34.59C73.6752 34.5 73.7052 34.5 73.7352 34.44C73.8552 34.35 73.9452 34.26 73.8852 34.11C73.8852 34.08 73.8852 34.02 73.9452 34.02C74.1552 34.08 74.2152 33.93 74.3052 33.81C74.4552 33.63 74.6952 33.51 74.8752 33.36C75.0552 33.18 75.2652 33.03 75.4152 32.82C75.6852 32.43 76.0752 32.25 76.4652 32.04C76.6152 31.95 76.7052 31.86 76.7952 31.74C76.8852 31.68 76.9452 31.65 77.0052 31.74C77.3652 31.5 77.6652 31.92 77.6052 32.04C77.4252 32.43 77.0352 32.73 76.7652 33.06C76.6152 33.18 76.4352 33.3 76.3152 33.45L75.8052 33.93C75.3852 34.23 74.4252 34.47 73.9752 34.74ZM80.4552 37.83C80.6052 37.8 80.6952 37.71 80.7552 37.65C80.6352 37.65 80.5752 37.71 80.4552 37.83ZM80.2152 38.07C80.3352 38.04 80.3652 38.01 80.3952 37.89L80.2152 38.07ZM80.1252 38.37C80.2152 38.4 80.2452 38.37 80.3052 38.28C80.2152 38.34 80.1552 38.34 80.1252 38.37ZM79.9452 38.67C80.0352 38.58 80.2752 38.58 80.1252 38.37C80.0652 38.46 79.9452 38.49 79.9452 38.67ZM80.7852 38.85C80.7852 38.85 80.8452 38.88 80.8452 38.85C80.9052 38.82 80.9052 38.76 80.9052 38.7C80.8152 38.73 80.7852 38.76 80.7852 38.85ZM79.4652 38.97C79.5852 38.97 79.7352 38.97 79.7352 38.73C79.6752 38.85 79.4952 38.88 79.4652 38.97ZM79.2552 38.97C79.3452 39 79.3752 38.97 79.4652 38.85L79.2552 38.97ZM79.0152 39.45C79.0452 39.48 79.1052 39.45 79.1352 39.39C79.1652 39.39 79.1652 39.36 79.1952 39.33H79.1652C79.1952 39.33 79.2252 39.33 79.1952 39.27C79.1652 39.24 79.1352 39.27 79.1352 39.3C79.1352 39.33 79.1052 39.33 79.0752 39.36C79.0452 39.39 79.0152 39.39 79.0152 39.45ZM77.8452 40.89C77.9952 40.86 78.0552 40.68 78.2052 40.59C78.1452 40.59 78.0552 40.65 77.9952 40.65C77.8752 40.65 77.7852 40.68 77.7552 40.8C77.7852 40.83 77.7852 40.89 77.8452 40.89ZM75.7152 42.36C75.9552 42.3 76.1352 42.12 76.3452 42C76.6452 41.82 76.9452 41.64 77.2152 41.43C77.4252 41.28 77.6352 41.13 77.7852 40.95C77.6352 40.92 77.7552 40.86 77.7552 40.8C77.6052 40.77 77.4852 40.92 77.4552 41.04C77.3352 41.25 77.1552 41.37 76.9452 41.46C76.6452 41.61 76.3752 41.76 76.1052 41.97C76.0152 42.06 75.8952 42.18 75.7752 42.21C75.7152 42.24 75.6852 42.27 75.7152 42.36ZM75.6852 42.78C75.7452 42.75 75.7152 42.69 75.6552 42.69C75.4752 42.63 75.5652 42.51 75.7152 42.42C75.4752 42.45 75.3552 42.57 75.2352 42.69C75.3552 42.72 75.5352 42.63 75.6252 42.75C75.6552 42.78 75.6552 42.84 75.6852 42.78ZM75.0552 42.96C75.0852 42.84 75.2352 42.81 75.2352 42.69C75.1452 42.69 75.0552 42.75 74.9952 42.81C74.9652 42.84 74.9052 42.9 74.9352 42.93L75.0552 42.96ZM74.6652 43.05C74.7252 43.08 74.8152 43.08 74.8152 42.99C74.7252 42.99 74.6952 43.02 74.6652 43.05Z" fill="#FAFAFC"/>
</svg>
