<svg width="18" height="18" viewBox="0 0 18 18" fill="none" xmlns="http://www.w3.org/2000/svg">
<path d="M6.75009 16.5H11.2501C15.0001 16.5 16.5001 15 16.5001 11.25V6.74998C16.5001 2.99998 15.0001 1.49998 11.2501 1.49998H6.75009C3.00009 1.49998 1.50009 2.99998 1.50009 6.74998V11.25C1.50009 15 3.00009 16.5 6.75009 16.5Z" stroke="#292D32" stroke-width="1.5" stroke-linecap="round" stroke-linejoin="round"/>
<path d="M6.74991 7.5C7.57834 7.5 8.24991 6.82843 8.24991 6C8.24991 5.17157 7.57834 4.5 6.74991 4.5C5.92148 4.5 5.24991 5.17157 5.24991 6C5.24991 6.82843 5.92148 7.5 6.74991 7.5Z" stroke="#292D32" stroke-width="1.5" stroke-linecap="round" stroke-linejoin="round"/>
<path d="M2.00201 14.2125L5.69951 11.73C6.29201 11.3325 7.14701 11.3775 7.67951 11.835L7.92701 12.0525C8.51201 12.555 9.45701 12.555 10.042 12.0525L13.162 9.37498C13.747 8.87248 14.692 8.87248 15.277 9.37498L16.4995 10.425" stroke="#292D32" stroke-width="1.5" stroke-linecap="round" stroke-linejoin="round"/>
</svg>
