<svg width="24" height="24" viewBox="0 0 24 24" fill="none" xmlns="http://www.w3.org/2000/svg">
<path fill-rule="evenodd" clip-rule="evenodd" d="M24 12C24 5.373 18.6277 0 12 0C5.37225 0 0 5.37308 0 12C0 18.627 5.37217 24 12 24C18.6277 24 24 18.6271 24 12ZM9.00905 16.488H6.76203V8.99844H9.00905V16.488ZM12.7576 10.0163C13.4498 9.13726 14.4255 8.73902 15.5161 8.73902C16.6073 8.73902 18.0053 9.28349 18.0054 12.2363V16.4873H15.7584V12.4035C15.7584 11.5658 15.5153 10.728 14.5298 10.728C13.5444 10.728 12.7576 11.5658 12.7576 12.4245V16.488H10.5023V8.97381H12.7576V10.0163ZM9.00007 7.12495C9.00007 7.74596 8.49604 8.24999 7.87503 8.24999C7.25402 8.24999 6.75 7.74604 6.75 7.12503C6.75 6.50402 7.25402 6 7.87503 6C8.49604 6 9.00007 6.50394 9.00007 7.12495Z" fill="#FAFAFC"/>
</svg>
