<svg width="22" height="22" viewBox="0 0 22 22" fill="none" xmlns="http://www.w3.org/2000/svg">
<path d="M21.3125 15.125C20.933 15.125 20.625 15.433 20.625 15.8125V20.625H1.375V15.8125C1.375 15.433 1.067 15.125 0.6875 15.125C0.308 15.125 0 15.433 0 15.8125V21.3125C0 21.692 0.308 22 0.6875 22H21.3125C21.692 22 22 21.692 22 21.3125V15.8125C22 15.433 21.692 15.125 21.3125 15.125Z" fill="white"/>
<path d="M10.4982 16.2986C10.7656 16.5632 11.2132 16.566 11.4806 16.2986L16.2924 11.5548C16.564 11.286 16.5633 10.8508 16.2924 10.5827C16.0216 10.3139 15.5816 10.3139 15.3107 10.5827L11.6841 14.1577V0.6875C11.6841 0.308 11.3734 0 10.9898 0C10.6061 0 10.2954 0.308 10.2954 0.6875V14.1577L6.66882 10.5827C6.39726 10.3139 5.95795 10.3139 5.68707 10.5827C5.41551 10.8515 5.41551 11.2867 5.68707 11.5548L10.4982 16.2986Z" fill="white"/>
</svg>
