<svg xmlns="http://www.w3.org/2000/svg" width="27" height="27" viewBox="0 0 27 27">
  <path id="Icon_awesome-baby-carriage" data-name="Icon awesome-baby-carriage" d="M7.636.9A1.98,1.98,0,0,0,4.788.4,12.426,12.426,0,0,0,0,10.124H13.5Zm18.52,4.166H23.625A3.378,3.378,0,0,0,20.25,8.437v3.375H0A9.351,9.351,0,0,0,3.18,18.7,4.213,4.213,0,1,0,8.438,22.78a4.261,4.261,0,0,0-.232-1.329,13.652,13.652,0,0,0,7.214,0,4.114,4.114,0,0,0-.232,1.329A4.219,4.219,0,1,0,20.445,18.7a9.351,9.351,0,0,0,3.18-6.892V8.437h2.531A.846.846,0,0,0,27,7.593V5.906A.846.846,0,0,0,26.156,5.062ZM4.219,24.468A1.687,1.687,0,1,1,5.906,22.78,1.692,1.692,0,0,1,4.219,24.468ZM21.094,22.78a1.688,1.688,0,1,1-1.687-1.687A1.692,1.692,0,0,1,21.094,22.78Z" transform="translate(0 0.001)"/>
</svg>
