<svg width="19" height="21" viewBox="0 0 19 21" fill="none" xmlns="http://www.w3.org/2000/svg">
<g clip-path="url(#clip0_2265_6256)">
<path d="M18.8889 10.7297C18.8889 10.0499 18.8358 9.3665 18.7225 8.69775H9.63385V12.5486H14.8385C14.6225 13.7905 13.9286 14.8892 12.9124 15.5873V18.086H16.0175C17.8409 16.3443 18.8889 13.7722 18.8889 10.7297Z" fill="#4285F4"/>
<path d="M9.63384 20.4998C12.2326 20.4998 14.4242 19.6143 16.021 18.0857L12.9159 15.5871C12.052 16.197 10.9368 16.5424 9.63738 16.5424C7.12358 16.5424 4.99216 14.7824 4.2274 12.416H1.02319V14.9918C2.65893 18.3686 5.9906 20.4998 9.63384 20.4998Z" fill="#34A853"/>
<path d="M4.22395 12.4163C3.82033 11.1743 3.82033 9.82947 4.22395 8.5875V6.01172H1.02328C-0.343373 8.83737 -0.343373 12.1664 1.02328 14.9921L4.22395 12.4163Z" fill="#FBBC04"/>
<path d="M9.63384 4.45756C11.0076 4.43552 12.3353 4.97198 13.3302 5.95674L16.0812 3.10169C14.3392 1.4041 12.0273 0.47079 9.63384 0.500186C5.9906 0.500186 2.65893 2.63136 1.02319 6.01185L4.22386 8.58764C4.98508 6.21762 7.12004 4.45756 9.63384 4.45756Z" fill="#EA4335"/>
</g>
<defs>
<clipPath id="clip0_2265_6256">
<rect width="18.8889" height="20" fill="white" transform="translate(0 0.5)"/>
</clipPath>
</defs>
</svg>
