<svg xmlns="http://www.w3.org/2000/svg" width="114.462" height="124" viewBox="0 0 114.462 124">
  <path id="Icon_ionic-md-flower" data-name="Icon ionic-md-flower" d="M106.174,65.375a22.068,22.068,0,0,0-9.568-42.088,22.447,22.447,0,0,0-12.7,3.9l.179-1.669a22.357,22.357,0,0,0-44.712,0l.179,1.669A22.414,22.414,0,0,0,4.5,45.434,22.08,22.08,0,0,0,17.288,65.375a22.068,22.068,0,0,0,9.568,42.088,22.447,22.447,0,0,0,12.7-3.9l-.179,1.669a22.357,22.357,0,0,0,44.712,0l-.179-1.669a22.191,22.191,0,1,0,22.266-38.184ZM61.731,87.522A22.148,22.148,0,1,1,84.087,65.375,22.263,22.263,0,0,1,61.731,87.522Z" transform="translate(-4.5 -3.375)"/>
</svg>
