<svg xmlns="http://www.w3.org/2000/svg" width="33.25" height="36" viewBox="0 0 33.25 36">
  <path id="Icon_awesome-book-reader" data-name="Icon awesome-book-reader" d="M22.859,6.75A6.507,6.507,0,0,0,16.625,0,6.507,6.507,0,0,0,10.39,6.75a6.507,6.507,0,0,0,6.234,6.75A6.507,6.507,0,0,0,22.859,6.75Zm-7.69,10.2C11.316,14.4,5.076,13.7,1.935,13.5A1.86,1.86,0,0,0,0,15.408V31.074a1.869,1.869,0,0,0,1.72,1.9c2.835.161,8.571.751,12.536,2.913a.906.906,0,0,0,1.33-.835v-17.3a.955.955,0,0,0-.417-.806ZM31.314,13.5c-3.14.193-9.381.9-13.234,3.449a.974.974,0,0,0-.416.818V35.052A.909.909,0,0,0,19,35.889c3.964-2.16,9.7-2.75,12.531-2.911a1.871,1.871,0,0,0,1.72-1.9V15.408A1.861,1.861,0,0,0,31.314,13.5Z"/>
</svg>
