<svg xmlns="http://www.w3.org/2000/svg" width="27" height="27" viewBox="0 0 27 27">
  <path id="Icon_awesome-socks" data-name="Icon awesome-socks" d="M11.32,16.4l3.868-2.9V5.062H6.75v9.281L2.181,17.751a5.218,5.218,0,0,0-1.54,6.7A5.1,5.1,0,0,0,5.067,27,5.041,5.041,0,0,0,8.1,25.987l1.153-.864A6.875,6.875,0,0,1,11.32,16.4ZM15.188,1.687a3.333,3.333,0,0,1,.423-1.6A1.615,1.615,0,0,0,15.188,0H8.438A1.688,1.688,0,0,0,6.75,1.687V3.375h8.438ZM25.313,0h-6.75a1.688,1.688,0,0,0-1.688,1.687V3.375H27V1.687A1.688,1.688,0,0,0,25.313,0ZM16.875,14.344l-4.542,3.407a5.218,5.218,0,0,0-1.54,6.7,5.063,5.063,0,0,0,7.432,1.536L24.3,21.431a6.75,6.75,0,0,0,2.7-5.4V5.062H16.875Z" transform="translate(0)"/>
</svg>
