<svg width="49" height="49" viewBox="0 0 49 49" fill="none" xmlns="http://www.w3.org/2000/svg">
<path d="M24.5 37.2808C25.4998 37.2808 26.3103 36.4703 26.3103 35.4706C26.3103 34.4708 25.4998 33.6603 24.5 33.6603C23.5002 33.6603 22.6898 34.4708 22.6898 35.4706C22.6898 36.4703 23.5002 37.2808 24.5 37.2808Z" fill="#FF3B3B"/>
<path d="M24.5 30.7746C24.139 30.7746 23.7928 30.6312 23.5376 30.376C23.2823 30.1207 23.1389 29.7745 23.1389 29.4135V13.0802C23.1389 12.7192 23.2823 12.373 23.5376 12.1177C23.7928 11.8625 24.139 11.7191 24.5 11.7191C24.861 11.7191 25.2072 11.8625 25.4625 12.1177C25.7177 12.373 25.8611 12.7192 25.8611 13.0802V29.4135C25.8611 29.7745 25.7177 30.1207 25.4625 30.376C25.2072 30.6312 24.861 30.7746 24.5 30.7746Z" fill="#FF3B3B"/>
<path d="M24.5 46.2778C20.1928 46.2778 15.9823 45.0005 12.4009 42.6075C8.81959 40.2146 6.02828 36.8134 4.37997 32.834C2.73166 28.8546 2.30039 24.4758 3.14069 20.2514C3.98099 16.0269 6.05513 12.1464 9.1008 9.10077C12.1465 6.0551 16.0269 3.98096 20.2514 3.14066C24.4759 2.30036 28.8546 2.73163 32.834 4.37994C36.8134 6.02825 40.2146 8.81956 42.6076 12.4009C45.0006 15.9822 46.2778 20.1927 46.2778 24.5C46.2778 30.2758 43.9834 35.8151 39.8992 39.8992C35.8151 43.9833 30.2758 46.2778 24.5 46.2778V46.2778ZM24.5 5.44443C20.7312 5.44443 17.047 6.56202 13.9133 8.65587C10.7796 10.7497 8.33725 13.7258 6.89498 17.2077C5.45271 20.6897 5.07535 24.5211 5.81061 28.2175C6.54587 31.914 8.36074 35.3093 11.0257 37.9743C13.6907 40.6393 17.086 42.4541 20.7825 43.1894C24.4789 43.9247 28.3103 43.5473 31.7923 42.105C35.2742 40.6628 38.2503 38.2204 40.3441 35.0867C42.438 31.953 43.5556 28.2688 43.5556 24.5C43.5556 19.4461 41.5479 14.5993 37.9743 11.0257C34.4007 7.45206 29.5539 5.44443 24.5 5.44443V5.44443Z" fill="#FF3B3B"/>
</svg>
