<svg xmlns="http://www.w3.org/2000/svg" width="23.625" height="27" viewBox="0 0 23.625 27">
  <path id="Icon_awesome-apple-alt" data-name="Icon awesome-apple-alt" d="M18.5,6.8a5.167,5.167,0,0,1,3.371,2.215,9.883,9.883,0,0,1,1.58,4.113,13.115,13.115,0,0,1-.053,4.535,14.25,14.25,0,0,1-2.528,6.275A6.831,6.831,0,0,1,15.183,27a4,4,0,0,1-1.844-.527,2.977,2.977,0,0,0-3.055,0A4,4,0,0,1,8.44,27a6.831,6.831,0,0,1-5.688-3.059A14.25,14.25,0,0,1,.224,17.666a13.115,13.115,0,0,1-.053-4.535,9.883,9.883,0,0,1,1.58-4.113A5.167,5.167,0,0,1,5.122,6.8,8.8,8.8,0,0,1,8.6,7.172a14.6,14.6,0,0,1,3.213,1.266,14.6,14.6,0,0,1,3.213-1.266A8.8,8.8,0,0,1,18.5,6.8ZM15.6,4.641a4.459,4.459,0,0,1-1.949,1,6.154,6.154,0,0,1-1.844.264l-.79-.053a6.767,6.767,0,0,1,0-1.687,4.7,4.7,0,0,1,1.211-2.9,4.459,4.459,0,0,1,1.949-1A6.154,6.154,0,0,1,16.026,0l.79.053.053.791a6.185,6.185,0,0,1-.263,1.846,4.458,4.458,0,0,1-1,1.951Z" transform="translate(0.001)"/>
</svg>
