<svg width="49" height="49" viewBox="0 0 49 49" fill="none" xmlns="http://www.w3.org/2000/svg">
<path d="M24.5 2.72223C20.1928 2.72223 15.9823 3.99947 12.4009 6.39245C8.81959 8.78542 6.02828 12.1866 4.37997 16.166C2.73166 20.1454 2.30039 24.5242 3.14069 28.7486C3.98099 32.9731 6.05513 36.8535 9.1008 39.8992C12.1465 42.9449 16.0269 45.019 20.2514 45.8593C24.4759 46.6996 28.8546 46.2684 32.834 44.62C36.8134 42.9717 40.2146 40.1804 42.6076 36.5991C45.0006 33.0178 46.2778 28.8072 46.2778 24.5C46.2778 18.7242 43.9834 13.1849 39.8992 9.10079C35.8151 5.01667 30.2758 2.72223 24.5 2.72223ZM24.5 43.5556C20.7312 43.5556 17.047 42.438 13.9133 40.3441C10.7796 38.2503 8.33725 35.2742 6.89498 31.7923C5.45271 28.3103 5.07535 24.4789 5.81061 20.7825C6.54587 17.086 8.36074 13.6907 11.0257 11.0257C13.6907 8.36073 17.086 6.54586 20.7825 5.8106C24.4789 5.07534 28.3103 5.4527 31.7923 6.89497C35.2742 8.33724 38.2503 10.7796 40.3441 13.9133C42.438 17.047 43.5556 20.7312 43.5556 24.5C43.5556 29.5539 41.5479 34.4007 37.9743 37.9743C34.4007 41.5479 29.5539 43.5556 24.5 43.5556Z" fill="#06C270"/>
<path d="M38.1111 16.4694C37.8561 16.2159 37.5111 16.0736 37.1516 16.0736C36.792 16.0736 36.447 16.2159 36.192 16.4694L21.0836 31.5096L12.917 23.343C12.6679 23.074 12.3222 22.9151 11.9559 22.901C11.5896 22.887 11.2327 23.019 10.9638 23.2681C10.6948 23.5172 10.5359 23.8629 10.5218 24.2292C10.5078 24.5955 10.6398 24.9524 10.8889 25.2213L21.0836 35.3888L38.1111 18.4021C38.2387 18.2756 38.34 18.1251 38.4091 17.9592C38.4782 17.7933 38.5138 17.6154 38.5138 17.4358C38.5138 17.2561 38.4782 17.0782 38.4091 16.9123C38.34 16.7464 38.2387 16.5959 38.1111 16.4694Z" fill="#06C270"/>
</svg>
