<svg width="26" height="26" viewBox="0 0 26 26" fill="none" xmlns="http://www.w3.org/2000/svg">
<circle cx="13" cy="13" r="12.5" stroke="#080808"/>
<path d="M19.0465 8.48665C17.9732 8.37998 16.8998 8.29998 15.8198 8.23998V8.23331L15.6732 7.36665C15.5732 6.75331 15.4265 5.83331 13.8665 5.83331H12.1198C10.5665 5.83331 10.4198 6.71331 10.3132 7.35998L10.1732 8.21331C9.55315 8.25331 8.93315 8.29331 8.31315 8.35331L6.95315 8.48665C6.67315 8.51331 6.47315 8.75998 6.49982 9.03331C6.52649 9.30665 6.76649 9.50665 7.04649 9.47998L8.40649 9.34665C11.8998 8.99998 15.4198 9.13331 18.9532 9.48665C18.9732 9.48665 18.9865 9.48665 19.0065 9.48665C19.2598 9.48665 19.4798 9.29331 19.5065 9.03331C19.5265 8.75998 19.3265 8.51331 19.0465 8.48665Z" fill="#080808"/>
<path d="M17.8198 10.4267C17.6598 10.26 17.4398 10.1667 17.2131 10.1667H8.78646C8.55979 10.1667 8.33313 10.26 8.17979 10.4267C8.02646 10.5934 7.93979 10.82 7.95313 11.0534L8.36646 17.8934C8.43979 18.9067 8.53313 20.1734 10.8598 20.1734H15.1398C17.4665 20.1734 17.5598 18.9134 17.6331 17.8934L18.0465 11.06C18.0598 10.82 17.9731 10.5934 17.8198 10.4267ZM14.1065 16.8334H11.8865C11.6131 16.8334 11.3865 16.6067 11.3865 16.3334C11.3865 16.06 11.6131 15.8334 11.8865 15.8334H14.1065C14.3798 15.8334 14.6065 16.06 14.6065 16.3334C14.6065 16.6067 14.3798 16.8334 14.1065 16.8334ZM14.6665 14.1667H11.3331C11.0598 14.1667 10.8331 13.94 10.8331 13.6667C10.8331 13.3934 11.0598 13.1667 11.3331 13.1667H14.6665C14.9398 13.1667 15.1665 13.3934 15.1665 13.6667C15.1665 13.94 14.9398 14.1667 14.6665 14.1667Z" fill="#080808"/>
</svg>
