<svg width="26" height="26" viewBox="0 0 26 26" fill="none" xmlns="http://www.w3.org/2000/svg">
<circle cx="13" cy="13" r="12.5" stroke="#080808"/>
<path d="M18.4 19H7.60002C7.35402 19 7.15002 18.796 7.15002 18.55C7.15002 18.304 7.35402 18.1 7.60002 18.1H18.4C18.646 18.1 18.85 18.304 18.85 18.55C18.85 18.796 18.646 19 18.4 19Z" fill="#080808"/>
<path d="M17.212 7.88801C16.048 6.72401 14.908 6.69401 13.714 7.88801L12.988 8.61401C12.928 8.67401 12.904 8.77001 12.928 8.85401C13.384 10.444 14.656 11.716 16.246 12.172C16.27 12.178 16.294 12.184 16.318 12.184C16.384 12.184 16.444 12.16 16.492 12.112L17.212 11.386C17.806 10.798 18.094 10.228 18.094 9.65201C18.1 9.05801 17.812 8.48201 17.212 7.88801Z" fill="#080808"/>
<path d="M15.1659 12.718C14.9919 12.634 14.8239 12.55 14.6619 12.454C14.5299 12.376 14.4039 12.292 14.2779 12.202C14.1759 12.136 14.0559 12.04 13.9419 11.944C13.9299 11.938 13.8879 11.902 13.8399 11.854C13.6419 11.686 13.4199 11.47 13.2219 11.23C13.2039 11.218 13.1739 11.176 13.1319 11.122C13.0719 11.05 12.9699 10.93 12.8799 10.792C12.8079 10.702 12.7239 10.57 12.6459 10.438C12.5499 10.276 12.4659 10.114 12.3819 9.94599C12.2718 9.70999 11.9621 9.63988 11.7779 9.82404L8.40395 13.198C8.32595 13.276 8.25395 13.426 8.23595 13.528L7.91195 15.826C7.85195 16.234 7.96595 16.618 8.21795 16.876C8.43395 17.086 8.73395 17.2 9.05795 17.2C9.12995 17.2 9.20195 17.194 9.27395 17.182L11.5779 16.858C11.6859 16.84 11.8359 16.768 11.9079 16.69L15.2875 13.3105C15.4679 13.13 15.4001 12.8195 15.1659 12.718Z" fill="#080808"/>
</svg>
