<svg width="22" height="11" viewBox="0 0 22 11" fill="none" xmlns="http://www.w3.org/2000/svg">
<path d="M7.77 3.168C7.546 2.75733 7.238 2.44467 6.846 2.23C6.454 2.01533 5.99667 1.908 5.474 1.908C4.89533 1.908 4.382 2.03867 3.934 2.3C3.486 2.56133 3.136 2.93467 2.884 3.42C2.632 3.90533 2.506 4.46533 2.506 5.1C2.506 5.75333 2.632 6.32267 2.884 6.808C3.14533 7.29333 3.50467 7.66667 3.962 7.928C4.41933 8.18933 4.95133 8.32 5.558 8.32C6.30467 8.32 6.916 8.124 7.392 7.732C7.868 7.33067 8.18067 6.77533 8.33 6.066H4.97V4.568H10.262V6.276C10.1313 6.95733 9.85133 7.58733 9.422 8.166C8.99267 8.74467 8.43733 9.21133 7.756 9.566C7.084 9.91133 6.328 10.084 5.488 10.084C4.54533 10.084 3.69133 9.874 2.926 9.454C2.17 9.02467 1.57267 8.432 1.134 7.676C0.704667 6.92 0.49 6.06133 0.49 5.1C0.49 4.13867 0.704667 3.28 1.134 2.524C1.57267 1.75867 2.17 1.166 2.926 0.746C3.69133 0.316666 4.54067 0.102 5.474 0.102C6.57533 0.102 7.532 0.372666 8.344 0.913999C9.156 1.446 9.716 2.19733 10.024 3.168H7.77ZM13.6721 0.228V10H11.7121V0.228H13.6721ZM21.6426 0.228V1.81H17.5686V4.316H20.6906V5.87H17.5686V10H15.6086V0.228H21.6426Z" fill="#292D32"/>
</svg>
