<svg width="20" height="20" viewBox="0 0 20 20" fill="none" xmlns="http://www.w3.org/2000/svg">
<path d="M10.4417 17.0167H5.17499C2.54166 17.0167 1.66666 15.2667 1.66666 13.5083V6.49166C1.66666 3.85832 2.54166 2.98332 5.17499 2.98332H10.4417C13.075 2.98332 13.95 3.85832 13.95 6.49166V13.5083C13.95 16.1417 13.0667 17.0167 10.4417 17.0167Z" stroke="#292D32" stroke-width="1.5" stroke-linecap="round" stroke-linejoin="round"/>
<path d="M16.267 14.25L13.9503 12.625V7.36664L16.267 5.74164C17.4003 4.94997 18.3336 5.43331 18.3336 6.82497V13.175C18.3336 14.5666 17.4003 15.05 16.267 14.25Z" stroke="#292D32" stroke-width="1.5" stroke-linecap="round" stroke-linejoin="round"/>
<path d="M9.58333 9.16667C10.2737 9.16667 10.8333 8.60703 10.8333 7.91667C10.8333 7.22632 10.2737 6.66667 9.58333 6.66667C8.89297 6.66667 8.33333 7.22632 8.33333 7.91667C8.33333 8.60703 8.89297 9.16667 9.58333 9.16667Z" stroke="#292D32" stroke-width="1.5" stroke-linecap="round" stroke-linejoin="round"/>
</svg>
