<svg xmlns="http://www.w3.org/2000/svg" width="830.339" height="434.364" viewBox="0 0 830.339 434.364">
  <path id="Icon_feather-message-square" data-name="Icon feather-message-square" d="M4.5,646.47c0,35.041-.88,62.207,8.5,82.212,7.892,13.172,28.759,24.783,39.562,24.783H365.614L388.975,834.2,402.5,753.465a11.324,11.324,0,0,0,1.629.617c7.776-.054,33.647,5.111,32.908-86.205-.841-103.886,0-556.382,0-556.382,0-27.95,2.852-44.654-3.437-74.248C424.925,16.277,402.963,4.5,388.975,4.5H52.559c-15.076,0-35.392,7.795-44.285,32.2C2.8,58.59,4.5,85.967,4.5,111.5Z" transform="translate(-4 438.143) rotate(-90)" fill="#fff" stroke="#000" stroke-linecap="round" stroke-width="1"/>
</svg>
