<svg xmlns="http://www.w3.org/2000/svg" width="219.216" height="219.156" viewBox="0 0 219.216 219.156">
  <g id="basketball-sharp" transform="translate(-3.418 -3.422)">
    <path id="Path_689" data-name="Path 689" d="M80.006,101.041,98.212,82.836A109.443,109.443,0,0,1,71.723,11.352c0-2.646.1-5.314.286-7.93A109.45,109.45,0,0,0,8.485,29.5Z" transform="translate(33.02 0)"/>
    <path id="Path_690" data-name="Path 690" d="M40.708,70.78,82.027,29.439A109.443,109.443,0,0,0,19.488,3.431c-.218,2.593-.338,5.209-.338,7.862A92.62,92.62,0,0,0,40.7,70.78Z" transform="translate(102.52 0.059)"/>
    <path id="Path_691" data-name="Path 691" d="M23.609,49.8A92.62,92.62,0,0,0,83.1,71.37c2.646,0,5.284-.12,7.862-.338A109.443,109.443,0,0,0,64.951,8.485Z" transform="translate(131.578 32.994)"/>
    <path id="Path_692" data-name="Path 692" d="M70.78,40.714A92.613,92.613,0,0,0,11.293,19.149q-3.976,0-7.862.338A109.443,109.443,0,0,0,29.439,82.034Z" transform="translate(0.085 102.488)"/>
    <path id="Path_693" data-name="Path 693" d="M33.783,19.591,15.578,37.8A109.443,109.443,0,0,1,42.067,109.28c0,2.646-.1,5.314-.286,7.93A109.435,109.435,0,0,0,105.3,91.135Z" transform="translate(79.243 105.368)"/>
    <path id="Path_694" data-name="Path 694" d="M109.28,42.067A109.443,109.443,0,0,1,37.8,15.578L19.591,33.783,91.135,105.3A109.45,109.45,0,0,0,117.24,41.774q-3.969.282-7.96.286Z" transform="translate(105.394 79.217)"/>
    <path id="Path_695" data-name="Path 695" d="M101.067,80.006,29.523,8.485A109.435,109.435,0,0,0,3.418,72.016c2.646-.188,5.284-.286,7.93-.286A109.443,109.443,0,0,1,82.832,98.219Z" transform="translate(0 32.994)"/>
    <path id="Path_696" data-name="Path 696" d="M8.485,64.951A109.443,109.443,0,0,0,71.024,90.958q.331-3.886.338-7.862A92.613,92.613,0,0,0,49.8,23.609Z" transform="translate(33.02 131.552)"/>
  </g>
</svg>
