<svg width="18" height="19" viewBox="0 0 18 19" fill="none" xmlns="http://www.w3.org/2000/svg">
<path opacity="0.5" d="M16.5812 8.74496L9.21477 16.1114C8.31233 17.0138 7.08835 17.5208 5.8121 17.5208C4.53585 17.5208 3.31188 17.0138 2.40943 16.1114C1.50699 15.209 1 13.985 1 12.7087C1 11.4325 1.50699 10.2085 2.40943 9.30606L9.77587 1.93962C10.3775 1.33799 11.1935 1 12.0443 1C12.8952 1 13.7111 1.33799 14.3128 1.93962C14.9144 2.54125 15.2524 3.35724 15.2524 4.20807C15.2524 5.0589 14.9144 5.87489 14.3128 6.47651L6.93831 13.843C6.63749 14.1438 6.2295 14.3128 5.80409 14.3128C5.37867 14.3128 4.97068 14.1438 4.66986 13.843C4.36905 13.5421 4.20005 13.1341 4.20005 12.7087C4.20005 12.2833 4.36905 11.8753 4.66986 11.5745L11.4752 4.77718" stroke="black" stroke-linecap="round" stroke-linejoin="round"/>
</svg>
