<svg width="18" height="18" viewBox="0 0 18 18" fill="none" xmlns="http://www.w3.org/2000/svg">
<path d="M9.67691 8.25034C9.56127 7.85257 9.14512 7.62387 8.74735 7.73947C8.34958 7.8551 8.12088 8.27126 8.23648 8.66902C8.24706 8.70545 8.27083 8.80202 8.30359 8.96269C8.36118 9.24507 8.41951 9.59935 8.47442 10.0295C8.69802 11.7803 8.794 14.1548 8.68716 17.2238C8.67274 17.6378 8.99665 17.985 9.41063 17.9994C9.8246 18.0139 10.1719 17.69 10.1863 17.276C10.2959 14.1288 10.1966 11.6736 9.96242 9.83944C9.85941 9.03322 9.75348 8.5138 9.67691 8.25034Z" fill="#080808"/>
<path d="M17.6835 9.86928C17.4905 7.89489 17.1943 6.21694 16.7479 5.16311C15.4216 2.02748 12.3624 0 8.95682 0C7.83408 0 6.73689 0.219838 5.69951 0.652587C5.12993 0.89039 4.59484 1.17094 4.09954 1.49309C3.75229 1.71894 3.65389 2.1835 3.87974 2.53075C4.10559 2.878 4.57016 2.9764 4.9174 2.75055C5.33535 2.47872 5.79007 2.24032 6.27721 2.03693C7.1315 1.68058 8.0324 1.50008 8.95682 1.50008C11.7597 1.50008 14.2748 3.16696 15.3665 5.74788C15.7343 6.61619 16.0122 8.19014 16.1906 10.0153C16.2309 10.4275 16.5978 10.7291 17.01 10.6888C17.4223 10.6484 17.7238 10.2815 17.6835 9.86928Z" fill="#080808"/>
<path d="M3.16152 3.1651C2.83874 2.9055 2.36662 2.95673 2.10702 3.27954C0.254484 5.58307 -0.203895 8.75263 0.921169 12.529C1.03944 12.926 1.45714 13.1519 1.8541 13.0336C2.25109 12.9153 2.47701 12.4976 2.35874 12.1007C1.36728 8.77277 1.75165 6.115 3.27596 4.21961C3.53552 3.89683 3.4843 3.4247 3.16152 3.1651Z" fill="#080808"/>
<path d="M8.9571 3.55859C8.6025 3.55859 8.25181 3.59649 7.90671 3.67187C7.50205 3.76029 7.24565 4.16003 7.33411 4.56472C7.42253 4.96938 7.82226 5.22578 8.22696 5.13736C8.4669 5.08494 8.71023 5.05864 8.95713 5.05864C10.3273 5.05864 11.5556 5.87264 12.0901 7.13467C12.9197 9.0969 13.3303 12.0437 13.187 16.144C13.1725 16.5579 13.4963 16.9053 13.9103 16.9197C14.3243 16.9342 14.6716 16.6104 14.6861 16.1964C14.8365 11.8948 14.3967 8.73815 13.4716 6.55011C12.702 4.73305 10.9298 3.55859 8.9571 3.55859Z" fill="#080808"/>
<path d="M6.12793 5.33285C5.79313 5.08893 5.32399 5.16258 5.08007 5.49738C4.16113 6.75864 3.89221 8.45723 4.32472 10.0573C4.34222 10.12 4.37274 10.2413 4.41328 10.4243C4.48254 10.7369 4.55218 11.1038 4.61747 11.5216C4.80528 12.7232 4.91824 14.0846 4.91824 15.5768C4.91824 15.991 5.25403 16.3268 5.66825 16.3268C6.08247 16.3268 6.41826 15.991 6.41826 15.5768C6.41826 14.0042 6.2989 12.5657 6.09949 11.2899C6.02924 10.8406 5.95373 10.4427 5.87779 10.0999C5.8312 9.8896 5.79397 9.74159 5.77098 9.65942C5.45534 8.49154 5.6499 7.26259 6.29243 6.38071C6.53639 6.0459 6.4627 5.57677 6.12793 5.33285Z" fill="#080808"/>
</svg>
