<svg xmlns="http://www.w3.org/2000/svg" width="40.343" height="39.576" viewBox="0 0 40.343 39.576">
  <path id="Icon_awesome-exclamation-circle" data-name="Icon awesome-exclamation-circle" d="M40.905,20.351A19.981,19.981,0,0,1,20.734,40.139,19.981,19.981,0,0,1,.562,20.351,19.985,19.985,0,0,1,20.734.563,19.985,19.985,0,0,1,40.905,20.351ZM20.734,24.34a3.671,3.671,0,1,0,3.741,3.67A3.706,3.706,0,0,0,20.734,24.34ZM17.182,11.147,17.785,22a.968.968,0,0,0,.975.905h3.949A.968.968,0,0,0,23.683,22l.6-10.852a.966.966,0,0,0-.975-1.01H18.156A.966.966,0,0,0,17.182,11.147Z" transform="translate(-0.563 -0.563)" fill="#f8add0"/>
</svg>
