<svg xmlns="http://www.w3.org/2000/svg" width="458.926" height="458.926" viewBox="0 0 458.926 458.926">
  <path id="Icon_ionic-md-football" data-name="Icon ionic-md-football" d="M232.838,3.375C106.3,3.375,3.375,106.3,3.375,232.838S106.3,462.3,232.838,462.3,462.3,359.373,462.3,232.838,359.373,3.375,232.838,3.375ZM90.527,213.2l43.245,19.747,18.865,73.8-17.21,32.323-63.1-.772a192.675,192.675,0,0,1-30.338-83.07ZM330.249,339.075l-17.21-32.323L331.9,232.838,375.039,213.2l48.54,42.031a191.268,191.268,0,0,1-30.338,83.07Zm35.743-161.286-48.1,21.622-67.4-56.924V90.416l52.843-35.964a196.71,196.71,0,0,1,83.4,63.764ZM161.462,54.563l52.622,35.854v52.07L146.789,199.3,99.352,177.679l-20.63-59.131A191.053,191.053,0,0,1,161.462,54.563Zm29.9,365.817c-.772-.221-1.434-.331-2.206-.552l-22.615-60.786,16.217-32.434H282.923l16.548,33.427L277.627,419.5c-1.1.221-2.206.552-3.31.772a278.131,278.131,0,0,1-44.569,4.523A187.065,187.065,0,0,1,191.358,420.38Z" transform="translate(-3.375 -3.375)"/>
</svg>
