<svg xmlns="http://www.w3.org/2000/svg" width="230.432" height="230.431" viewBox="0 0 230.432 230.431">
  <path id="android-radio-button-on" d="M118.591,60.987A57.612,57.612,0,1,0,176.2,118.6,57.783,57.783,0,0,0,118.591,60.987Zm0-57.612C55.22,3.375,3.375,55.22,3.375,118.591S55.22,233.806,118.591,233.806s115.216-51.845,115.216-115.216S181.961,3.375,118.591,3.375Zm0,207.388c-50.695,0-92.173-41.478-92.173-92.173S67.9,26.418,118.591,26.418s92.173,41.478,92.173,92.173S169.286,210.763,118.591,210.763Z" transform="translate(-3.375 -3.375)"/>
</svg>
