<svg width="14" height="14" viewBox="0 0 14 14" fill="none" xmlns="http://www.w3.org/2000/svg">
<path d="M10.7742 9.81783L11.0017 11.6612C11.0601 12.1453 10.5409 12.4836 10.1267 12.2328L7.68257 10.7803C7.41424 10.7803 7.15175 10.7628 6.89508 10.7278C7.32675 10.2203 7.58341 9.57865 7.58341 8.88448C7.58341 7.22781 6.14841 5.88617 4.37507 5.88617C3.69841 5.88617 3.07424 6.07866 2.55508 6.41699C2.53758 6.27116 2.53174 6.12532 2.53174 5.97365C2.53174 3.31949 4.83591 1.16699 7.68257 1.16699C10.5292 1.16699 12.8334 3.31949 12.8334 5.97365C12.8334 7.54865 12.0226 8.94283 10.7742 9.81783Z" stroke="#292D32" stroke-linecap="round" stroke-linejoin="round"/>
<path d="M7.58317 8.88405C7.58317 9.57822 7.32651 10.2199 6.89484 10.7274C6.31734 11.4274 5.4015 11.8766 4.37484 11.8766L2.85234 12.7807C2.59567 12.9382 2.269 12.7224 2.304 12.4249L2.44984 11.2757C1.66817 10.7332 1.1665 9.86405 1.1665 8.88405C1.1665 7.85738 1.71484 6.95323 2.55484 6.41656C3.07401 6.07823 3.69817 5.88574 4.37484 5.88574C6.14817 5.88574 7.58317 7.22738 7.58317 8.88405Z" stroke="#292D32" stroke-linecap="round" stroke-linejoin="round"/>
</svg>
